{
.appVersion = "3151";
.formatVersion = 3;
classes = (
{
code = "Alif-adlam Daali-adlam Laam-adlam Miim-adlam Ba-adlam Sinnyiiyhe-adlam Pe-adlam Bhe-adlam Ra-adlam E-adlam Fa-adlam I-adlam O-adlam Dha-adlam Yhe-adlam Waw-adlam Nun-adlam Kaf-adlam Ya-adlam U-adlam Jiim-adlam Chi-adlam Ha-adlam Qaaf-adlam Ga-adlam Nya-adlam Tu-adlam Nha-adlam Va-adlam Kha-adlam Gbe-adlam Zal-adlam Kpo-adlam Sha-adlam Alif-adlam.alt alif-adlam daali-adlam laam-adlam miim-adlam ba-adlam sinnyiiyhe-adlam pe-adlam bhe-adlam ra-adlam e-adlam fa-adlam i-adlam o-adlam dha-adlam yhe-adlam waw-adlam nun-adlam kaf-adlam ya-adlam u-adlam jiim-adlam chi-adlam ha-adlam qaaf-adlam ga-adlam nya-adlam tu-adlam nha-adlam va-adlam kha-adlam gbe-adlam zal-adlam kpo-adlam sha-adlam ba-adlam.alt tu-adlam.alt ha-adlam.medi
";
name = adlamLetters;
},
{
code = "aliflengthencomb-adlam aliflengthencomb-adlam.case vowellengthencomb-adlam vowellengthencomb-adlam.case gemination-adlam gemination-adlam.case hamza-adlam consonantmodcomb-adlam gemconsonantmodcomb-adlam consonantmodcomb-adlam.case gemconsonantmodcomb-adlam.case gemination-adlam.wide gemination-adlam.wide.case
";
name = adlamDia;
}
);
customParameters = (
{
name = panose;
value = (
2,
1,
0,
0,
0,
0,
0,
0,
0,
0
);
},
{
name = "Use Typo Metrics";
value = 1;
},
{
name = fsType;
value = (
);
}
);
date = "2022-05-24 17:03:06 +0000";
familyName = "ADLaM Display";
featurePrefixes = (
{
code = "languagesystem DFLT dflt;
languagesystem latn dflt;
languagesystem adlm dflt;
";
name = Languagesystems;
}
);
features = (
{
automatic = 1;
code = "feature case;
feature ss01;
";
tag = aalt;
},
{
code = "lookup ccmp_latn_1 {
	sub fi by f i;
	sub fl by f l;
} ccmp_latn_1;

script latn;
lookup ccmp_latn_1;

lookup combiningTop {
	lookupflag UseMarkFilteringSet @CombiningTopAccents;
    sub [i j]' @CombiningTopAccents by [dotlessi dotlessj];
} combiningTop;

script adlm;

glyphs = (
{
color = 4;
glyphname = A;
kernLeft = A;
kernRight = A;
lastChange = "2023-03-10 20:50:33 +0000";
layers = (
{
anchors = (
{
name = bottom;
pos = (715,-15);
},
{
name = ogonek.case;
pos = (1188,0);
},
{
name = top;
pos = (717,1434);
}
);
background = {
anchors = (
{
name = bottom;
pos = (715,-15);
},
{
name = ogonek.case;
pos = (1188,0);
},
{
name = top;
pos = (717,1434);
}
);
shapes = (
{
closed = 1;
nodes = (
(893,1410,o),
(853,1434,o),
(788,1434,cs),
(644,1434,ls),
(580,1434,o),
(541,1410,o),
(502,1355,cs),
(319,1097,o),
(87,418,o),
(71,47,cs),
(70,12,o),
(88,0,o),
(112,0,cs),
(358,0,ls),
(391,0,o),
(408,16,o),
(409,47,cs),
(419,329,o),
(536,847,o),
(706,1082,c),
(712,1082,l),
(867,847,o),
(998,324,o),
(1009,47,cs),
(1010,16,o),
(1027,0,o),
(1058,0,cs),
(1309,0,ls),
(1340,0,o),
(1358,17,o),
(1357,53,cs),
(1342,416,o),
(1115,1097,o),
(932,1355,cs)
);
},
{
closed = 1;
nodes = (
(307,319,l),
(1097,319,l),
(1097,567,l),
(307,567,l)
);
}
);
};
layerId = "DD1D3E88-8CF6-488D-B1FD-132231471927";
shapes = (
{
closed = 1;
nodes = (
(893,1410,o),
(853,1434,o),
(788,1434,cs),
(644,1434,ls),
(580,1434,o),
(541,1410,o),
(502,1355,cs),
(319,1097,o),
(91,418,o),
(75,47,cs),
(74,12,o),
(92,0,o),
(116,0,cs),
(353,0,ls),
(386,0,o),
(403,16,o),
(404,47,cs),
(414,329,o),
(536,847,o),
(706,1118,c),
(712,1118,l),
(867,847,o),
(1007,324,o),
(1018,47,cs),
(1019,16,o),
(1036,0,o),
(1067,0,cs),
(1309,0,ls),
(1340,0,o),
(1358,17,o),
(1357,53,cs),
(1342,416,o),
(1115,1097,o),
(932,1355,cs)
);
},
{
closed = 1;
nodes = (
(307,319,l),
(1097,319,l),
(1097,567,l),
(307,567,l)
);
}
);
width = 1432;
}
);
note = A;
unicode = 65;
},
{
color = 4;
glyphname = Aring;
kernLeft = A;
kernRight = A;
lastChange = "2023-03-10 21:27:31 +0000";
layers = (
{
anchors = (
{
name = bottom;
pos = (720,-15);
},
{
name = top;
pos = (722,1434);
}
);
background = {
anchors = (
{
name = bottom;
pos = (720,-15);
},
{
name = top;
pos = (722,1736);
}
);
shapes = (
{
closed = 1;
nodes = (
(1441,0,l),
(1089,0,l),
(987,319,l),
(477,319,l),
(376,0,l),
(26,0,l),
(538,1407,l),
(503,1443,o),
(485,1489,o),
(485,1544,cs),
(485,1693,o),
(602,1776,o),
(739,1776,cs),
(884,1776,o),
(993,1688,o),
(993,1548,cs),
(993,1495,o),
(975,1449,o),
(940,1411,c)
);
},
{
closed = 1;
nodes = (
(672,1645,o),
(632,1602,o),
(632,1546,cs),
(632,1481,o),
(666,1448,o),
(735,1448,cs),
(799,1448,o),
(841,1491,o),
(841,1546,cs),
(841,1603,o),
(798,1645,o),
(735,1645,cs)
);
},
{
closed = 1;
nodes = (
(909,584,l),
(757,1049,ls),
(746,1083,o),
(738,1112,o),
(734,1135,c),
(727,1135,l),
(722,1112,o),
(714,1085,o),
(704,1053,cs),
(551,584,l)
);
}
);
};
layerId = "DD1D3E88-8CF6-488D-B1FD-132231471927";
shapes = (
{
pos = (1026,-9);
ref = ringcomb.case;
},
{
ref = A;
}
);
width = 1432;
}
);
metricLeft = A;
metricRight = A;
unicode = 197;
},
{
color = 4;
glyphname = AE;
kernRight = E;
lastChange = "2023-03-10 21:20:09 +0000";
layers = (
{
anchors = (
{
name = bottom;
pos = (1205,-15);
},
{
name = top;
pos = (1207,1434);
}
);
background = {
anchors = (
{
name = bottom;
pos = (1205,-15);
},
{
name = top;
pos = (1207,1434);
}
);
hints = (
{
name = _cap.UpperHorizontal;
options = 10;
origin = (1,0);
type = Cap;
},
{
name = _cap.UpperHorizontal;
options = 10;
origin = (1,7);
type = Cap;
},
{
name = _cap.UpperHorizontal;
options = 10;
origin = (1,11);
type = Cap;
}
);
shapes = (
{
closed = 1;
nodes = (
(903,1171,l),
(931,1171,l),
(931,567,l),
(621,567,l)
);
},
{
closed = 1;
nodes = (
(1669,0,l),
(1669,262,l),
(1367,262,ls),
(1279,262,o),
(1253,297,o),
(1253,387,cs),
(1253,590,l),
(1602,590,l),
(1602,852,l),
(1253,852,l),
(1253,1171,l),
(1637,1171,l),
(1637,1434,l),
(827,1434,ls),
(743,1434,o),
(701,1411,o),
(672,1353,cs),
(-12,0,l),
(363,0,l),
(510,319,l),
(931,319,l),
(931,268,ls),
(931,72,o),
(971,0,o),
(1178,0,cs)
);
}
);
};
hints = (
{
name = _cap.UpperHorizontal;
options = 10;
origin = (0,15);
type = Cap;
},
{
name = _cap.UpperHorizontal;
options = 10;
origin = (0,11);
type = Cap;
},
{
name = _cap.UpperHorizontal;
options = 10;
origin = (0,4);
type = Cap;
}
);
layerId = "DD1D3E88-8CF6-488D-B1FD-132231471927";
shapes = (
{
closed = 1;
nodes = (
(931,268,ls),
(931,72,o),
(971,0,o),
(1178,0,cs),
(1659,0,l),
(1659,262,l),
(1357,262,ls),
(1269,262,o),
(1243,297,o),
(1243,387,cs),
(1243,590,l),
(1592,590,l),
(1592,852,l),
(1243,852,l),
(1243,1171,l),
(1627,1171,l),
(1627,1434,l),
(932,1434,ls),
(798,1434,o),
(734,1428,o),
(623,1264,cs),
(506,1091,o),
(246,586,o),
(69,78,cs),
(52,29,o),
(57,0,o),
(114,0,cs),
(351,0,ls),
(382,0,o),
(396,10,o),
(408,45,cs),
(555,499,o),
(799,1022,o),
(907,1171,c),
(931,1171,l)
);
},
{
closed = 1;
nodes = (
(419,329,l),
(1090,329,l),
(1090,587,l),
(419,587,l)
);
}
);
width = 1858;
}
);
unicode = 198;
},
{
color = 4;
glyphname = B;
kernLeft = H;
lastChange = "2023-03-08 20:34:24 +0000";
layers = (
{
anchors = (
{
name = bottom;
pos = (561,0);
},
{
name = top;
pos = (586,1434);
}
);
background = {
anchors = (
{
name = mark0;
pos = (596,0);
},
{
name = mark1;
pos = (586,-15);
}
);
shapes = (
{
closed = 1;
nodes = (
(711,0,ls),
(1018,0,o),
(1237,148,o),
(1237,428,cs),
(1237,615,o),
(1097,745,o),
(901,770,c),
(901,774,l),
(1059,819,o),
(1180,939,o),
(1180,1098,cs),
(1180,1311,o),
(1002,1434,o),
(682,1434,cs),
(160,1434,l),
(160,0,l)
);
},
{
closed = 1;
nodes = (
(483,616,l),
(660,616,ls),
(809,616,o),
(897,547,o),
(897,432,cs),
(897,312,o),
(807,238,o),
(658,238,cs),
(483,238,l)
);
},
{
closed = 1;
nodes = (
(483,1196,l),
(604,1196,ls),
(761,1196,o),
(840,1143,o),
(840,1038,cs),
(840,925,o),
(758,856,o),
(625,856,cs),
(483,856,l)
);
}
);
};
hints = (
{
name = _cap.UpperHorizontal;
options = 10;
origin = (1,11);
type = Cap;
}
);
layerId = "DD1D3E88-8CF6-488D-B1FD-132231471927";
shapes = (
{
closed = 1;
nodes = (
(711,0,ls),
(1018,0,o),
(1237,148,o),
(1237,428,cs),
(1237,615,o),
(1097,745,o),
(922,770,c),
(922,774,l),
(1059,819,o),
(1180,939,o),
(1180,1098,cs),
(1180,1311,o),
(1002,1434,o),
(682,1434,cs),
(407,1434,ls),
(200,1434,o),
(160,1366,o),
(160,1166,cs),
(160,268,ls),
(160,72,o),
(200,0,o),
(407,0,cs)
);
},
{
closed = 1;
nodes = (
(483,1072,ls),
(483,1162,o),
(509,1196,o),
(597,1196,cs),
(651,1196,ls),
(761,1196,o),
(840,1164,o),
(840,1038,cs),
(840,912,o),
(760,856,o),
(682,856,cs),
(673,856,l),
(673,616,l),
(682,616,ls),
(809,616,o),
(897,547,o),
(897,432,cs),
(897,312,o),
(807,238,o),
(673,238,cs),
(597,238,ls),
(509,238,o),
(483,273,o),
(483,363,cs)
);
}
);
width = 1317;
}
);
note = B;
unicode = 66;
},
{
color = 4;
glyphname = C;
kernLeft = O;
kernRight = C;
lastChange = "2023-03-10 19:36:13 +0000";
layers = (
{
anchors = (
{
name = bottom1;
pos = (733,-25);
},
{
name = top;
pos = (762,1433);
}
);
background = {
shapes = (
{
closed = 1;
nodes = (
(1206,-25,o),
(1475,215,o),
(1475,727,cs),
(1475,1209,o),
(1215,1458,o),
(798,1458,cs),
(353,1458,o),
(90,1209,o),
(90,698,cs),
(90,215,o),
(359,-25,o),
(775,-25,cs)
);
},
{
closed = 1;
nodes = (
(544,254,o),
(430,443,o),
(430,715,cs),
(430,1018,o),
(550,1179,o),
(789,1179,cs),
(1032,1179,o),
(1135,1018,o),
(1135,709,cs),
(1135,443,o),
(1021,254,o),
(781,254,cs)
);
},
{
closed = 1;
nodes = (
(-602,245,cs),
(-787,245,o),
(-924,399,o),
(-924,725,cs),
(-924,1051,o),
(-787,1189,o),
(-598,1189,cs),
(-464,1189,o),
(-415,1129,o),
(-391,1095,cs),
(-376,1073,o),
(-366,1065,o),
(-334,1060,cs),
(-307,1056,o),
(-245,1052,o),
(-202,1052,cs),
(-175,1052,o),
(-164,1057,o),
(-158,1062,cs),
(-151,1067,o),
(-148,1073,o),
(-145,1091,cs),
(-137,1138,o),
(-135,1210,o),
(-139,1242,cs),
(-141,1266,o),
(-144,1273,o),
(-153,1288,cs),
(-191,1348,o),
(-295,1459,o),
(-587,1459,cs),
(-1003,1459,o),
(-1264,1190,o),
(-1264,714,cs),
(-1264,132,o),
(-983,-25,o),
(-614,-25,cs),
(-271,-25,o),
(-154,121,o),
(-128,163,cs),
(-117,181,o),
(-116,187,o),
(-114,201,cs),
(-111,244,o),
(-112,310,o),
(-116,353,cs),
(-117,367,o),
(-120,378,o),
(-126,383,cs),
(-132,388,o),
(-138,390,o),
(-155,391,cs),
(-184,394,o),
(-295,394,o),
(-327,385,cs),
(-352,379,o),
(-362,368,o),
(-383,341,cs),
(-417,297,o),
(-457,245,o)
);
}
);
};
layerId = "DD1D3E88-8CF6-488D-B1FD-132231471927";
shapes = (
{
closed = 1;
nodes = (
(762,245,cs),
(577,245,o),
(430,399,o),
(430,725,cs),
(430,1051,o),
(567,1189,o),
(756,1189,cs),
(890,1189,o),
(939,1129,o),
(963,1095,cs),
(978,1073,o),
(988,1065,o),
(1020,1060,cs),
(1047,1056,o),
(1109,1052,o),
(1152,1052,cs),
(1179,1052,o),
(1190,1057,o),
(1196,1062,cs),
(1203,1067,o),
(1206,1073,o),
(1209,1091,cs),
(1217,1138,o),
(1219,1210,o),
(1215,1242,cs),
(1213,1266,o),
(1210,1273,o),
(1201,1288,cs),
(1163,1348,o),
(1059,1459,o),
(767,1459,cs),
(351,1459,o),
(90,1190,o),
(90,714,cs),
(90,142,o),
(381,-25,o),
(750,-25,cs),
(1093,-25,o),
(1210,121,o),
(1236,163,cs),
(1247,181,o),
(1248,187,o),
(1250,201,cs),
(1253,244,o),
(1252,310,o),
(1248,353,cs),
(1247,367,o),
(1244,378,o),
(1238,383,cs),
(1232,388,o),
(1226,390,o),
(1209,391,cs),
(1180,394,o),
(1069,394,o),
(1037,385,cs),
(1012,379,o),
(1002,368,o),
(981,341,cs),
(947,297,o),
(907,245,o)
);
}
);
width = 1312;
}
);
note = C;
unicode = 67;
},
{
color = 4;
glyphname = D;
kernLeft = H;
kernRight = O;
lastChange = "2023-03-08 20:35:33 +0000";
layers = (
{
anchors = (
{
name = bottom;
pos = (641,0);
},
{
name = top;
pos = (666,1434);
}
);
background = {
anchors = (
{
name = mark0;
pos = (686,0);
},
{
name = mark1;
pos = (696,-15);
}
);
shapes = (
{
closed = 1;
nodes = (
(668,0,ls),
(1126,0,o),
(1432,283,o),
(1432,735,cs),
(1432,1201,o),
(1177,1434,o),
(668,1434,cs),
(160,1434,l),
(160,0,l)
);
},
{
closed = 1;
nodes = (
(483,1171,l),
(641,1171,ls),
(925,1171,o),
(1092,1005,o),
(1092,731,cs),
(1092,446,o),
(928,262,o),
(643,262,cs),
(483,262,l)
);
}
);
};
layerId = "DD1D3E88-8CF6-488D-B1FD-132231471927";
shapes = (
{
closed = 1;
nodes = (
(641,1171,ls),
(925,1171,o),
(1092,1077,o),
(1092,731,cs),
(1092,385,o),
(928,262,o),
(643,262,cs),
(597,262,ls),
(509,262,o),
(483,297,o),
(483,387,cs),
(483,1047,ls),
(483,1137,o),
(509,1171,o),
(597,1171,cs)
);
},
{
closed = 1;
nodes = (
(714,0,ls),
(1143,0,o),
(1432,203,o),
(1432,735,cs),
(1432,1267,o),
(1143,1434,o),
(714,1434,cs),
(407,1434,ls),
(200,1434,o),
(160,1366,o),
(160,1166,cs),
(160,268,ls),
(160,72,o),
(200,0,o),
(407,0,cs)
);
}
);
width = 1522;
}
);
note = D;
unicode = 68;
},
{
color = 4;
glyphname = Eth;
kernRight = O;
lastChange = "2023-03-02 20:29:53 +0000";
layers = (
{
hints = (
{
name = _cap.UpperHorizontal;
options = 10;
origin = (1,0);
type = Cap;
}
);
layerId = "DD1D3E88-8CF6-488D-B1FD-132231471927";
shapes = (
{
pos = (30,0);
ref = D;
},
{
closed = 1;
nodes = (
(688,586,l),
(688,852,l),
(30,852,l),
(30,586,l)
);
}
);
width = 1552;
}
);
unicode = 208;
},
{
color = 4;
glyphname = E;
kernLeft = H;
kernRight = E;
lastChange = "2023-03-08 21:23:03 +0000";
layers = (
{
anchors = (
{
name = bottom;
pos = (616,0);
},
{
name = ogonek.case;
pos = (801,0);
},
{
name = top;
pos = (578,1434);
}
);
background = {
anchors = (
{
name = mark0;
pos = (866,0);
},
{
name = mark1;
pos = (616,-15);
}
);
shapes = (
{
closed = 1;
nodes = (
(1020,0,l),
(1020,262,l),
(483,262,l),
(483,590,l),
(952,590,l),
(952,852,l),
(483,852,l),
(483,1171,l),
(987,1171,l),
(987,1434,l),
(160,1434,l),
(160,0,l)
);
}
);
};
hints = (
{
name = _cap.UpperHorizontal;
options = 2;
origin = (0,14);
type = Cap;
},
{
name = _cap.UpperHorizontal;
options = 2;
origin = (0,7);
type = Cap;
},
{
name = _cap.UpperHorizontal;
options = 2;
origin = (0,0);
type = Cap;
}
);
layerId = "DD1D3E88-8CF6-488D-B1FD-132231471927";
shapes = (
{
closed = 1;
nodes = (
(920,0,l),
(920,263,l),
(597,263,ls),
(509,263,o),
(483,298,o),
(483,388,cs),
(483,590,l),
(852,590,l),
(852,853,l),
(483,853,l),
(483,1047,ls),
(483,1137,o),
(509,1171,o),
(597,1171,cs),
(887,1171,l),
(887,1434,l),
(407,1434,ls),
(200,1434,o),
(160,1366,o),
(160,1166,cs),
(160,268,ls),
(160,72,o),
(200,0,o),
(407,0,cs)
);
}
);
width = 1119;
}
);
note = E;
unicode = 69;
},
{
color = 4;
glyphname = F;
kernLeft = H;
lastChange = "2023-03-06 21:17:23 +0000";
layers = (
{
anchors = (
{
name = bottom;
pos = (561,0);
},
{
name = top;
pos = (586,1434);
}
);
background = {
anchors = (
{
name = mark0;
pos = (226,0);
},
{
name = mark1;
pos = (596,-15);
}
);
shapes = (
{
closed = 1;
nodes = (
(483,0,l),
(483,557,l),
(948,557,l),
(948,819,l),
(483,819,l),
(483,1171,l),
(989,1171,l),
(989,1434,l),
(160,1434,l),
(160,0,l)
);
}
);
};
hints = (
{
name = _cap.UpperHorizontal;
options = 2;
origin = (0,3);
type = Cap;
},
{
name = _cap.UpperHorizontal;
options = 2;
origin = (0,12);
type = Cap;
},
{
name = _cap.UCstemVert;
options = 8;
origin = (0,9);
type = Cap;
}
);
layerId = "DD1D3E88-8CF6-488D-B1FD-132231471927";
shapes = (
{
closed = 1;
nodes = (
(483,1137,o),
(509,1171,o),
(597,1171,cs),
(889,1171,l),
(889,1434,l),
(407,1434,ls),
(200,1434,o),
(160,1366,o),
(160,1166,cs),
(160,0,l),
(483,0,l),
(483,556,l),
(848,556,l),
(848,819,l),
(483,819,l),
(483,1047,ls)
);
}
);
width = 1083;
}
);
note = F;
unicode = 70;
},
{
color = 4;
glyphname = G;
kernLeft = O;
lastChange = "2023-03-08 21:33:57 +0000";
layers = (
{
anchors = (
{
name = bottom;
pos = (794,0);
},
{
name = top;
pos = (790,1434);
}
);
background = {
shapes = (
{
closed = 1;
nodes = (
(752,245,cs),
(567,245,o),
(430,399,o),
(430,725,cs),
(430,1051,o),
(567,1189,o),
(756,1189,cs),
(890,1189,o),
(939,1129,o),
(963,1095,cs),
(978,1073,o),
(988,1065,o),
(1020,1060,cs),
(1047,1056,o),
(1109,1052,o),
(1152,1052,cs),
(1179,1052,o),
(1190,1057,o),
(1196,1062,cs),
(1203,1067,o),
(1206,1073,o),
(1209,1091,cs),
(1217,1138,o),
(1219,1210,o),
(1215,1242,cs),
(1213,1266,o),
(1210,1273,o),
(1201,1288,cs),
(1163,1348,o),
(1059,1459,o),
(767,1459,cs),
(351,1459,o),
(90,1190,o),
(90,714,cs),
(90,132,o),
(371,-25,o),
(740,-25,cs),
(1083,-25,o),
(1200,121,o),
(1226,163,cs),
(1237,181,o),
(1238,187,o),
(1240,201,cs),
(1243,244,o),
(1242,310,o),
(1238,353,cs),
(1237,367,o),
(1234,378,o),
(1228,383,cs),
(1222,388,o),
(1216,390,o),
(1199,391,cs),
(1170,394,o),
(1059,394,o),
(1027,385,cs),
(1002,379,o),
(992,368,o),
(971,341,cs),
(937,297,o),
(897,245,o)
);
}
);
};
hints = (
{
name = _cap.UpperVertical;
options = 10;
origin = (0,0);
type = Cap;
}
);
layerId = "DD1D3E88-8CF6-488D-B1FD-132231471927";
shapes = (
{
closed = 1;
nodes = (
(1322,601,l),
(999,601,l),
(999,280,l),
(983,271,o),
(930,246,o),
(808,246,cs),
(564,246,o),
(430,411,o),
(430,725,cs),
(430,1024,o),
(563,1188,o),
(783,1188,cs),
(933,1188,o),
(973,1126,o),
(997,1095,cs),
(1013,1074,o),
(1022,1065,o),
(1054,1060,cs),
(1081,1056,o),
(1148,1052,o),
(1191,1052,cs),
(1218,1052,o),
(1229,1057,o),
(1235,1062,cs),
(1242,1067,o),
(1245,1073,o),
(1248,1091,cs),
(1256,1138,o),
(1258,1210,o),
(1254,1242,cs),
(1252,1266,o),
(1249,1273,o),
(1240,1288,cs),
(1202,1348,o),
(1094,1458,o),
(783,1458,cs),
(347,1458,o),
(90,1190,o),
(90,714,cs),
(90,177,o),
(357,-24,o),
(796,-24,cs),
(1122,-24,o),
(1274,63,o),
(1322,98,c)
);
}
);
width = 1432;
}
);
note = G;
unicode = 71;
},
{
color = 4;
glyphname = H;
kernLeft = H;
kernRight = H;
lastChange = "2023-03-08 21:23:40 +0000";
layers = (
{
anchors = (
{
name = bottom;
pos = (787,0);
},
{
name = top;
pos = (791,1434);
}
);
background = {
anchors = (
{
name = mark0;
pos = (1076,0);
},
{
name = mark1;
pos = (766,-15);
}
);
shapes = (
{
closed = 1;
nodes = (
(483,0,l),
(483,584,l),
(1077,584,l),
(1077,0,l),
(1401,0,l),
(1401,1434,l),
(1077,1434,l),
(1077,862,l),
(483,862,l),
(483,1434,l),
(160,1434,l),
(160,0,l)
);
}
);
};
hints = (
{
name = _cap.UpperVertical;
options = 2;
origin = (0,11);
type = Cap;
},
{
name = _cap.UCstemVert;
origin = (0,5);
type = Cap;
},
{
name = _cap.UCstemVert;
origin = (0,9);
type = Cap;
},
{
name = _cap.UCstemVert;
origin = (0,3);
type = Cap;
}
);
layerId = "DD1D3E88-8CF6-488D-B1FD-132231471927";
shapes = (
{
closed = 1;
nodes = (
(1077,1284,l),
(1077,862,l),
(483,862,l),
(483,1434,l),
(160,1434,l),
(160,0,l),
(483,0,l),
(483,584,l),
(1077,584,l),
(1077,0,l),
(1400,0,l),
(1400,1284,l)
);
}
);
width = 1560;
}
);
note = H;
unicode = 72;
},
{
color = 4;
glyphname = I;
kernLeft = H;
kernRight = H;
lastChange = "2023-03-08 21:03:41 +0000";
layers = (
{
anchors = (
{
name = bottom;
pos = (320,0);
},
{
name = top;
pos = (323,1434);
}
);
hints = (
{
name = _cap.UpperVertical;
options = 2;
origin = (0,1);
type = Cap;
},
{
name = _cap.UCstemVert;
options = 8;
origin = (0,3);
type = Cap;
}
);
layerId = "DD1D3E88-8CF6-488D-B1FD-132231471927";
shapes = (
{
closed = 1;
nodes = (
(483,0,l),
(483,1284,l),
(160,1284,l),
(160,0,l)
);
}
);
width = 643;
}
);
note = I;
unicode = 73;
},
{
color = 4;
glyphname = J;
lastChange = "2023-03-10 20:52:20 +0000";
layers = (
{
anchors = (
{
name = bottom;
pos = (362,0);
},
{
name = top;
pos = (387,1434);
}
);
background = {
anchors = (
{
name = bottom;
pos = (362,0);
},
{
name = top;
pos = (387,1434);
}
);
hints = (
{
name = _cap.UpperVertical;
options = 2;
origin = (0,0);
type = Cap;
}
);
shapes = (
{
closed = 1;
nodes = (
(553,1304,l),
(230,1304,l),
(230,418,ls),
(230,107,o),
(99,32,o),
(-76,-34,c),
(42,-302,l),
(306,-201,o),
(553,-40,o),
(553,418,cs)
);
}
);
};
hints = (
{
name = _cap.UpperVertical;
options = 2;
origin = (0,0);
type = Cap;
}
);
layerId = "DD1D3E88-8CF6-488D-B1FD-132231471927";
shapes = (
{
closed = 1;
nodes = (
(553,1284,l),
(230,1284,l),
(230,418,ls),
(230,131,o),
(116,17,o),
(-13,-59,cs),
(-35,-72,o),
(-41,-96,o),
(-28,-117,cs),
(84,-296,ls),
(96,-315,o),
(119,-320,o),
(138,-309,cs),
(356,-182,o),
(553,-19,o),
(553,418,cs)
);
}
);
width = 713;
}
);
note = J;
unicode = 74;
},
{
color = 4;
glyphname = K;
kernLeft = H;
lastChange = "2023-03-08 21:49:20 +0000";
layers = (
{
anchors = (
{
name = bottom;
pos = (632,0);
},
{
name = top;
pos = (657,1434);
}
);
hints = (
{
name = _cap.UpperVertical;
options = 2;
origin = (0,27);
type = Cap;
},
{
name = _cap.UpperVertical;
options = 2;
origin = (0,20);
type = Cap;
},
{
name = _cap.UCstemVert;
origin = (0,29);
type = Cap;
}
);
layerId = "DD1D3E88-8CF6-488D-B1FD-132231471927";
shapes = (
{
closed = 1;
nodes = (
(483,0,l),
(483,608,l),
(506,608,ls),
(739,608,o),
(943,249,o),
(984,47,cs),
(991,12,o),
(1008,0,o),
(1044,0,cs),
(1289,0,ls),
(1329,0,o),
(1337,15,o),
(1327,65,cs),
(1284,273,o),
(1125,635,o),
(849,723,c),
(849,730,l),
(1157,776,o),
(1225,1047,o),
(1225,1264,cs),
(1225,1284,l),
(902,1284,l),
(902,1264,ls),
(902,1064,o),
(839,859,o),
(506,859,cs),
(483,859,l),
(483,1284,l),
(160,1284,l),
(160,0,l)
);
}
);
width = 1376;
}
);
note = K;
unicode = 75;
},
{
color = 4;
glyphname = L;
kernLeft = H;
lastChange = "2023-03-08 21:03:57 +0000";
layers = (
{
anchors = (
{
name = bottom;
pos = (561,0);
},
{
name = top;
pos = (354,1434);
}
);
background = {
anchors = (
{
name = mark0;
pos = (582,0);
},
{
name = mark1;
pos = (606,-15);
}
);
shapes = (
{
closed = 1;
nodes = (
(1014,0,l),
(1014,262,l),
(483,262,l),
(483,1434,l),
(160,1434,l),
(160,0,l)
);
}
);
};
hints = (
{
name = _cap.UpperHorizontal;
options = 2;
origin = (0,0);
type = Cap;
},
{
name = _cap.UpperVertical;
options = 2;
origin = (0,6);
type = Cap;
}
);
layerId = "DD1D3E88-8CF6-488D-B1FD-132231471927";
shapes = (
{
closed = 1;
nodes = (
(914,0,l),
(914,262,l),
(597,262,ls),
(509,262,o),
(483,297,o),
(483,387,cs),
(483,1284,l),
(160,1284,l),
(160,268,ls),
(160,72,o),
(200,0,o),
(407,0,cs)
);
}
);
width = 1043;
}
);
note = L;
unicode = 76;
},
{
color = 4;
glyphname = M;
lastChange = "2023-03-09 21:51:19 +0000";
layers = (
{
anchors = (
{
name = bottom;
pos = (970,0);
},
{
name = top;
pos = (967,1434);
}
);
background = {
anchors = (
{
name = bottom;
pos = (913,0);
},
{
name = top;
pos = (938,1434);
}
);
hints = (
{
name = _cap.UCstemVert;
options = 8;
origin = (0,23);
type = Cap;
},
{
name = _cap.UCstemVert;
options = 8;
origin = (0,49);
type = Cap;
},
{
name = _cap.UCstemVert;
options = 8;
origin = (1,23);
scale = (0.88545,1);
type = Cap;
},
{
name = _cap.UCstemVert;
options = 8;
origin = (1,49);
scale = (0.96904,1);
type = Cap;
}
);
shapes = (
{
closed = 1;
nodes = (
(-179,1396,o),
(-214,1434,o),
(-332,1434,cs),
(-506,1434,ls),
(-599,1434,o),
(-653,1404,o),
(-690,1307,cs),
(-937,666,ls),
(-959,608,o),
(-976,556,o),
(-994,508,c),
(-1000,508,l),
(-1011,546,o),
(-1025,597,o),
(-1051,664,cs),
(-1293,1296,ls),
(-1329,1390,o),
(-1387,1434,o),
(-1495,1434,cs),
(-1653,1434,ls),
(-1777,1434,o),
(-1817,1396,o),
(-1817,1271,cs),
(-1817,0,l),
(-1526,0,l),
(-1526,793,ls),
(-1526,900,o),
(-1530,1024,o),
(-1536,1118,c),
(-1527,1118,l),
(-1515,1058,o),
(-1495,991,o),
(-1485,965,cs),
(-1160,156,ls),
(-1137,98,o),
(-1118,80,o),
(-1049,80,cs),
(-978,80,ls),
(-912,80,o),
(-884,101,o),
(-862,157,cs),
(-543,975,ls),
(-528,1013,o),
(-515,1064,o),
(-501,1118,c),
(-493,1118,l),
(-498,1053,o),
(-502,951,o),
(-502,858,cs),
(-502,0,l),
(-179,0,l),
(-179,1271,ls)
);
},
{
closed = 1;
nodes = (
(1788,1396,o),
(1753,1434,o),
(1635,1434,cs),
(1567,1434,ls),
(1461,1434,o),
(1398,1398,o),
(1342,1285,cs),
(1055,703,ls),
(1011,614,o),
(991,568,o),
(973,520,c),
(967,520,l),
(951,567,o),
(934,610,o),
(889,701,cs),
(599,1285,ls),
(550,1383,o),
(500,1434,o),
(367,1434,cs),
(314,1434,ls),
(190,1434,o),
(150,1396,o),
(150,1271,cs),
(150,0,l),
(436,0,l),
(436,761,ls),
(436,868,o),
(437,909,o),
(431,1001,c),
(436,1001,l),
(442,978,o),
(472,907,o),
(511,826,cs),
(807,206,ls),
(835,148,o),
(849,130,o),
(918,130,cs),
(989,130,ls),
(1055,130,o),
(1079,151,o),
(1105,207,cs),
(1400,832,ls),
(1426,886,o),
(1459,961,o),
(1473,1001,c),
(1478,1001,l),
(1476,963,o),
(1475,888,o),
(1475,826,cs),
(1475,0,l),
(1788,0,l),
(1788,1271,ls)
);
}
);
};
layerId = "DD1D3E88-8CF6-488D-B1FD-132231471927";
shapes = (
{
closed = 1;
nodes = (
(964,574,l),
(947,646,o),
(924,719,o),
(897,798,cs),
(845,952,o),
(728,1251,o),
(670,1339,cs),
(621,1413,o),
(600,1434,o),
(527,1434,cs),
(365,1434,ls),
(295,1434,o),
(237,1414,o),
(216,1320,cs),
(184,1176,o),
(151,753,o),
(150,43,cs),
(150,18,o),
(168,0,o),
(191,0,cs),
(396,0,ls),
(419,0,o),
(437,17,o),
(437,41,cs),
(438,453,o),
(449,863,o),
(465,1099,c),
(471,1099,l),
(554,916,o),
(692,515,o),
(779,210,cs),
(798,143,o),
(812,130,o),
(891,130,cs),
(1006,130,ls),
(1098,130,o),
(1109,150,o),
(1127,210,cs),
(1217,511,o),
(1352,855,o),
(1459,1099,c),
(1465,1099,l),
(1473,996,o),
(1473,746,o),
(1473,43,cs),
(1473,18,o),
(1491,0,o),
(1514,0,cs),
(1742,0,ls),
(1765,0,o),
(1783,18,o),
(1783,42,cs),
(1783,945,o),
(1760,1230,o),
(1730,1345,cs),
(1710,1422,o),
(1661,1434,o),
(1592,1434,cs),
(1461,1434,ls),
(1364,1434,o),
(1323,1402,o),
(1281,1337,cs),
(1212,1230,o),
(1099,952,o),
(1043,798,cs),
(1011,711,o),
(990,646,o),
(972,574,c)
);
}
);
width = 1933;
}
);
note = M;
unicode = 77;
},
{
color = 4;
glyphname = N;
kernLeft = H;
kernRight = H;
lastChange = "2023-03-08 21:04:04 +0000";
layers = (
{
anchors = (
{
name = bottom;
pos = (790,0);
},
{
name = top;
pos = (815,1434);
}
);
background = {
anchors = (
{
name = bottom;
pos = (790,0);
},
{
name = top;
pos = (815,1434);
}
);
hints = (
{
name = _cap.UpperVertical;
options = 10;
origin = (0,17);
type = Cap;
},
{
name = _cap.UCstemVert;
options = 8;
origin = (0,35);
type = Cap;
}
);
shapes = (
{
closed = 1;
nodes = (
(465,0,l),
(465,788,ls),
(465,892,o),
(462,969,o),
(457,1020,c),
(461,1020,l),
(474,993,o),
(498,954,o),
(533,901,cs),
(1062,92,ls),
(1109,20,o),
(1144,0,o),
(1231,0,cs),
(1361,0,ls),
(1424,0,o),
(1450,34,o),
(1450,124,cs),
(1450,1304,l),
(1145,1304,l),
(1145,641,ls),
(1145,543,o),
(1148,477,o),
(1153,444,c),
(1149,444,l),
(1127,483,o),
(1103,522,o),
(1077,561,cs),
(574,1334,ls),
(526,1408,o),
(493,1434,o),
(394,1434,cs),
(310,1434,ls),
(200,1434,o),
(160,1399,o),
(160,1279,cs),
(160,0,l)
);
}
);
};
hints = (
{
name = _cap.UpperVertical;
options = 10;
origin = (0,12);
type = Cap;
},
{
name = _cap.UCstemVert;
options = 8;
origin = (0,25);
type = Cap;
}
);
layerId = "DD1D3E88-8CF6-488D-B1FD-132231471927";
shapes = (
{
closed = 1;
nodes = (
(465,0,l),
(465,1036,l),
(488,1009,o),
(513,969,o),
(762,539,cs),
(1054,34,o),
(1160,0,o),
(1275,0,cs),
(1371,0,ls),
(1431,0,o),
(1450,23,o),
(1450,83,cs),
(1450,1284,l),
(1145,1284,l),
(1145,430,l),
(1117,466,o),
(1083,513,o),
(836,946,cs),
(578,1399,o),
(493,1434,o),
(357,1434,cs),
(264,1434,ls),
(186,1434,o),
(160,1399,o),
(160,1320,cs),
(160,0,l)
);
}
);
width = 1610;
}
);
note = N;
unicode = 78;
},
{
color = 4;
glyphname = O;
kernLeft = O;
kernRight = O;
lastChange = "2023-03-10 20:52:05 +0000";
layers = (
{
anchors = (
{
name = bottom;
pos = (782,0);
},
{
name = top;
pos = (783,1434);
}
);
background = {
anchors = (
{
name = bottom;
pos = (782,0);
},
{
name = top;
pos = (783,1434);
}
);
shapes = (
{
closed = 1;
nodes = (
(1281,0,o),
(1475,284,o),
(1475,727,cs),
(1475,1160,o),
(1264,1434,o),
(808,1434,cs),
(757,1434,ls),
(289,1434,o),
(90,1132,o),
(90,698,cs),
(90,274,o),
(260,0,o),
(757,0,cs),
(808,0,ls)
);
},
{
closed = 1;
nodes = (
(757,263,ls),
(536,263,o),
(430,444,o),
(430,715,cs),
(430,973,o),
(514,1171,o),
(757,1171,cs),
(808,1171,ls),
(1023,1171,o),
(1135,976,o),
(1135,709,cs),
(1135,427,o),
(1012,263,o),
(808,263,cs)
);
}
);
};
layerId = "DD1D3E88-8CF6-488D-B1FD-132231471927";
shapes = (
{
closed = 1;
nodes = (
(1206,-25,o),
(1475,215,o),
(1475,727,cs),
(1475,1209,o),
(1215,1458,o),
(798,1458,cs),
(353,1458,o),
(90,1209,o),
(90,698,cs),
(90,215,o),
(359,-25,o),
(775,-25,cs)
);
},
{
closed = 1;
nodes = (
(544,245,o),
(430,434,o),
(430,715,cs),
(430,1027,o),
(550,1188,o),
(789,1188,cs),
(1032,1188,o),
(1135,1027,o),
(1135,709,cs),
(1135,434,o),
(1021,245,o),
(781,245,cs)
);
}
);
width = 1565;
}
);
note = O;
unicode = 79;
},
{
color = 4;
glyphname = Oslash;
kernLeft = O;
kernRight = O;
lastChange = "2023-03-02 20:33:14 +0000";
layers = (
{
anchors = (
{
name = bottom;
pos = (806,0);
},
{
name = top;
pos = (806,1434);
}
);
background = {
shapes = (
{
closed = 1;
nodes = (
(364,109,l),
(485,20,o),
(626,-25,o),
(786,-25,cs),
(1220,-25,o),
(1495,285,o),
(1495,727,cs),
(1495,931,o),
(1440,1098,o),
(1329,1229,c),
(1464,1386,l),
(1339,1489,l),
(1210,1339,l),
(1099,1418,o),
(965,1458,o),
(809,1458,cs),
(365,1458,o),
(90,1146,o),
(90,698,cs),
(90,507,o),
(142,347,o),
(245,219,c),
(96,43,l),
(221,-61,l)
);
},
{
closed = 1;
nodes = (
(697,227,o),
(615,258,o),
(548,319,c),
(1126,995,l),
(1161,912,o),
(1179,816,o),
(1179,707,cs),
(1179,441,o),
(1053,227,o),
(792,227,cs)
);
},
{
closed = 1;
nodes = (
(423,528,o),
(407,612,o),
(407,709,cs),
(407,977,o),
(534,1206,o),
(800,1206,cs),
(890,1206,o),
(967,1181,o),
(1032,1130,c),
(454,457,l)
);
}
);
};
layerId = "DD1D3E88-8CF6-488D-B1FD-132231471927";
shapes = (
{
closed = 1;
nodes = (
(1220,1458,o),
(809,1458,cs),
(365,1458,o),
(90,1146,o),
(90,698,cs),
(90,259,o),
(380,-25,o),
(786,-25,cs),
(1220,-25,o),
(1495,285,o),
(1495,727,cs),
(1495,1172,o)
);
},
{
closed = 1;
nodes = (
(1050,1206,o),
(1179,1010,o),
(1179,707,cs),
(1179,441,o),
(1053,227,o),
(792,227,cs),
(544,227,o),
(407,432,o),
(407,709,cs),
(407,977,o),
(534,1206,o),
(800,1206,cs)
);
},
{
closed = 1;
nodes = (
(1464,1386,l),
(1339,1489,l),
(1174,1297,l),
(1030,1147,l),
(401,377,l),
(270,245,l),
(96,43,l),
(221,-61,l),
(394,140,l),
(524,270,l),
(1142,1029,l),
(1293,1187,l)
);
}
);
width = 1585;
}
);
unicode = 216;
},
{
color = 4;
glyphname = OE;
kernLeft = O;
kernRight = E;
lastChange = "2023-03-02 20:58:19 +0000";
layers = (
{
anchors = (
{
name = bottom;
pos = (1100,0);
},
{
name = top;
pos = (1071,1434);
}
);
background = {
shapes = (
{
closed = 1;
nodes = (
(1181,0,o),
(1375,284,o),
(1375,727,cs),
(1375,1160,o),
(1164,1434,o),
(708,1434,cs),
(657,1434,ls),
(189,1434,o),
(-10,1132,o),
(-10,698,cs),
(-10,274,o),
(160,0,o),
(657,0,cs),
(708,0,ls)
);
},
{
closed = 1;
nodes = (
(657,279,ls),
(436,279,o),
(330,460,o),
(330,715,cs),
(330,973,o),
(414,1156,o),
(657,1156,cs),
(708,1156,ls),
(923,1156,o),
(1035,976,o),
(1035,709,cs),
(1035,443,o),
(912,279,o),
(708,279,cs)
);
}
);
};
hints = (
{
name = _cap.UpperHorizontal;
options = 10;
origin = (0,8);
type = Cap;
},
{
name = _cap.UpperHorizontal;
options = 10;
origin = (0,4);
type = Cap;
},
{
name = _cap.UpperHorizontal;
options = 10;
origin = (0,0);
type = Cap;
}
);
layerId = "DD1D3E88-8CF6-488D-B1FD-132231471927";
shapes = (
{
closed = 1;
nodes = (
(1656,0,l),
(1656,263,l),
(1239,263,l),
(1239,584,l),
(1588,584,l),
(1588,848,l),
(1239,848,l),
(1239,1171,l),
(1623,1171,l),
(1623,1434,l),
(806,1434,ls),
(289,1434,o),
(90,1132,o),
(90,698,cs),
(90,274,o),
(260,0,o),
(806,0,c)
);
},
{
closed = 1;
nodes = (
(536,263,o),
(432,461,o),
(432,711,cs),
(432,975,o),
(480,1171,o),
(806,1171,cs),
(907,1171,l),
(907,263,l),
(806,263,ls)
);
}
);
width = 1855;
}
);
unicode = 338;
},
{
color = 4;
glyphname = P;
kernLeft = H;
lastChange = "2023-03-09 22:19:19 +0000";
layers = (
{
anchors = (
{
name = bottom;
pos = (561,0);
},
{
name = top;
pos = (586,1434);
}
);
background = {
anchors = (
{
name = mark0;
pos = (226,0);
},
{
name = mark1;
pos = (646,-15);
}
);
shapes = (
{
closed = 1;
nodes = (
(483,0,l),
(483,494,l),
(637,494,ls),
(810,494,o),
(949,538,o),
(1052,627,cs),
(1156,716,o),
(1208,833,o),
(1208,977,cs),
(1208,1282,o),
(1027,1434,o),
(666,1434,cs),
(160,1434,l),
(160,0,l)
);
},
{
closed = 1;
nodes = (
(483,1186,l),
(610,1186,ls),
(782,1186,o),
(868,1112,o),
(868,965,cs),
(868,814,o),
(782,739,o),
(610,739,cs),
(483,739,l)
);
}
);
};
hints = (
{
name = _cap.UCstemVert;
origin = (0,10);
type = Cap;
}
);
layerId = "DD1D3E88-8CF6-488D-B1FD-132231471927";
shapes = (
{
closed = 1;
nodes = (
(961,479,o),
(1208,628,o),
(1208,977,cs),
(1208,1286,o),
(1027,1434,o),
(645,1434,cs),
(407,1434,ls),
(200,1434,o),
(160,1366,o),
(160,1166,cs),
(160,0,l),
(483,0,l),
(483,1062,ls),
(483,1152,o),
(509,1186,o),
(597,1186,cs),
(645,1186,ls),
(782,1186,o),
(866,1129,o),
(868,965,cs),
(870,813,o),
(794,749,o),
(703,749,cs),
(685,749,o),
(681,749,o),
(669,741,cs),
(634,718,o),
(598,685,o),
(556,638,cs),
(549,630,o),
(544,624,o),
(544,613,cs),
(544,602,o),
(548,597,o),
(556,588,cs),
(598,541,o),
(634,509,o),
(659,492,cs),
(673,482,o),
(682,479,o),
(703,479,cs)
);
}
);
width = 1268;
}
);
note = P;
unicode = 80;
},
{
color = 4;
glyphname = Thorn;
kernLeft = H;
lastChange = "2023-03-16 18:10:28 +0000";
layers = (
{
anchors = (
{
name = bottom;
pos = (600,0);
},
{
name = top;
pos = (639,1434);
}
);
hints = (
{
name = _cap.UpperVertical;
options = 10;
origin = (0,10);
type = Cap;
},
{
name = _cap.UCstemVert;
origin = (0,12);
type = Cap;
}
);
layerId = "DD1D3E88-8CF6-488D-B1FD-132231471927";
shapes = (
{
closed = 1;
nodes = (
(483,0,l),
(483,271,l),
(637,271,ls),
(959,271,o),
(1208,445,o),
(1208,742,cs),
(1208,1027,o),
(1027,1179,o),
(666,1179,cs),
(483,1179,l),
(483,1284,l),
(160,1284,l),
(160,0,l)
);
},
{
closed = 1;
nodes = (
(483,931,l),
(610,931,ls),
(782,931,o),
(868,857,o),
(868,730,cs),
(868,593,o),
(782,518,o),
(610,518,cs),
(483,518,l)
);
}
);
width = 1268;
}
);
unicode = 222;
},
{
color = 4;
glyphname = Q;
kernLeft = O;
kernRight = O;
lastChange = "2023-03-08 21:27:37 +0000";
layers = (
{
anchors = (
{
name = bottom;
pos = (757,-476);
},
{
name = top;
pos = (782,1434);
}
);
background = {
anchors = (
{
name = bottom;
pos = (757,-476);
},
{
name = top;
pos = (782,1434);
}
);
shapes = (
{
closed = 1;
nodes = (
(625,27,l),
(623,12,o),
(621,-11,o),
(621,-33,cs),
(621,-300,o),
(755,-444,o),
(1086,-444,cs),
(1212,-444,o),
(1282,-427,o),
(1304,-419,cs),
(1330,-410,o),
(1342,-402,o),
(1355,-389,cs),
(1373,-369,o),
(1400,-328,o),
(1431,-271,cs),
(1436,-262,o),
(1437,-255,o),
(1436,-247,cs),
(1435,-240,o),
(1431,-231,o),
(1422,-225,cs),
(1370,-186,o),
(1328,-162,o),
(1288,-145,cs),
(1280,-142,o),
(1273,-140,o),
(1264,-140,cs),
(1246,-140,o),
(1182,-165,o),
(1122,-165,cs),
(1024,-165,o),
(970,-120,o),
(970,-15,cs),
(970,-2,o),
(971,12,o),
(973,27,c)
);
},
{
ref = O;
}
);
};
layerId = "DD1D3E88-8CF6-488D-B1FD-132231471927";
shapes = (
{
closed = 1;
nodes = (
(623,112,l),
(623,54,o),
(623,42,o),
(623,0,cs),
(623,-280,o),
(860,-459,o),
(1103,-459,cs),
(1112,-459,o),
(1120,-458,o),
(1129,-456,cs),
(1155,-449,o),
(1207,-431,o),
(1257,-395,cs),
(1268,-387,o),
(1277,-373,o),
(1277,-362,cs),
(1277,-353,o),
(1274,-343,o),
(1269,-331,cs),
(1252,-287,o),
(1230,-244,o),
(1205,-208,cs),
(1185,-184,o),
(1171,-178,o),
(1140,-172,cs),
(1046,-154,o),
(977,-119,o),
(977,7,cs),
(977,31,o),
(977,74,o),
(977,112,c)
);
},
{
ref = O;
}
);
width = 1565;
}
);
note = Q;
unicode = 81;
},
{
color = 4;
glyphname = R;
kernLeft = H;
lastChange = "2023-03-08 21:13:19 +0000";
layers = (
{
anchors = (
{
name = bottom;
pos = (601,0);
},
{
name = top;
pos = (626,1434);
}
);
background = {
anchors = (
{
name = bottom;
pos = (601,0);
},
{
name = top;
pos = (626,1434);
}
);
hints = (
{
name = _cap.UCstemVert;
place = (160, 0);
type = Cap;
},
{
name = _cap.UCstemVert;
place = (160, 0);
type = Cap;
},
{
name = _cap.UCstemVert;
origin = (0,50);
type = Cap;
}
);
shapes = (
{
closed = 1;
nodes = (
(483,1062,ls),
(483,1152,o),
(509,1186,o),
(597,1186,cs),
(657,1186,ls),
(779,1186,o),
(854,1123,o),
(854,985,cs),
(854,838,o),
(779,773,o),
(681,773,cs),
(652,773,o),
(648,773,o),
(626,758,cs),
(601,742,o),
(565,709,o),
(523,662,cs),
(516,654,o),
(513,648,o),
(513,642,cs),
(513,635,o),
(513,629,o),
(523,621,cs),
(575,578,o),
(607,551,o),
(640,518,cs),
(787,369,o),
(915,156,o),
(952,62,cs),
(973,9,o),
(998,0,o),
(1033,0,cs),
(1264,0,ls),
(1302,0,o),
(1309,20,o),
(1298,60,cs),
(1256,213,o),
(1089,510,o),
(931,641,c),
(931,646,l),
(1049,689,o),
(1194,788,o),
(1194,1033,cs),
(1194,1304,o),
(1020,1434,o),
(672,1434,cs),
(407,1434,ls),
(200,1434,o),
(160,1366,o),
(160,1166,cs),
(160,0,l),
(483,0,l)
);
}
);
};
hints = (
{
name = _cap.UCstemVert;
origin = (0,47);
type = Cap;
}
);
layerId = "DD1D3E88-8CF6-488D-B1FD-132231471927";
shapes = (
{
closed = 1;
nodes = (
(483,1062,ls),
(483,1152,o),
(509,1186,o),
(597,1186,cs),
(657,1186,ls),
(779,1186,o),
(854,1123,o),
(854,985,cs),
(854,838,o),
(779,773,o),
(681,773,cs),
(652,773,o),
(643,771,o),
(621,755,cs),
(598,739,o),
(562,701,o),
(546,678,cs),
(534,660,o),
(527,643,o),
(527,634,cs),
(527,618,o),
(546,599,o),
(586,567,cs),
(709,469,o),
(851,316,o),
(952,62,cs),
(973,9,o),
(998,0,o),
(1033,0,cs),
(1264,0,ls),
(1302,0,o),
(1306,20,o),
(1298,60,cs),
(1262,231,o),
(1109,523,o),
(931,641,c),
(931,646,l),
(1049,689,o),
(1194,788,o),
(1194,1033,cs),
(1194,1304,o),
(1020,1434,o),
(672,1434,cs),
(407,1434,ls),
(200,1434,o),
(160,1366,o),
(160,1166,cs),
(160,0,l),
(483,0,l)
);
}
);
width = 1336;
}
);
note = R;
unicode = 82;
},
{
color = 4;
glyphname = S;
kernLeft = S;
kernRight = S;
lastChange = "2023-03-09 21:55:55 +0000";
layers = (
{
anchors = (
{
name = bottom;
pos = (560,0);
},
{
name = bottom1;
pos = (541,0);
},
{
name = top;
pos = (597,1434);
}
);
layerId = "DD1D3E88-8CF6-488D-B1FD-132231471927";
shapes = (
{
closed = 1;
nodes = (
(548,-24,cs),
(855,-24,o),
(1086,123,o),
(1086,430,cs),
(1086,676,o),
(946,758,o),
(712,840,cs),
(525,906,o),
(442,945,o),
(442,1039,cs),
(442,1117,o),
(495,1193,o),
(635,1193,cs),
(736,1193,o),
(774,1148,o),
(796,1123,cs),
(810,1108,o),
(814,1103,o),
(842,1097,cs),
(879,1089,o),
(928,1086,o),
(992,1087,cs),
(1003,1087,o),
(1010,1089,o),
(1014,1092,cs),
(1020,1096,o),
(1023,1102,o),
(1025,1114,cs),
(1033,1178,o),
(1034,1227,o),
(1030,1269,cs),
(1028,1284,o),
(1027,1289,o),
(1016,1306,cs),
(989,1349,o),
(876,1456,o),
(635,1456,cs),
(321,1456,o),
(102,1311,o),
(102,1032,cs),
(102,807,o),
(206,694,o),
(460,609,cs),
(690,532,o),
(746,472,o),
(746,394,cs),
(746,297,o),
(679,239,o),
(548,239,cs),
(412,239,o),
(354,297,o),
(328,325,cs),
(304,350,o),
(291,360,o),
(263,360,cs),
(236,360,o),
(159,351,o),
(121,342,cs),
(109,339,o),
(103,336,o),
(98,330,cs),
(92,323,o),
(92,318,o),
(91,305,cs),
(87,248,o),
(95,203,o),
(100,177,cs),
(104,157,o),
(114,142,o),
(126,125,cs),
(180,56,o),
(294,-24,o)
);
}
);
width = 1176;
}
);
note = S;
unicode = 83;
},
{
color = 4;
glyphname = T;
lastChange = "2023-03-10 20:53:18 +0000";
layers = (
{
anchors = (
{
name = bottom;
pos = (626,0);
},
{
name = top;
pos = (626,1434);
}
);
background = {
anchors = (
{
name = mark0;
pos = (458,0);
},
{
name = mark1;
pos = (618,-15);
}
);
shapes = (
{
closed = 1;
nodes = (
(780,0,l),
(780,1171,l),
(1189,1171,l),
(1189,1434,l),
(49,1434,l),
(49,1171,l),
(456,1171,l),
(456,0,l)
);
}
);
};
hints = (
{
name = _cap.UpperHorizontal;
options = 2;
origin = (0,2);
type = Cap;
},
{
name = _cap.UpperHorizontal;
options = 2;
origin = (0,4);
type = Cap;
},
{
name = _cap.UCstemVert;
origin = (0,7);
type = Cap;
}
);
layerId = "DD1D3E88-8CF6-488D-B1FD-132231471927";
shapes = (
{
closed = 1;
nodes = (
(780,0,l),
(780,1171,l),
(1089,1171,l),
(1089,1434,l),
(149,1434,l),
(149,1171,l),
(457,1171,l),
(457,0,l)
);
}
);
width = 1238;
}
);
note = T;
unicode = 84;
},
{
color = 4;
glyphname = U;
kernLeft = H;
kernRight = H;
lastChange = "2023-03-08 21:57:20 +0000";
layers = (
{
anchors = (
{
name = bottom;
pos = (731,0);
},
{
name = top;
pos = (731,1434);
}
);
background = {
anchors = (
{
name = mark0;
pos = (800,0);
},
{
name = mark1;
pos = (730,-25);
}
);
shapes = (
{
closed = 1;
nodes = (
(1132,-25,o),
(1333,190,o),
(1333,621,cs),
(1333,1434,l),
(1010,1434,l),
(1010,590,ls),
(1010,366,o),
(921,254,o),
(743,254,cs),
(562,254,o),
(471,370,o),
(471,602,cs),
(471,1434,l),
(147,1434,l),
(147,606,ls),
(147,185,o),
(342,-25,o),
(731,-25,cs)
);
}
);
};
hints = (
{
name = _cap.UpperVertical;
options = 2;
origin = (0,3);
type = Cap;
},
{
name = _cap.UpperVertical;
options = 2;
origin = (0,12);
type = Cap;
}
);
layerId = "DD1D3E88-8CF6-488D-B1FD-132231471927";
shapes = (
{
closed = 1;
nodes = (
(1087,-24,o),
(1333,97,o),
(1333,542,cs),
(1333,1284,l),
(1010,1284,l),
(1010,592,ls),
(1010,306,o),
(919,246,o),
(740,246,cs),
(564,246,o),
(471,306,o),
(471,592,cs),
(471,1284,l),
(148,1284,l),
(148,542,ls),
(148,97,o),
(363,-24,o),
(740,-24,cs)
);
}
);
width = 1481;
}
);
note = U;
unicode = 85;
},
{
color = 4;
glyphname = V;
lastChange = "2023-03-10 20:53:28 +0000";
layers = (
{
anchors = (
{
name = bottom;
pos = (706,0);
},
{
name = top;
pos = (706,1434);
}
);
background = {
anchors = (
{
name = mark0;
pos = (530,0);
},
{
name = mark1;
pos = (715,-15);
}
);
shapes = (
{
closed = 1;
nodes = (
(884,0,l),
(1378,1434,l),
(1040,1434,l),
(743,440,ls),
(727,387,o),
(717,338,o),
(712,293,c),
(706,293,l),
(703,334,o),
(693,382,o),
(677,436,cs),
(378,1434,l),
(30,1434,l),
(518,0,l)
);
}
);
};
hints = (
{
name = _cap.UpperVertical;
options = 10;
origin = (0,10);
scale = (1.04644,1);
type = Cap;
},
{
name = _cap.UpperVertical;
options = 10;
origin = (0,20);
scale = (1.0774,1);
type = Cap;
}
);
layerId = "DD1D3E88-8CF6-488D-B1FD-132231471927";
shapes = (
{
closed = 1;
nodes = (
(526,24,o),
(570,0,o),
(631,0,cs),
(769,0,ls),
(833,0,o),
(875,24,o),
(911,79,cs),
(1117,389,o),
(1348,975,o),
(1348,1277,cs),
(1348,1284,l),
(1010,1284,l),
(1010,1277,ls),
(1010,1046,o),
(890,598,o),
(712,352,c),
(706,352,l),
(544,598,o),
(408,1051,o),
(408,1278,cs),
(408,1284,l),
(60,1284,l),
(60,1278,ls),
(60,956,o),
(278,414,o),
(491,79,cs)
);
}
);
width = 1408;
}
);
note = V;
unicode = 86;
},
{
color = 4;
glyphname = W;
lastChange = "2023-03-10 20:53:37 +0000";
layers = (
{
anchors = (
{
name = bottom;
pos = (1057,0);
},
{
name = top;
pos = (1057,1434);
}
);
background = {
anchors = (
{
name = bottom;
pos = (1057,0);
},
{
name = top;
pos = (1057,1434);
}
);
hints = (
{
name = _cap.UpperVertical;
options = 10;
origin = (0,30);
scale = (1.04644,1);
type = Cap;
},
{
name = _cap.UpperVertical;
options = 10;
origin = (0,54);
scale = (1.0774,1);
type = Cap;
}
);
shapes = (
{
closed = 1;
nodes = (
(412,20,o),
(435,0,o),
(504,0,cs),
(634,0,ls),
(712,0,o),
(747,31,o),
(784,97,cs),
(853,221,o),
(961,527,o),
(1003,694,cs),
(1026,782,o),
(1037,835,o),
(1043,918,c),
(1051,918,l),
(1055,835,o),
(1067,775,o),
(1086,694,cs),
(1122,540,o),
(1228,232,o),
(1295,95,cs),
(1333,18,o),
(1365,0,o),
(1425,0,cs),
(1564,0,ls),
(1634,0,o),
(1658,25,o),
(1703,114,cs),
(1853,414,o),
(2019,1066,o),
(2019,1301,cs),
(2019,1307,l),
(1681,1307,l),
(1681,1301,ls),
(1681,1105,o),
(1612,645,o),
(1500,393,c),
(1494,393,l),
(1405,606,o),
(1305,985,o),
(1235,1294,cs),
(1220,1361,o),
(1191,1374,o),
(1123,1374,cs),
(1008,1374,ls),
(932,1374,o),
(902,1354,o),
(887,1294,cs),
(807,983,o),
(713,661,o),
(606,393,c),
(600,393,l),
(513,661,o),
(408,1105,o),
(408,1301,cs),
(408,1307,l),
(60,1307,l),
(60,1301,ls),
(60,1067,o),
(231,387,o),
(376,93,cs)
);
}
);
};
hints = (
{
name = _cap.UpperVertical;
options = 10;
origin = (0,30);
scale = (1.04644,1);
type = Cap;
},
{
name = _cap.UpperVertical;
options = 10;
origin = (0,54);
scale = (1.0774,1);
type = Cap;
}
);
layerId = "DD1D3E88-8CF6-488D-B1FD-132231471927";
shapes = (
{
closed = 1;
nodes = (
(415,20,o),
(441,0,o),
(512,0,cs),
(625,0,ls),
(706,0,o),
(745,32,o),
(784,97,cs),
(853,211,o),
(954,517,o),
(995,694,cs),
(1015,782,o),
(1030,871,o),
(1033,918,c),
(1041,918,l),
(1043,871,o),
(1057,782,o),
(1076,694,cs),
(1109,540,o),
(1228,207,o),
(1295,95,cs),
(1339,22,o),
(1374,0,o),
(1434,0,cs),
(1557,0,ls),
(1627,0,o),
(1655,25,o),
(1703,114,cs),
(1847,381,o),
(2019,1003,o),
(2019,1281,cs),
(2019,1287,l),
(1681,1287,l),
(1681,1281,ls),
(1681,1105,o),
(1612,615,o),
(1500,363,c),
(1494,363,l),
(1405,576,o),
(1295,985,o),
(1225,1294,cs),
(1210,1361,o),
(1181,1374,o),
(1113,1374,cs),
(993,1374,ls),
(917,1374,o),
(886,1354,o),
(872,1294,cs),
(800,983,o),
(713,631,o),
(606,363,c),
(600,363,l),
(513,631,o),
(408,1105,o),
(408,1281,cs),
(408,1287,l),
(60,1287,l),
(60,1281,ls),
(60,1066,o),
(231,364,o),
(376,93,cs)
);
}
);
width = 2079;
}
);
note = W;
unicode = 87;
},
{
color = 4;
glyphname = X;
lastChange = "2023-03-09 16:13:06 +0000";
layers = (
{
anchors = (
{
name = bottom;
pos = (676,0);
},
{
name = top;
pos = (676,1434);
}
);
hints = (
{
name = _cap.UpperVertical;
options = 10;
origin = (0,12);
scale = (0.97214,1);
type = Cap;
},
{
name = _cap.UpperVertical;
options = 10;
origin = (0,21);
scale = (1.0031,1);
type = Cap;
},
{
name = _cap.UCstemVert;
origin = (0,3);
type = Cap;
},
{
name = _cap.UCstemVert;
options = 8;
origin = (0,30);
type = Cap;
}
);
layerId = "DD1D3E88-8CF6-488D-B1FD-132231471927";
shapes = (
{
closed = 1;
nodes = (
(908,439,o),
(949,322,o),
(949,108,cs),
(949,0,l),
(1272,0,l),
(1272,108,ls),
(1272,421,o),
(1171,575,o),
(936,715,c),
(1103,809,o),
(1222,957,o),
(1222,1177,cs),
(1222,1284,l),
(908,1284,l),
(908,1177,ls),
(908,1045,o),
(846,931,o),
(693,853,c),
(538,933,o),
(444,1067,o),
(444,1177,cs),
(444,1284,l),
(120,1284,l),
(120,1177,ls),
(120,981,o),
(241,816,o),
(441,701,c),
(177,547,o),
(90,406,o),
(90,108,cs),
(90,0,l),
(404,0,l),
(404,108,ls),
(404,320,o),
(478,449,o),
(682,561,c)
);
}
);
width = 1362;
}
);
note = X;
unicode = 88;
},
{
color = 4;
glyphname = Y;
kernLeft = Y;
kernRight = Y;
lastChange = "2023-03-10 20:53:48 +0000";
layers = (
{
anchors = (
{
name = bottom;
pos = (647,0);
},
{
name = top;
pos = (647,1434);
}
);
hints = (
{
name = _cap.UpperVertical;
options = 10;
origin = (0,17);
scale = (1.0031,1);
type = Cap;
},
{
name = _cap.UpperVertical;
options = 10;
origin = (0,6);
scale = (0.97214,1);
type = Cap;
},
{
name = _cap.UCstemVert;
origin = (0,24);
type = Cap;
}
);
layerId = "DD1D3E88-8CF6-488D-B1FD-132231471927";
shapes = (
{
closed = 1;
nodes = (
(798,0,l),
(798,510,l),
(1011,747,ls),
(1164,917,o),
(1222,1039,o),
(1222,1186,cs),
(1222,1284,l),
(908,1284,l),
(908,1186,ls),
(908,1090,o),
(850,985,o),
(742,869,cs),
(647,767,l),
(550,869,ls),
(430,995,o),
(384,1100,o),
(384,1187,cs),
(384,1284,l),
(60,1284,l),
(60,1186,ls),
(60,995,o),
(133,900,o),
(276,735,cs),
(475,504,l),
(475,0,l)
);
}
);
width = 1282;
}
);
note = Y;
unicode = 89;
},
{
color = 4;
glyphname = Z;
kernLeft = Z;
kernRight = Z;
lastChange = "2023-03-10 15:51:57 +0000";
layers = (
{
anchors = (
{
name = bottom;
pos = (671,0);
},
{
name = top;
pos = (671,1434);
}
);
background = {
anchors = (
{
name = mark0;
pos = (601,0);
},
{
name = mark1;
pos = (631,-15);
}
);
shapes = (
{
closed = 1;
nodes = (
(1217,0,l),
(1217,262,l),
(496,262,l),
(1215,1253,l),
(1215,1434,l),
(115,1434,l),
(115,1171,l),
(797,1171,l),
(62,186,l),
(62,0,l)
);
}
);
};
hints = (
{
name = _cap.UpperHorizontal;
options = 2;
origin = (0,10);
type = Cap;
},
{
name = _cap.UpperHorizontal;
options = 2;
origin = (0,0);
type = Cap;
}
);
layerId = "DD1D3E88-8CF6-488D-B1FD-132231471927";
shapes = (
{
closed = 1;
nodes = (
(1117,0,l),
(1117,262,l),
(482,262,l),
(1165,1184,ls),
(1204,1237,o),
(1224,1275,o),
(1224,1326,cs),
(1224,1400,o),
(1182,1434,o),
(1093,1434,cs),
(215,1434,l),
(215,1171,l),
(797,1171,l),
(110,250,ls),
(65,189,o),
(50,152,o),
(50,107,cs),
(50,38,o),
(91,0,o),
(178,0,cs)
);
}
);
width = 1296;
}
);
note = Z;
unicode = 90;
},
{
color = 4;
glyphname = a;
kernLeft = a;
kernRight = n;
lastChange = "2023-03-10 20:55:31 +0000";
layers = (
{
anchors = (
{
name = bottom;
pos = (549,0);
},
{
name = ogonek;
pos = (913,0);
},
{
name = top;
pos = (567,1118);
}
);
background = {
anchors = (
{
name = bottom;
pos = (549,0);
},
{
name = ogonek;
pos = (852,0);
},
{
name = top;
pos = (567,1118);
}
);
hints = (
{
name = _cap.LCstemVert;
options = 8;
origin = (0,4);
type = Cap;
}
);
shapes = (
{
closed = 1;
nodes = (
(535,-25,o),
(640,13,o),
(702,102,c),
(709,102,l),
(709,0,l),
(1019,0,l),
(1019,612,ls),
(1019,903,o),
(873,1049,o),
(570,1049,cs),
(353,1049,o),
(240,991,o),
(218,973,cs),
(201,961,o),
(195,954,o),
(188,941,cs),
(178,920,o),
(166,873,o),
(161,846,cs),
(155,819,o),
(155,813,o),
(155,806,cs),
(156,794,o),
(166,789,o),
(173,786,cs),
(220,769,o),
(260,754,o),
(296,749,cs),
(311,747,o),
(319,749,o),
(330,758,cs),
(347,771,o),
(419,824,o),
(529,824,cs),
(650,824,o),
(711,774,o),
(711,653,c),
(199,639,o),
(80,484,o),
(80,285,cs),
(80,91,o),
(204,-25,o),
(400,-25,cs)
);
},
{
closed = 1;
nodes = (
(439,207,o),
(385,232,o),
(385,310,cs),
(385,389,o),
(431,462,o),
(709,462,c),
(709,351,l),
(691,284,o),
(632,207,o),
(510,207,cs)
);
}
);
};
layerId = "DD1D3E88-8CF6-488D-B1FD-132231471927";
shapes = (
{
closed = 1;
nodes = (
(535,-25,o),
(640,13,o),
(702,102,c),
(709,102,l),
(771,22,ls),
(785,4,o),
(801,0,o),
(823,0,cs),
(973,0,ls),
(1006,0,o),
(1019,20,o),
(1019,46,cs),
(1019,612,ls),
(1019,903,o),
(873,1049,o),
(570,1049,cs),
(353,1049,o),
(240,991,o),
(218,973,cs),
(201,961,o),
(195,954,o),
(188,941,cs),
(178,920,o),
(166,873,o),
(161,846,cs),
(155,819,o),
(155,813,o),
(155,806,cs),
(156,794,o),
(166,789,o),
(173,786,cs),
(220,769,o),
(260,754,o),
(296,749,cs),
(311,747,o),
(319,749,o),
(330,758,cs),
(347,771,o),
(419,824,o),
(529,824,cs),
(650,824,o),
(711,774,o),
(711,653,c),
(199,639,o),
(80,484,o),
(80,285,cs),
(80,91,o),
(204,-25,o),
(400,-25,cs)
);
},
{
closed = 1;
nodes = (
(439,207,o),
(385,232,o),
(385,310,cs),
(385,389,o),
(431,462,o),
(709,462,c),
(709,351,l),
(691,284,o),
(632,207,o),
(510,207,cs)
);
}
);
width = 1154;
}
);
note = a;
unicode = 97;
},
{
color = 4;
glyphname = ae;
kernLeft = a;
kernRight = e;
lastChange = "2023-03-07 21:11:47 +0000";
layers = (
{
anchors = (
{
name = bottom;
pos = (811,0);
},
{
name = top;
pos = (892,1118);
}
);
background = {
shapes = (
{
closed = 0;
nodes = (
(1179,1049,ls)
);
}
);
};
layerId = "DD1D3E88-8CF6-488D-B1FD-132231471927";
shapes = (
{
closed = 1;
nodes = (
(966,629,l),
(976,731,o),
(1033,836,o),
(1165,836,cs),
(1263,836,o),
(1322,766,o),
(1322,681,cs),
(1322,642,o),
(1308,629,o),
(1271,629,cs)
);
},
{
closed = 1;
nodes = (
(620,824,o),
(681,764,o),
(681,629,c),
(195,629,o),
(80,484,o),
(80,285,cs),
(80,91,o),
(204,-25,o),
(428,-25,cs),
(597,-25,o),
(723,46,o),
(769,151,c),
(773,151,l),
(838,48,o),
(962,-25,o),
(1206,-25,cs),
(1434,-25,o),
(1532,41,o),
(1572,70,cs),
(1583,78,o),
(1586,81,o),
(1591,91,cs),
(1605,121,o),
(1616,164,o),
(1623,205,cs),
(1625,213,o),
(1625,220,o),
(1624,225,cs),
(1624,232,o),
(1620,240,o),
(1606,248,cs),
(1559,274,o),
(1506,283,o),
(1481,283,cs),
(1462,284,o),
(1454,282,o),
(1438,270,cs),
(1408,248,o),
(1336,199,o),
(1206,199,cs),
(1063,199,o),
(979,273,o),
(966,435,c),
(1376,435,ls),
(1532,435,o),
(1615,489,o),
(1615,642,cs),
(1615,873,o),
(1447,1049,o),
(1179,1049,cs),
(986,1049,o),
(898,974,o),
(850,915,c),
(846,915,l),
(812,974,o),
(720,1049,o),
(535,1049,cs),
(348,1049,o),
(235,991,o),
(213,973,cs),
(196,961,o),
(190,954,o),
(183,941,cs),
(173,920,o),
(161,873,o),
(156,846,cs),
(150,819,o),
(150,813,o),
(150,806,cs),
(151,794,o),
(161,789,o),
(168,786,cs),
(215,769,o),
(255,754,o),
(291,749,cs),
(306,747,o),
(314,749,o),
(325,758,cs),
(342,771,o),
(414,824,o),
(513,824,cs)
);
},
{
closed = 1;
nodes = (
(434,207,o),
(380,232,o),
(380,310,cs),
(380,389,o),
(429,435,o),
(681,435,c),
(681,414,ls),
(681,285,o),
(604,207,o),
(505,207,cs)
);
}
);
width = 1700;
}
);
unicode = 230;
},
{
color = 4;
glyphname = b;
kernLeft = n;
kernRight = o;
lastChange = "2023-03-11 04:16:46 +0000";
layers = (
{
anchors = (
{
name = bottom;
pos = (618,0);
},
{
name = top;
pos = (754,1118);
}
);
hints = (
{
name = _cap.LowerVertical;
options = 2;
origin = (0,10);
type = Cap;
}
);
layerId = "DD1D3E88-8CF6-488D-B1FD-132231471927";
shapes = (
{
closed = 1;
nodes = (
(1041,-25,o),
(1180,220,o),
(1180,541,cs),
(1180,836,o),
(1048,1049,o),
(764,1049,cs),
(594,1049,o),
(508,989,o),
(455,921,c),
(451,921,l),
(451,1416,l),
(135,1416,l),
(135,97,l),
(225,41,o),
(347,-25,o),
(605,-25,cs)
);
},
{
closed = 1;
nodes = (
(532,217,o),
(480,240,o),
(451,261,c),
(451,674,l),
(481,743,o),
(533,794,o),
(644,794,cs),
(781,794,o),
(856,710,o),
(856,516,cs),
(856,324,o),
(773,217,o),
(618,217,cs)
);
}
);
width = 1260;
}
);
note = b;
unicode = 98;
},
{
color = 4;
glyphname = c;
kernLeft = o;
kernRight = c;
lastChange = "2023-03-10 00:42:44 +0000";
layers = (
{
anchors = (
{
name = bottom;
pos = (568,0);
},
{
name = bottom1;
pos = (588,0);
},
{
name = top;
pos = (568,1118);
}
);
background = {
anchors = (
{
name = bottom;
pos = (568,0);
},
{
name = bottom1;
pos = (588,0);
},
{
name = top;
pos = (568,1118);
}
);
shapes = (
{
closed = 1;
nodes = (
(299,1049,o),
(80,837,o),
(80,508,cs),
(80,153,o),
(296,-25,o),
(631,-25,cs),
(797,-25,o),
(913,16,o),
(963,42,cs),
(977,49,o),
(981,65,o),
(975,79,cs),
(902,244,ls),
(894,263,o),
(882,273,o),
(855,258,cs),
(821,239,o),
(765,217,o),
(679,217,cs),
(509,217,o),
(401,327,o),
(401,508,cs),
(401,697,o),
(522,807,o),
(683,807,cs),
(747,807,o),
(782,787,o),
(803,774,cs),
(820,764,o),
(827,764,o),
(845,772,cs),
(868,782,o),
(909,807,o),
(937,832,cs),
(954,848,o),
(959,857,o),
(959,866,cs),
(959,872,o),
(957,881,o),
(953,895,cs),
(941,936,o),
(922,974,o),
(908,991,cs),
(898,1004,o),
(887,1012,o),
(872,1019,cs),
(850,1029,o),
(786,1049,o),
(662,1049,cs)
);
}
);
};
layerId = "DD1D3E88-8CF6-488D-B1FD-132231471927";
shapes = (
{
closed = 1;
nodes = (
(299,1049,o),
(80,847,o),
(80,508,cs),
(80,153,o),
(296,-25,o),
(631,-25,cs),
(797,-25,o),
(913,16,o),
(963,42,cs),
(977,49,o),
(981,65,o),
(975,79,cs),
(902,244,ls),
(894,263,o),
(882,273,o),
(855,258,cs),
(821,239,o),
(765,217,o),
(679,217,cs),
(509,217,o),
(401,327,o),
(401,519,cs),
(401,710,o),
(526,807,o),
(656,807,cs),
(724,807,o),
(759,784,o),
(781,769,cs),
(800,756,o),
(806,753,o),
(826,759,cs),
(850,765,o),
(893,784,o),
(925,805,cs),
(953,825,o),
(955,832,o),
(949,866,cs),
(943,908,o),
(929,948,o),
(920,963,cs),
(910,981,o),
(900,990,o),
(886,999,cs),
(867,1013,o),
(803,1049,o),
(645,1049,cs)
);
}
);
width = 1003;
}
);
note = c;
unicode = 99;
},
{
color = 4;
glyphname = d;
kernLeft = o;
kernRight = n;
lastChange = "2023-03-11 04:19:41 +0000";
layers = (
{
anchors = (
{
name = bottom;
pos = (497,0);
},
{
name = top;
pos = (511,1118);
}
);
hints = (
{
name = _cap.LowerVertical;
options = 2;
origin = (0,12);
type = Cap;
}
);
layerId = "DD1D3E88-8CF6-488D-B1FD-132231471927";
shapes = (
{
closed = 1;
nodes = (
(707,-25,o),
(782,61,o),
(809,102,c),
(816,102,l),
(878,22,ls),
(892,4,o),
(908,0,o),
(930,0,cs),
(1079,0,ls),
(1105,0,o),
(1125,20,o),
(1125,46,cs),
(1125,1416,l),
(809,1416,l),
(809,1033,l),
(786,1040,o),
(733,1050,o),
(653,1050,cs),
(304,1050,o),
(80,885,o),
(80,488,cs),
(80,186,o),
(230,-25,o),
(497,-25,cs)
);
},
{
closed = 1;
nodes = (
(479,231,o),
(404,319,o),
(404,509,cs),
(404,692,o),
(487,808,o),
(652,808,cs),
(741,808,o),
(788,783,o),
(809,770,c),
(809,351,l),
(779,282,o),
(714,231,o),
(594,231,cs)
);
}
);
width = 1260;
}
);
note = d;
unicode = 100;
},
{
color = 4;
glyphname = eth;
kernLeft = o;
kernRight = o;
lastChange = "2023-03-10 18:18:18 +0000";
layers = (
{
anchors = (
{
name = bottom;
pos = (599,0);
},
{
name = top;
pos = (599,1516);
}
);
layerId = "DD1D3E88-8CF6-488D-B1FD-132231471927";
shapes = (
{
closed = 1;
nodes = (
(933,-25,o),
(1144,167,o),
(1144,563,cs),
(1144,868,o),
(1024,1121,o),
(811,1296,c),
(1018,1397,l),
(941,1534,l),
(677,1404,l),
(624,1442,o),
(564,1483,o),
(520,1506,cs),
(488,1523,o),
(469,1534,o),
(449,1534,cs),
(416,1534,o),
(358,1521,o),
(326,1509,cs),
(308,1502,o),
(301,1496,o),
(301,1476,cs),
(301,1420,o),
(304,1395,o),
(308,1374,cs),
(312,1353,o),
(317,1344,o),
(330,1335,cs),
(353,1319,o),
(385,1296,o),
(409,1276,c),
(214,1184,l),
(295,1043,l),
(557,1172,l),
(623,1129,o),
(722,1027,o),
(761,967,c),
(757,965,l),
(714,991,o),
(630,1012,o),
(552,1012,cs),
(254,1012,o),
(70,812,o),
(70,505,cs),
(70,182,o),
(264,-25,o),
(599,-25,cs)
);
},
{
closed = 1;
nodes = (
(474,217,o),
(394,327,o),
(394,505,cs),
(394,688,o),
(476,779,o),
(613,779,cs),
(752,779,o),
(822,688,o),
(822,505,cs),
(822,327,o),
(762,217,o),
(609,217,cs)
);
}
);
width = 1214;
}
);
unicode = 240;
},
{
color = 4;
glyphname = e;
kernLeft = o;
kernRight = e;
lastChange = "2023-03-12 19:25:04 +0000";
layers = (
{
anchors = (
{
name = bottom;
pos = (616,0);
},
{
name = bottom1;
pos = (632,0);
},
{
name = ogonek;
pos = (895,41);
},
{
name = top;
pos = (607,1118);
}
);
background = {
anchors = (
{
name = bottom;
pos = (616,0);
},
{
name = bottom1;
pos = (632,0);
},
{
name = ogonek;
pos = (895,41);
},
{
name = top;
pos = (607,1118);
}
);
shapes = (
{
closed = 1;
nodes = (
(880,-25,o),
(978,41,o),
(1018,70,cs),
(1029,78,o),
(1032,81,o),
(1037,91,cs),
(1051,121,o),
(1062,164,o),
(1069,205,cs),
(1071,213,o),
(1071,220,o),
(1070,225,cs),
(1070,232,o),
(1066,240,o),
(1052,248,cs),
(1005,274,o),
(952,283,o),
(927,283,cs),
(908,284,o),
(900,282,o),
(884,270,cs),
(854,248,o),
(782,199,o),
(652,199,cs),
(497,199,o),
(403,274,o),
(393,416,c),
(822,416,ls),
(978,416,o),
(1061,470,o),
(1061,629,cs),
(1061,873,o),
(893,1049,o),
(592,1049,cs),
(283,1049,o),
(80,860,o),
(80,496,cs),
(80,132,o),
(299,-25,o),
(652,-25,cs)
);
},
{
closed = 1;
nodes = (
(406,742,o),
(461,836,o),
(590,836,cs),
(709,836,o),
(768,763,o),
(768,668,cs),
(768,634,o),
(754,621,o),
(717,621,cs),
(391,621,l)
);
}
);
};
layerId = "DD1D3E88-8CF6-488D-B1FD-132231471927";
shapes = (
{
closed = 1;
nodes = (
(873,-25,o),
(978,41,o),
(1018,70,cs),
(1029,78,o),
(1032,81,o),
(1037,91,cs),
(1051,121,o),
(1061,162,o),
(1065,181,cs),
(1069,200,o),
(1070,210,o),
(1070,218,cs),
(1070,232,o),
(1062,245,o),
(1045,254,cs),
(998,280,o),
(945,289,o),
(920,289,cs),
(901,290,o),
(893,288,o),
(877,276,cs),
(847,254,o),
(775,205,o),
(652,205,cs),
(497,205,o),
(403,279,o),
(393,416,c),
(822,416,ls),
(978,416,o),
(1061,470,o),
(1061,629,cs),
(1061,873,o),
(893,1049,o),
(592,1049,cs),
(283,1049,o),
(80,860,o),
(80,496,cs),
(80,132,o),
(299,-25,o),
(637,-25,cs)
);
},
{
closed = 1;
nodes = (
(406,742,o),
(461,836,o),
(590,836,cs),
(709,836,o),
(768,763,o),
(768,668,cs),
(768,634,o),
(754,621,o),
(717,621,cs),
(391,621,l)
);
}
);
width = 1146;
}
);
note = e;
unicode = 101;
},
{
color = 4;
glyphname = f;
kernLeft = f;
lastChange = "2023-03-10 15:56:41 +0000";
layers = (
{
anchors = (
{
name = bottom;
pos = (374,0);
},
{
name = top;
pos = (432,1516);
}
);
background = {
anchors = (
{
name = mark0;
pos = (374,0);
},
{
name = mark1;
pos = (374,0);
}
);
shapes = (
{
closed = 1;
nodes = (
(532,0,l),
(532,791,l),
(766,791,l),
(766,1024,l),
(532,1024,l),
(532,1133,ls),
(532,1243,o),
(583,1298,o),
(684,1298,cs),
(721,1298,o),
(760,1290,o),
(801,1274,c),
(801,1520,l),
(758,1533,o),
(705,1540,o),
(641,1540,cs),
(386,1540,o),
(217,1392,o),
(217,1151,cs),
(217,1024,l),
(45,1024,l),
(45,791,l),
(217,791,l),
(217,0,l)
);
}
);
};
hints = (
{
name = _cap.LCstemVert;
origin = (0,34);
type = Cap;
},
{
name = _cap.LCstemHoriz;
origin = (0,2);
type = Cap;
},
{
name = _cap.LCstemHoriz;
origin = (0,31);
type = Cap;
}
);
layerId = "DD1D3E88-8CF6-488D-B1FD-132231471927";
shapes = (
{
closed = 1;
nodes = (
(532,0,l),
(532,791,l),
(766,791,l),
(766,1024,l),
(532,1024,l),
(532,1133,ls),
(532,1237,o),
(567,1283,o),
(630,1283,cs),
(656,1283,o),
(668,1283,o),
(688,1295,cs),
(710,1309,o),
(749,1338,o),
(789,1380,cs),
(798,1389,o),
(806,1399,o),
(806,1410,cs),
(806,1419,o),
(803,1425,o),
(795,1434,cs),
(751,1477,o),
(713,1509,o),
(687,1524,cs),
(671,1534,o),
(641,1540,o),
(579,1540,cs),
(376,1540,o),
(216,1392,o),
(216,1151,cs),
(216,1024,l),
(45,1024,l),
(45,791,l),
(216,791,l),
(216,0,l)
);
}
);
width = 782;
}
);
note = f;
unicode = 102;
},
{
color = 4;
glyphname = g;
kernLeft = o;
kernRight = n;
lastChange = "2023-03-11 04:20:07 +0000";
layers = (
{
anchors = (
{
name = bottom;
pos = (570,-532);
},
{
name = top;
pos = (628,1118);
}
);
layerId = "DD1D3E88-8CF6-488D-B1FD-132231471927";
shapes = (
{
closed = 1;
nodes = (
(1035,984,o),
(913,1050,o),
(653,1050,cs),
(219,1050,o),
(80,805,o),
(80,484,cs),
(80,189,o),
(212,-24,o),
(515,-24,cs),
(688,-24,o),
(760,46,o),
(805,102,c),
(809,102,l),
(809,66,ls),
(809,-134,o),
(680,-228,o),
(493,-228,cs),
(375,-228,o),
(316,-198,o),
(282,-179,cs),
(268,-171,o),
(261,-172,o),
(247,-177,cs),
(223,-186,o),
(168,-226,o),
(144,-250,cs),
(136,-258,o),
(131,-266,o),
(129,-271,cs),
(127,-277,o),
(128,-283,o),
(130,-292,cs),
(144,-342,o),
(163,-386,o),
(176,-407,cs),
(182,-418,o),
(191,-423,o),
(206,-430,cs),
(254,-452,o),
(342,-481,o),
(502,-481,cs),
(889,-481,o),
(1125,-273,o),
(1125,117,cs),
(1125,928,l)
);
},
{
closed = 1;
nodes = (
(728,808,o),
(780,785,o),
(809,764,c),
(809,351,l),
(779,282,o),
(727,231,o),
(616,231,cs),
(479,231,o),
(404,319,o),
(404,488,cs),
(404,707,o),
(487,808,o),
(642,808,cs)
);
}
);
width = 1260;
}
);
note = g;
unicode = 103;
},
{
color = 4;
glyphname = h;
kernLeft = n;
kernRight = n;
lastChange = "2023-03-09 19:02:10 +0000";
layers = (
{
anchors = (
{
name = bottom;
pos = (638,0);
},
{
name = top;
pos = (504,1516);
}
);
background = {
anchors = (
{
name = mark0;
pos = (958,0);
},
{
name = mark1;
pos = (958,0);
}
);
shapes = (
{
closed = 1;
nodes = (
(451,0,l),
(451,584,ls),
(451,712,o),
(525,807,o),
(639,807,cs),
(748,807,o),
(803,732,o),
(803,582,cs),
(803,0,l),
(1118,0,l),
(1118,629,ls),
(1118,909,o),
(1002,1049,o),
(770,1049,cs),
(637,1049,o),
(532,990,o),
(455,872,c),
(451,872,l),
(451,1516,l),
(135,1516,l),
(135,0,l)
);
}
);
};
hints = (
{
name = _cap.LowerVertical;
options = 2;
origin = (0,18);
type = Cap;
},
{
name = _cap.LCstemVert;
origin = (0,20);
type = Cap;
},
{
name = _cap.LCstemVert;
origin = (0,8);
type = Cap;
}
);
layerId = "DD1D3E88-8CF6-488D-B1FD-132231471927";
shapes = (
{
closed = 1;
nodes = (
(451,0,l),
(451,674,l),
(481,743,o),
(534,794,o),
(638,794,cs),
(743,794,o),
(809,730,o),
(809,582,cs),
(809,0,l),
(1125,0,l),
(1125,637,ls),
(1125,949,o),
(939,1049,o),
(755,1049,cs),
(573,1049,o),
(498,978,o),
(455,921,c),
(451,921,l),
(451,1416,l),
(135,1416,l),
(135,0,l)
);
}
);
width = 1260;
}
);
note = h;
unicode = 104;
},
{
color = 4;
glyphname = i;
lastChange = "2023-03-09 19:00:18 +0000";
layers = (
{
anchors = (
{
name = bottom;
pos = (302,0);
},
{
name = bottom1;
pos = (282,0);
},
{
name = ogonek;
pos = (230,0);
}
);
background = {
anchors = (
{
name = bottom;
pos = (302,0);
},
{
name = bottom1;
pos = (282,0);
},
{
name = ogonek;
pos = (230,0);
}
);
hints = (
{
name = _cap.LCstemVert;
place = (451, 0);
type = Cap;
},
{
name = _cap.LCstemVert;
place = (135, 0);
type = Cap;
},
{
name = _cap.LCstemVert;
origin = (0,1);
type = Cap;
},
{
name = _cap.LCstemVert;
origin = (0,3);
type = Cap;
}
);
shapes = (
{
closed = 1;
nodes = (
(451,0,l),
(451,1024,l),
(135,1024,l),
(135,0,l)
);
},
{
closed = 1;
nodes = (
(93,1339,o),
(104,1330,o),
(121,1309,cs),
(158,1266,o),
(204,1218,o),
(257,1176,cs),
(277,1160,o),
(285,1157,o),
(294,1157,cs),
(303,1157,o),
(312,1160,o),
(330,1176,cs),
(379,1218,o),
(429,1266,o),
(465,1307,cs),
(482,1329,o),
(495,1339,o),
(495,1356,cs),
(495,1373,o),
(482,1384,o),
(466,1404,cs),
(429,1446,o),
(380,1494,o),
(330,1537,cs),
(311,1552,o),
(303,1556,o),
(294,1556,cs),
(285,1556,o),
(277,1552,o),
(259,1537,cs),
(209,1494,o),
(158,1446,o),
(121,1404,cs),
(104,1383,o),
(93,1373,o),
(93,1356,cs)
);
}
);
};
hints = (
{
name = _cap.LCstemVert;
origin = (0,3);
type = Cap;
},
{
name = _cap.LCstemVert;
origin = (0,1);
type = Cap;
}
);
layerId = "DD1D3E88-8CF6-488D-B1FD-132231471927";
shapes = (
{
closed = 1;
nodes = (
(451,0,l),
(451,1024,l),
(135,1024,l),
(135,0,l)
);
},
{
closed = 1;
nodes = (
(89,1343,o),
(100,1333,o),
(118,1312,cs),
(155,1268,o),
(202,1219,o),
(256,1176,cs),
(277,1160,o),
(285,1157,o),
(294,1157,cs),
(303,1157,o),
(312,1160,o),
(331,1176,cs),
(381,1219,o),
(432,1268,o),
(468,1310,cs),
(486,1332,o),
(499,1343,o),
(499,1360,cs),
(499,1377,o),
(486,1389,o),
(469,1409,cs),
(432,1452,o),
(382,1501,o),
(331,1545,cs),
(311,1560,o),
(303,1564,o),
(294,1564,cs),
(285,1564,o),
(277,1560,o),
(258,1545,cs),
(207,1501,o),
(155,1452,o),
(118,1409,cs),
(100,1388,o),
(89,1377,o),
(89,1360,cs)
);
}
);
width = 588;
}
);
note = i;
unicode = 105;
},
{
color = 4;
glyphname = dotlessi;
kernLeft = n;
kernRight = n;
lastChange = "2023-03-02 20:45:06 +0000";
layers = (
{
anchors = (
{
name = bottom;
pos = (302,0);
},
{
name = top;
pos = (296,1118);
}
);
hints = (
{
name = _cap.LCstemVert;
origin = (0,3);
type = Cap;
},
{
name = _cap.LCstemVert;
origin = (0,1);
type = Cap;
}
);
layerId = "DD1D3E88-8CF6-488D-B1FD-132231471927";
shapes = (
{
closed = 1;
nodes = (
(451,0,l),
(451,1024,l),
(135,1024,l),
(135,0,l)
);
}
);
width = 586;
}
);
unicode = 305;
},
{
color = 4;
glyphname = j;
kernRight = n;
lastChange = "2023-03-10 19:48:41 +0000";
layers = (
{
anchors = (
{
name = bottom;
pos = (291,-532);
}
);
background = {
anchors = (
{
name = bottom;
pos = (291,-532);
}
);
hints = (
{
name = _cap.LCstemVert;
origin = (1,7);
type = Cap;
}
);
shapes = (
{
closed = 1;
nodes = (
(107,1339,o),
(118,1330,o),
(135,1309,cs),
(172,1266,o),
(218,1218,o),
(271,1176,cs),
(291,1160,o),
(299,1157,o),
(308,1157,cs),
(317,1157,o),
(326,1160,o),
(344,1176,cs),
(393,1218,o),
(443,1266,o),
(479,1307,cs),
(496,1329,o),
(509,1339,o),
(509,1356,cs),
(509,1373,o),
(496,1384,o),
(480,1404,cs),
(443,1446,o),
(394,1494,o),
(344,1537,cs),
(325,1552,o),
(317,1556,o),
(308,1556,cs),
(299,1556,o),
(291,1552,o),
(273,1537,cs),
(223,1494,o),
(172,1446,o),
(135,1404,cs),
(118,1383,o),
(107,1373,o),
(107,1356,cs)
);
},
{
closed = 1;
nodes = (
(149,-185,o),
(37,-239,o),
(-30,-275,c),
(150,-496,l),
(299,-427,o),
(465,-312,o),
(465,18,cs),
(465,1024,l),
(149,1024,l),
(149,79,ls)
);
}
);
};
hints = (
{
name = _cap.LCstemVert;
origin = (1,13);
type = Cap;
}
);
layerId = "DD1D3E88-8CF6-488D-B1FD-132231471927";
shapes = (
{
closed = 1;
nodes = (
(107,1339,o),
(118,1330,o),
(135,1309,cs),
(172,1266,o),
(218,1218,o),
(271,1176,cs),
(291,1160,o),
(299,1157,o),
(308,1157,cs),
(317,1157,o),
(326,1160,o),
(344,1176,cs),
(393,1218,o),
(443,1266,o),
(479,1307,cs),
(496,1329,o),
(509,1339,o),
(509,1356,cs),
(509,1373,o),
(496,1384,o),
(480,1404,cs),
(443,1446,o),
(394,1494,o),
(344,1537,cs),
(325,1552,o),
(317,1556,o),
(308,1556,cs),
(299,1556,o),
(291,1552,o),
(273,1537,cs),
(223,1494,o),
(172,1446,o),
(135,1404,cs),
(118,1383,o),
(107,1373,o),
(107,1356,cs)
);
},
{
closed = 1;
nodes = (
(149,-166,o),
(51,-225,o),
(7,-255,cs),
(-21,-274,o),
(-19,-290,o),
(2,-315,cs),
(124,-464,ls),
(143,-487,o),
(161,-491,o),
(187,-478,cs),
(318,-413,o),
(465,-292,o),
(465,18,cs),
(465,1024,l),
(149,1024,l),
(149,79,ls)
);
}
);
width = 602;
}
);
note = j;
unicode = 106;
},
{
glyphname = dotlessj;
kernRight = n;
lastChange = "2023-06-16 21:23:51 +0000";
layers = (
{
anchors = (
{
name = bottom;
pos = (291,-532);
},
{
name = top;
pos = (301,1118);
}
);
hints = (
{
name = _cap.LCstemVert;
origin = (0,13);
type = Cap;
}
);
layerId = "DD1D3E88-8CF6-488D-B1FD-132231471927";
shapes = (
{
closed = 1;
nodes = (
(149,-166,o),
(51,-225,o),
(7,-255,cs),
(-21,-274,o),
(-19,-290,o),
(2,-315,cs),
(124,-464,ls),
(143,-487,o),
(161,-491,o),
(187,-478,cs),
(318,-413,o),
(465,-292,o),
(465,18,cs),
(465,1024,l),
(149,1024,l),
(149,79,ls)
);
}
);
width = 602;
}
);
unicode = 567;
},
{
color = 4;
glyphname = k;
kernLeft = n;
lastChange = "2023-03-06 21:23:28 +0000";
layers = (
{
anchors = (
{
name = bottom;
pos = (600,0);
},
{
name = top;
pos = (574,1516);
}
);
background = {
anchors = (
{
name = bottom;
pos = (600,0);
},
{
name = top;
pos = (574,1516);
}
);
hints = (
{
name = _cap.LowerVertical;
options = 10;
place = (1040, 0);
type = Cap;
},
{
name = _cap.LowerVertical;
options = 2;
place = (451, 0);
type = Cap;
},
{
name = _cap.LCstemVert;
place = (135, 0);
type = Cap;
},
{
name = _cap.LowerVertical;
options = 10;
origin = (0,14);
type = Cap;
},
{
name = _cap.LowerVertical;
options = 2;
origin = (0,21);
type = Cap;
},
{
name = _cap.LCstemVert;
origin = (0,23);
type = Cap;
}
);
shapes = (
{
closed = 1;
nodes = (
(451,0,l),
(451,428,l),
(463,428,ls),
(650,428,o),
(771,154,o),
(782,0,c),
(1115,0,l),
(1095,159,o),
(992,412,o),
(768,512,c),
(768,517,l),
(986,535,o),
(1040,713,o),
(1040,827,cs),
(1040,891,l),
(724,891,l),
(724,827,ls),
(724,697,o),
(665,621,o),
(463,621,cs),
(451,621,l),
(451,1416,l),
(135,1416,l),
(135,0,l)
);
}
);
};
hints = (
{
name = _cap.LowerVertical;
options = 2;
origin = (0,27);
type = Cap;
},
{
name = _cap.LowerVertical;
options = 10;
origin = (0,20);
type = Cap;
},
{
name = _cap.LCstemVert;
origin = (0,29);
type = Cap;
}
);
layerId = "DD1D3E88-8CF6-488D-B1FD-132231471927";
shapes = (
{
closed = 1;
nodes = (
(451,0,l),
(451,418,l),
(463,418,ls),
(650,418,o),
(759,166,o),
(777,41,cs),
(780,15,o),
(792,0,o),
(816,0,cs),
(1079,0,ls),
(1106,0,o),
(1113,13,o),
(1108,43,cs),
(1090,159,o),
(992,412,o),
(768,512,c),
(768,517,l),
(986,535,o),
(1040,713,o),
(1040,827,cs),
(1040,891,l),
(724,891,l),
(724,827,ls),
(724,697,o),
(665,621,o),
(463,621,cs),
(451,621,l),
(451,1416,l),
(135,1416,l),
(135,0,l)
);
}
);
width = 1159;
}
);
note = k;
unicode = 107;
},
{
color = 4;
glyphname = l;
kernLeft = n;
kernRight = n;
lastChange = "2023-03-09 19:01:56 +0000";
layers = (
{
anchors = (
{
name = bottom;
pos = (292,0);
},
{
name = top;
pos = (292,1516);
}
);
background = {
anchors = (
{
name = bottom;
pos = (292,0);
},
{
name = top;
pos = (292,1516);
}
);
hints = (
{
name = _cap.LowerVertical;
options = 2;
origin = (0,4);
type = Cap;
}
);
shapes = (
{
closed = 1;
nodes = (
(510,91,l),
(483,119,o),
(451,190,o),
(451,309,cs),
(451,1416,l),
(135,1416,l),
(135,248,ls),
(135,57,o),
(197,-17,o),
(236,-35,c)
);
}
);
};
hints = (
{
name = _cap.LowerVertical;
options = 2;
origin = (0,7);
type = Cap;
}
);
layerId = "DD1D3E88-8CF6-488D-B1FD-132231471927";
shapes = (
{
closed = 1;
nodes = (
(475,75,ls),
(494,84,o),
(498,103,o),
(488,122,cs),
(468,159,o),
(451,221,o),
(451,309,cs),
(451,1416,l),
(135,1416,l),
(135,248,ls),
(135,75,o),
(186,-2,o),
(217,-23,cs),
(224,-28,o),
(230,-30,o),
(236,-30,cs),
(244,-30,o),
(252,-27,o),
(266,-21,cs)
);
}
);
width = 590;
}
);
note = l;
unicode = 108;
},
{
color = 4;
glyphname = m;
kernLeft = n;
kernRight = n;
lastChange = "2023-03-02 20:46:10 +0000";
layers = (
{
anchors = (
{
name = bottom;
pos = (945,0);
},
{
name = top;
pos = (1002,1118);
}
);
background = {
anchors = (
{
name = mark0;
pos = (1592,0);
},
{
name = mark1;
pos = (1592,0);
}
);
shapes = (
{
closed = 1;
nodes = (
(451,0,l),
(451,569,ls),
(451,716,o),
(521,807,o),
(629,807,cs),
(736,807,o),
(790,735,o),
(790,590,cs),
(790,0,l),
(1106,0,l),
(1106,573,ls),
(1106,701,o),
(1172,807,o),
(1282,807,cs),
(1391,807,o),
(1446,733,o),
(1446,584,cs),
(1446,0,l),
(1761,0,l),
(1761,637,ls),
(1761,912,o),
(1650,1049,o),
(1427,1049,cs),
(1276,1049,o),
(1161,985,o),
(1083,858,c),
(1030,985,o),
(931,1049,o),
(786,1049,cs),
(647,1049,o),
(522,975,o),
(455,864,c),
(451,864,l),
(451,1024,l),
(135,1024,l),
(135,0,l)
);
}
);
};
hints = (
{
name = _cap.LCstemVert;
origin = (0,22);
type = Cap;
},
{
name = _cap.LCstemVert;
origin = (0,31);
type = Cap;
},
{
name = _cap.LCstemVert;
origin = (0,40);
type = Cap;
}
);
layerId = "DD1D3E88-8CF6-488D-B1FD-132231471927";
shapes = (
{
closed = 1;
nodes = (
(999,990,o),
(931,1049,o),
(760,1049,cs),
(581,1049,o),
(493,979,o),
(448,922,c),
(443,922,l),
(412,964,o),
(374,1003,o),
(318,1047,cs),
(307,1055,o),
(301,1057,o),
(293,1057,cs),
(285,1057,o),
(278,1055,o),
(268,1047,cs),
(211,1003,o),
(173,965,o),
(145,928,cs),
(136,916,o),
(135,911,o),
(135,891,cs),
(135,0,l),
(451,0,l),
(451,674,l),
(481,743,o),
(535,794,o),
(627,794,cs),
(724,794,o),
(790,730,o),
(790,585,cs),
(790,0,l),
(1106,0,l),
(1106,674,l),
(1130,747,o),
(1185,794,o),
(1282,794,cs),
(1391,794,o),
(1446,734,o),
(1446,585,cs),
(1446,0,l),
(1762,0,l),
(1762,637,ls),
(1762,912,o),
(1651,1049,o),
(1384,1049,cs),
(1196,1049,o),
(1100,979,o),
(1051,919,c)
);
}
);
width = 1897;
}
);
note = m;
unicode = 109;
},
{
color = 4;
glyphname = n;
kernLeft = n;
kernRight = n;
lastChange = "2023-03-10 20:55:24 +0000";
layers = (
{
anchors = (
{
name = bottom;
pos = (638,0);
},
{
name = top;
pos = (618,1118);
}
);
background = {
anchors = (
{
name = mark0;
pos = (957,0);
},
{
name = mark1;
pos = (957,0);
}
);
shapes = (
{
closed = 1;
nodes = (
(451,0,l),
(451,584,ls),
(451,709,o),
(525,807,o),
(639,807,cs),
(752,807,o),
(809,728,o),
(809,569,cs),
(809,0,l),
(1124,0,l),
(1124,627,ls),
(1124,908,o),
(1011,1049,o),
(784,1049,cs),
(640,1049,o),
(530,987,o),
(455,862,c),
(451,862,l),
(451,1024,l),
(135,1024,l),
(135,0,l)
);
}
);
};
hints = (
{
name = _cap.LCstemVert;
origin = (0,22);
type = Cap;
},
{
name = _cap.LCstemVert;
origin = (0,31);
type = Cap;
}
);
layerId = "DD1D3E88-8CF6-488D-B1FD-132231471927";
shapes = (
{
closed = 1;
nodes = (
(1125,949,o),
(939,1049,o),
(752,1049,cs),
(559,1049,o),
(481,965,o),
(448,922,c),
(443,922,l),
(412,964,o),
(374,1003,o),
(318,1047,cs),
(307,1055,o),
(301,1057,o),
(293,1057,cs),
(285,1057,o),
(278,1055,o),
(268,1047,cs),
(211,1003,o),
(173,965,o),
(145,928,cs),
(136,916,o),
(135,911,o),
(135,891,cs),
(135,0,l),
(451,0,l),
(451,674,l),
(481,743,o),
(533,794,o),
(638,794,cs),
(743,794,o),
(809,730,o),
(809,585,cs),
(809,0,l),
(1125,0,l),
(1125,637,ls)
);
}
);
width = 1260;
}
);
note = n;
unicode = 110;
},
{
color = 4;
glyphname = o;
kernLeft = o;
kernRight = o;
lastChange = "2023-03-10 20:56:53 +0000";
layers = (
{
anchors = (
{
name = bottom;
pos = (640,0);
},
{
name = top;
pos = (640,1118);
}
);
background = {
anchors = (
{
name = mark0;
pos = (675,0);
},
{
name = mark1;
pos = (625,-25);
}
);
shapes = (
{
closed = 1;
nodes = (
(975,-25,o),
(1185,187,o),
(1185,526,cs),
(1185,850,o),
(971,1049,o),
(640,1049,cs),
(297,1049,o),
(77,850,o),
(77,508,cs),
(77,174,o),
(287,-25,o),
(626,-25,cs)
);
},
{
closed = 1;
nodes = (
(477,217,o),
(398,315,o),
(398,512,cs),
(398,700,o),
(485,807,o),
(634,807,cs),
(787,807,o),
(863,711,o),
(863,520,cs),
(863,318,o),
(787,217,o),
(636,217,cs)
);
}
);
};
layerId = "DD1D3E88-8CF6-488D-B1FD-132231471927";
shapes = (
{
closed = 1;
nodes = (
(972,-25,o),
(1182,167,o),
(1182,526,cs),
(1182,870,o),
(968,1049,o),
(640,1049,cs),
(300,1049,o),
(80,870,o),
(80,508,cs),
(80,154,o),
(290,-25,o),
(626,-25,cs)
);
},
{
closed = 1;
nodes = (
(483,217,o),
(404,295,o),
(404,512,cs),
(404,720,o),
(491,807,o),
(634,807,cs),
(782,807,o),
(858,731,o),
(858,520,cs),
(858,298,o),
(782,217,o),
(636,217,cs)
);
}
);
width = 1262;
}
);
note = o;
unicode = 111;
},
{
color = 4;
glyphname = oslash;
kernLeft = o;
kernRight = o;
lastChange = "2023-03-07 21:04:26 +0000";
layers = (
{
anchors = (
{
name = bottom;
pos = (641,0);
},
{
name = top;
pos = (641,1118);
}
);
background = {
anchors = (
{
name = bottom;
pos = (641,0);
},
{
name = top;
pos = (641,1118);
}
);
shapes = (
{
closed = 1;
nodes = (
(973,-25,o),
(1183,167,o),
(1183,526,cs),
(1183,870,o),
(969,1049,o),
(641,1049,cs),
(301,1049,o),
(81,870,o),
(81,508,cs),
(81,154,o),
(291,-25,o),
(627,-25,cs)
);
},
{
closed = 1;
nodes = (
(484,217,o),
(405,295,o),
(405,512,cs),
(405,720,o),
(492,807,o),
(635,807,cs),
(783,807,o),
(859,731,o),
(859,520,cs),
(859,298,o),
(783,217,o),
(637,217,cs)
);
},
{
closed = 1;
nodes = (
(342,112,l),
(456,216,l),
(911,710,l),
(1032,826,l),
(1207,1010,l),
(1088,1116,l),
(913,931,l),
(787,815,l),
(334,322,l),
(207,203,l),
(40,29,l),
(159,-78,l)
);
}
);
};
layerId = "DD1D3E88-8CF6-488D-B1FD-132231471927";
shapes = (
{
closed = 1;
nodes = (
(973,-25,o),
(1183,167,o),
(1183,526,cs),
(1183,870,o),
(969,1049,o),
(641,1049,cs),
(301,1049,o),
(81,870,o),
(81,508,cs),
(81,154,o),
(291,-25,o),
(627,-25,cs)
);
},
{
closed = 1;
nodes = (
(466,192,o),
(370,285,o),
(370,512,cs),
(370,729,o),
(473,832,o),
(635,832,cs),
(801,832,o),
(894,741,o),
(894,520,cs),
(894,289,o),
(801,192,o),
(637,192,cs)
);
},
{
closed = 1;
nodes = (
(342,112,l),
(456,216,l),
(911,710,l),
(1032,826,l),
(1207,1010,l),
(1088,1116,l),
(913,931,l),
(787,815,l),
(334,322,l),
(207,203,l),
(40,29,l),
(159,-78,l)
);
}
);
width = 1267;
}
);
unicode = 248;
},
{
color = 4;
glyphname = oe;
kernLeft = o;
kernRight = e;
lastChange = "2023-03-02 20:46:51 +0000";
layers = (
{
anchors = (
{
name = bottom;
pos = (993,0);
},
{
name = top;
pos = (1041,1118);
}
);
layerId = "DD1D3E88-8CF6-488D-B1FD-132231471927";
shapes = (
{
closed = 1;
nodes = (
(480,217,o),
(401,295,o),
(401,512,cs),
(401,720,o),
(488,807,o),
(625,807,cs),
(760,807,o),
(836,731,o),
(836,520,cs),
(836,298,o),
(760,217,o),
(627,217,cs)
);
},
{
closed = 1;
nodes = (
(1145,616,l),
(1160,751,o),
(1229,836,o),
(1344,836,cs),
(1443,836,o),
(1502,763,o),
(1502,668,cs),
(1502,629,o),
(1488,616,o),
(1451,616,cs)
);
},
{
closed = 1;
nodes = (
(1712,422,o),
(1795,476,o),
(1795,629,cs),
(1795,873,o),
(1627,1049,o),
(1346,1049,cs),
(1147,1049,o),
(1043,964,o),
(984,874,c),
(979,874,l),
(922,964,o),
(821,1049,o),
(614,1049,cs),
(300,1049,o),
(80,870,o),
(80,508,cs),
(80,144,o),
(290,-25,o),
(601,-25,cs),
(836,-25,o),
(933,68,o),
(980,156,c),
(984,156,l),
(1033,68,o),
(1147,-25,o),
(1393,-25,cs),
(1614,-25,o),
(1712,41,o),
(1752,70,cs),
(1763,78,o),
(1766,81,o),
(1771,91,cs),
(1785,121,o),
(1796,164,o),
(1803,205,cs),
(1805,213,o),
(1805,220,o),
(1804,225,cs),
(1804,232,o),
(1800,240,o),
(1786,248,cs),
(1739,274,o),
(1686,283,o),
(1661,283,cs),
(1642,284,o),
(1634,282,o),
(1618,270,cs),
(1588,248,o),
(1516,199,o),
(1386,199,cs),
(1249,199,o),
(1156,273,o),
(1147,422,c),
(1556,422,ls)
);
}
);
width = 1880;
}
);
unicode = 339;
},
{
color = 4;
glyphname = p;
kernLeft = n;
kernRight = o;
lastChange = "2023-03-16 20:51:14 +0000";
layers = (
{
anchors = (
{
name = bottom;
pos = (722,0);
},
{
name = top;
pos = (714,1118);
}
);
background = {
anchors = (
{
name = mark0;
pos = (891,36);
},
{
name = mark1;
pos = (891,36);
}
);
shapes = (
{
closed = 1;
nodes = (
(451,-471,l),
(451,119,l),
(455,119,l),
(520,23,o),
(614,-25,o),
(737,-25,cs),
(1035,-25,o),
(1200,221,o),
(1200,541,cs),
(1200,836,o),
(1063,1049,o),
(784,1049,cs),
(643,1049,o),
(533,989,o),
(455,870,c),
(451,870,l),
(451,1024,l),
(135,1024,l),
(135,-471,l)
);
},
{
closed = 1;
nodes = (
(518,217,o),
(446,327,o),
(446,457,cs),
(446,539,l),
(446,693,o),
(530,807,o),
(666,807,cs),
(806,807,o),
(876,717,o),
(876,537,cs),
(876,333,o),
(793,217,o),
(649,217,cs)
);
}
);
};
guides = (
{
pos = (956,-532);
}
);
hints = (
{
name = _cap.LowerVertical;
options = 2;
origin = (1,19);
type = Cap;
}
);
layerId = "DD1D3E88-8CF6-488D-B1FD-132231471927";
shapes = (
{
closed = 1;
nodes = (
(518,230,o),
(451,327,o),
(451,457,cs),
(451,674,l),
(476,731,o),
(529,794,o),
(654,794,cs),
(806,794,o),
(876,704,o),
(876,524,cs),
(876,333,o),
(793,230,o),
(649,230,cs)
);
},
{
closed = 1;
nodes = (
(563,1049,o),
(486,964,o),
(452,922,c),
(447,922,l),
(416,964,o),
(378,1003,o),
(322,1047,cs),
(311,1055,o),
(305,1057,o),
(295,1057,cs),
(287,1057,o),
(278,1055,o),
(268,1047,cs),
(211,1003,o),
(173,965,o),
(145,928,cs),
(136,916,o),
(135,911,o),
(135,891,cs),
(135,-352,l),
(451,-352,l),
(451,84,l),
(455,84,l),
(491,42,o),
(559,-25,o),
(722,-25,cs),
(1035,-25,o),
(1200,221,o),
(1200,541,cs),
(1200,836,o),
(1063,1049,o),
(772,1049,cs)
);
}
);
width = 1280;
}
);
note = p;
unicode = 112;
},
{
color = 4;
glyphname = thorn;
kernLeft = n;
kernRight = o;
lastChange = "2023-03-02 20:47:16 +0000";
layers = (
{
anchors = (
{
name = bottom;
pos = (772,0);
},
{
name = top;
pos = (772,1118);
}
);
background = {
hints = (
{
name = _cap.LowerVertical;
options = 2;
origin = (1,19);
type = Cap;
}
);
shapes = (
{
closed = 1;
nodes = (
(518,230,o),
(451,327,o),
(451,457,cs),
(451,674,l),
(476,731,o),
(529,794,o),
(654,794,cs),
(806,794,o),
(876,704,o),
(876,524,cs),
(876,333,o),
(793,230,o),
(649,230,cs)
);
},
{
closed = 1;
nodes = (
(563,1049,o),
(486,964,o),
(452,922,c),
(447,922,l),
(416,964,o),
(378,1003,o),
(322,1047,cs),
(311,1055,o),
(305,1057,o),
(295,1057,cs),
(287,1057,o),
(278,1055,o),
(268,1047,cs),
(211,1003,o),
(173,965,o),
(145,928,cs),
(136,916,o),
(135,911,o),
(135,891,cs),
(135,-352,l),
(451,-352,l),
(451,84,l),
(455,84,l),
(491,42,o),
(559,-25,o),
(722,-25,cs),
(1035,-25,o),
(1200,221,o),
(1200,541,cs),
(1200,836,o),
(1063,1049,o),
(772,1049,cs)
);
}
);
};
hints = (
{
name = _cap.LowerVertical;
options = 10;
origin = (0,16);
type = Cap;
},
{
name = _cap.LowerVertical;
options = 10;
origin = (0,18);
type = Cap;
}
);
layerId = "DD1D3E88-8CF6-488D-B1FD-132231471927";
shapes = (
{
closed = 1;
nodes = (
(451,-352,l),
(451,84,l),
(455,84,l),
(491,42,o),
(559,-25,o),
(722,-25,cs),
(1035,-25,o),
(1200,221,o),
(1200,541,cs),
(1200,836,o),
(1063,1049,o),
(772,1049,cs),
(563,1049,o),
(486,964,o),
(455,922,c),
(451,922,l),
(451,1416,l),
(135,1416,l),
(135,-352,l)
);
},
{
closed = 1;
nodes = (
(518,230,o),
(451,326,o),
(451,457,cs),
(451,674,l),
(476,731,o),
(529,794,o),
(654,794,cs),
(806,794,o),
(876,704,o),
(876,524,cs),
(876,333,o),
(793,230,o),
(649,230,cs)
);
}
);
width = 1280;
}
);
unicode = 254;
},
{
color = 4;
glyphname = q;
kernLeft = o;
kernRight = n;
lastChange = "2023-03-11 04:18:45 +0000";
layers = (
{
anchors = (
{
name = bottom;
pos = (514,0);
},
{
name = top;
pos = (667,1118);
}
);
hints = (
{
name = _cap.LowerVertical;
options = 2;
origin = (0,10);
type = Cap;
}
);
layerId = "DD1D3E88-8CF6-488D-B1FD-132231471927";
shapes = (
{
closed = 1;
nodes = (
(219,1050,o),
(80,805,o),
(80,484,cs),
(80,189,o),
(212,-24,o),
(515,-24,cs),
(688,-24,o),
(760,46,o),
(805,102,c),
(809,102,l),
(809,-352,l),
(1125,-352,l),
(1125,928,l),
(1035,984,o),
(913,1050,o),
(653,1050,cs)
);
},
{
closed = 1;
nodes = (
(728,808,o),
(780,785,o),
(809,764,c),
(809,351,l),
(779,282,o),
(727,231,o),
(616,231,cs),
(479,231,o),
(404,319,o),
(404,488,cs),
(404,707,o),
(487,808,o),
(642,808,cs)
);
}
);
width = 1260;
}
);
note = q;
unicode = 113;
},
{
color = 4;
glyphname = r;
kernLeft = n;
lastChange = "2023-03-02 20:47:26 +0000";
layers = (
{
anchors = (
{
name = bottom;
pos = (289,0);
},
{
name = top;
pos = (456,1118);
}
);
background = {
anchors = (
{
name = mark0;
pos = (289,0);
},
{
name = mark1;
pos = (289,0);
}
);
shapes = (
{
closed = 1;
nodes = (
(451,0,l),
(451,489,ls),
(451,662,o),
(533,770,o),
(670,770,cs),
(721,770,o),
(765,760,o),
(803,739,c),
(803,1030,l),
(784,1038,o),
(758,1042,o),
(725,1042,cs),
(595,1042,o),
(505,973,o),
(455,834,c),
(451,834,l),
(451,1024,l),
(135,1024,l),
(135,0,l)
);
}
);
};
hints = (
{
name = _cap.LCstemVert;
origin = (0,19);
type = Cap;
}
);
layerId = "DD1D3E88-8CF6-488D-B1FD-132231471927";
shapes = (
{
closed = 1;
nodes = (
(451,908,ls),
(451,920,o),
(448,928,o),
(442,936,cs),
(421,965,o),
(382,1003,o),
(326,1047,cs),
(315,1055,o),
(306,1057,o),
(298,1057,cs),
(290,1057,o),
(278,1055,o),
(268,1047,cs),
(211,1003,o),
(173,965,o),
(145,928,cs),
(136,916,o),
(135,911,o),
(135,891,cs),
(135,0,l),
(451,0,l),
(451,489,ls),
(451,662,o),
(533,770,o),
(670,770,cs),
(723,770,o),
(751,760,o),
(767,754,cs),
(787,746,o),
(803,749,o),
(803,771,cs),
(803,1012,ls),
(803,1028,o),
(797,1032,o),
(788,1035,cs),
(780,1038,o),
(758,1042,o),
(725,1042,cs),
(595,1042,o),
(505,973,o),
(455,834,c),
(451,834,l)
);
}
);
width = 817;
}
);
note = r;
unicode = 114;
},
{
color = 4;
glyphname = s;
kernLeft = s;
kernRight = s;
lastChange = "2023-03-10 19:58:08 +0000";
layers = (
{
anchors = (
{
name = bottom;
pos = (400,0);
},
{
name = bottom1;
pos = (419,0);
},
{
name = top;
pos = (465,1118);
}
);
background = {
anchors = (
{
name = bottom;
pos = (400,0);
},
{
name = bottom1;
pos = (419,0);
},
{
name = top;
pos = (465,1118);
}
);
shapes = (
{
closed = 1;
nodes = (
(645,-25,o),
(873,69,o),
(873,313,cs),
(873,501,o),
(764,557,o),
(596,616,cs),
(453,666,o),
(396,686,o),
(396,750,cs),
(396,809,o),
(455,834,o),
(527,834,cs),
(605,834,o),
(641,808,o),
(660,791,cs),
(674,778,o),
(679,778,o),
(684,778,cs),
(709,778,o),
(787,805,o),
(811,821,cs),
(818,825,o),
(824,831,o),
(827,839,cs),
(829,846,o),
(829,851,o),
(828,860,cs),
(820,910,o),
(810,947,o),
(800,972,cs),
(795,984,o),
(791,992,o),
(777,1001,cs),
(753,1017,o),
(687,1049,o),
(535,1049,cs),
(304,1049,o),
(87,953,o),
(87,723,cs),
(87,556,o),
(175,483,o),
(344,422,cs),
(516,360,o),
(564,342,o),
(564,283,cs),
(564,220,o),
(501,190,o),
(413,190,cs),
(286,190,o),
(208,259,o),
(175,296,c),
(45,100,l),
(85,61,o),
(175,-25,o),
(420,-25,cs)
);
}
);
};
layerId = "DD1D3E88-8CF6-488D-B1FD-132231471927";
shapes = (
{
closed = 1;
nodes = (
(645,-25,o),
(873,69,o),
(873,313,cs),
(873,501,o),
(764,557,o),
(596,616,cs),
(453,666,o),
(396,686,o),
(396,750,cs),
(396,809,o),
(451,829,o),
(523,829,cs),
(596,829,o),
(636,799,o),
(654,782,cs),
(668,768,o),
(673,767,o),
(678,767,cs),
(703,767,o),
(782,788,o),
(807,802,cs),
(823,810,o),
(829,824,o),
(826,851,cs),
(822,890,o),
(815,928,o),
(806,954,cs),
(802,966,o),
(798,973,o),
(785,984,cs),
(764,1003,o),
(703,1049,o),
(521,1049,cs),
(304,1049,o),
(87,953,o),
(87,723,cs),
(87,556,o),
(175,483,o),
(344,422,cs),
(516,360,o),
(564,342,o),
(564,283,cs),
(564,225,o),
(501,195,o),
(413,195,cs),
(314,195,o),
(250,239,o),
(211,276,cs),
(192,295,o),
(177,295,o),
(161,272,cs),
(59,121,ls),
(51,109,o),
(52,93,o),
(63,83,cs),
(110,40,o),
(206,-25,o),
(420,-25,cs)
);
}
);
width = 933;
}
);
note = s;
unicode = 115;
},
{
color = 4;
glyphname = germandbls;
kernLeft = n;
kernRight = s;
lastChange = "2023-03-10 01:41:50 +0000";
layers = (
{
anchors = (
{
name = bottom;
pos = (675,0);
},
{
name = top;
pos = (652,1516);
}
);
background = {
anchors = (
{
name = bottom;
pos = (675,0);
},
{
name = top;
pos = (652,1516);
}
);
hints = (
{
name = _cap.LCstemVert;
origin = (0,16);
type = Cap;
},
{
name = _cap.LowerHorizontal;
options = 10;
origin = (0,35);
type = Cap;
}
);
shapes = (
{
closed = 1;
nodes = (
(1052,-1,o),
(1229,163,o),
(1229,406,cs),
(1229,649,o),
(1082,753,o),
(866,794,c),
(866,800,l),
(983,829,o),
(1122,925,o),
(1122,1139,cs),
(1122,1401,o),
(944,1540,o),
(653,1540,cs),
(286,1540,o),
(135,1340,o),
(135,1049,cs),
(135,0,l),
(451,0,l),
(451,1053,ls),
(451,1216,o),
(512,1298,o),
(635,1298,cs),
(734,1298,o),
(798,1230,o),
(798,1107,cs),
(798,971,o),
(713,896,o),
(586,879,c),
(586,637,l),
(781,630,o),
(905,559,o),
(905,414,cs),
(905,291,o),
(834,241,o),
(723,241,cs),
(658,241,l),
(658,-1,l),
(739,-1,ls)
);
}
);
};
hints = (
{
name = _cap.LowerHorizontal;
options = 10;
origin = (0,41);
type = Cap;
},
{
name = _cap.LCstemVert;
origin = (0,16);
type = Cap;
}
);
layerId = "DD1D3E88-8CF6-488D-B1FD-132231471927";
shapes = (
{
closed = 1;
nodes = (
(1052,-1,o),
(1229,163,o),
(1229,406,cs),
(1229,649,o),
(1082,753,o),
(866,794,c),
(866,800,l),
(983,829,o),
(1122,925,o),
(1122,1139,cs),
(1122,1401,o),
(944,1540,o),
(653,1540,cs),
(286,1540,o),
(135,1340,o),
(135,1049,cs),
(135,0,l),
(451,0,l),
(451,1053,ls),
(451,1216,o),
(512,1298,o),
(635,1298,cs),
(734,1298,o),
(798,1230,o),
(798,1107,cs),
(798,983,o),
(727,909,o),
(618,885,cs),
(599,880,o),
(586,866,o),
(586,847,cs),
(586,675,ls),
(586,653,o),
(602,637,o),
(624,635,cs),
(797,620,o),
(905,549,o),
(905,414,cs),
(905,291,o),
(834,241,o),
(723,241,cs),
(658,241,l),
(658,-1,l),
(739,-1,ls)
);
}
);
width = 1309;
}
);
unicode = 223;
},
{
color = 4;
glyphname = t;
kernLeft = f;
lastChange = "2023-03-10 01:13:41 +0000";
layers = (
{
anchors = (
{
name = bottom;
pos = (545,0);
},
{
name = bottom1;
pos = (498,0);
},
{
name = top;
pos = (369,1305);
}
);
background = {
anchors = (
{
name = bottom;
pos = (545,0);
},
{
name = bottom1;
pos = (498,0);
},
{
name = top;
pos = (369,1305);
}
);
hints = (
{
name = _cap.LCstemHoriz;
origin = (0,11);
type = Cap;
},
{
name = _cap.LowerVertical;
options = 10;
origin = (0,14);
type = Cap;
},
{
name = _cap.LCstemHoriz;
origin = (0,17);
type = Cap;
}
);
shapes = (
{
closed = 1;
nodes = (
(708,-25,o),
(785,19,o),
(808,33,c),
(728,247,l),
(718,238,o),
(687,217,o),
(637,217,cs),
(563,217,o),
(521,270,o),
(521,377,cs),
(521,791,l),
(751,791,l),
(751,1024,l),
(521,1024,l),
(521,1195,l),
(206,1195,l),
(206,1024,l),
(40,1024,l),
(40,791,l),
(206,791,l),
(206,322,ls),
(206,91,o),
(317,-25,o),
(540,-25,cs)
);
}
);
};
hints = (
{
name = _cap.LowerVertical;
options = 10;
origin = (0,20);
type = Cap;
},
{
name = _cap.LCstemHoriz;
origin = (0,17);
type = Cap;
},
{
name = _cap.LCstemHoriz;
origin = (0,23);
type = Cap;
}
);
layerId = "DD1D3E88-8CF6-488D-B1FD-132231471927";
shapes = (
{
closed = 1;
nodes = (
(696,-25,o),
(767,12,o),
(787,21,cs),
(803,29,o),
(806,38,o),
(799,57,cs),
(741,212,ls),
(731,239,o),
(724,239,o),
(696,228,cs),
(681,222,o),
(661,217,o),
(637,217,cs),
(563,217,o),
(521,270,o),
(521,377,cs),
(521,791,l),
(751,791,l),
(751,1024,l),
(521,1024,l),
(521,1195,l),
(206,1195,l),
(206,1024,l),
(40,1024,l),
(40,791,l),
(206,791,l),
(206,322,ls),
(206,91,o),
(317,-25,o),
(540,-25,cs)
);
}
);
width = 831;
}
);
note = t;
unicode = 116;
},
{
color = 4;
glyphname = u;
kernLeft = n;
kernRight = n;
lastChange = "2023-03-10 01:15:31 +0000";
layers = (
{
anchors = (
{
name = bottom;
pos = (611,0);
},
{
name = ogonek;
pos = (1022,0);
},
{
name = top;
pos = (637,1118);
}
);
background = {
hints = (
{
name = _cap.LCstemVert;
origin = (0,4);
type = Cap;
},
{
name = _cap.LowerVertical;
options = 2;
origin = (0,6);
type = Cap;
},
{
name = _cap.LowerVertical;
options = 2;
origin = (0,15);
type = Cap;
}
);
shapes = (
{
closed = 1;
nodes = (
(705,-25,o),
(773,55,o),
(805,102,c),
(810,102,l),
(810,0,l),
(1126,0,l),
(1126,924,l),
(810,924,l),
(810,438,ls),
(810,302,o),
(736,217,o),
(623,217,cs),
(508,217,o),
(451,289,o),
(451,434,cs),
(451,924,l),
(136,924,l),
(136,406,ls),
(136,119,o),
(255,-25,o),
(492,-25,cs)
);
}
);
};
hints = (
{
name = _cap.LowerVertical;
options = 2;
origin = (0,21);
type = Cap;
},
{
name = _cap.LowerVertical;
options = 2;
origin = (0,12);
type = Cap;
}
);
layerId = "DD1D3E88-8CF6-488D-B1FD-132231471927";
shapes = (
{
closed = 1;
nodes = (
(705,-25,o),
(777,55,o),
(809,102,c),
(816,102,l),
(878,22,ls),
(892,4,o),
(908,0,o),
(930,0,cs),
(1080,0,ls),
(1106,0,o),
(1126,20,o),
(1126,46,cs),
(1126,924,l),
(810,924,l),
(810,438,ls),
(810,302,o),
(736,217,o),
(623,217,cs),
(508,217,o),
(451,289,o),
(451,434,cs),
(451,924,l),
(136,924,l),
(136,406,ls),
(136,119,o),
(255,-25,o),
(492,-25,cs)
);
}
);
width = 1261;
}
);
note = u;
unicode = 117;
},
{
color = 4;
glyphname = v;
lastChange = "2023-03-12 19:28:43 +0000";
layers = (
{
anchors = (
{
name = bottom;
pos = (571,0);
},
{
name = top;
pos = (589,1118);
}
);
background = {
anchors = (
{
name = bottom;
pos = (571,0);
},
{
name = top;
pos = (589,1118);
}
);
hints = (
{
name = _cap.LowerVertical;
options = 10;
origin = (0,10);
scale = (1.0443,1);
type = Cap;
},
{
name = _cap.LowerVertical;
options = 10;
origin = (0,20);
scale = (1.06962,1);
type = Cap;
}
);
shapes = (
{
closed = 1;
nodes = (
(396,22,o),
(416,0,o),
(512,0,cs),
(618,0,ls),
(717,0,o),
(733,24,o),
(778,93,cs),
(927,325,o),
(1094,762,o),
(1094,885,cs),
(1094,891,l),
(764,891,l),
(764,885,ls),
(764,765,o),
(697,474,o),
(576,278,c),
(571,278,l),
(463,474,o),
(388,756,o),
(388,886,cs),
(388,891,l),
(50,891,l),
(50,886,ls),
(50,745,o),
(204,325,o),
(351,93,cs)
);
}
);
};
hints = (
{
name = _cap.LowerVertical;
options = 10;
origin = (0,10);
scale = (1.0443,1);
type = Cap;
},
{
name = _cap.LowerVertical;
options = 10;
origin = (0,20);
scale = (1.06962,1);
type = Cap;
}
);
layerId = "DD1D3E88-8CF6-488D-B1FD-132231471927";
shapes = (
{
closed = 1;
nodes = (
(396,22,o),
(416,0,o),
(512,0,cs),
(618,0,ls),
(710,0,o),
(731,25,o),
(778,93,cs),
(934,317,o),
(1094,745,o),
(1094,885,cs),
(1094,891,l),
(764,891,l),
(764,885,ls),
(764,765,o),
(697,474,o),
(576,278,c),
(571,278,l),
(463,474,o),
(388,756,o),
(388,886,cs),
(388,891,l),
(50,891,l),
(50,886,ls),
(50,745,o),
(204,325,o),
(351,93,cs)
);
}
);
width = 1144;
}
);
note = v;
unicode = 118;
},
{
color = 4;
glyphname = w;
lastChange = "2023-03-10 20:59:33 +0000";
layers = (
{
anchors = (
{
name = bottom;
pos = (859,0);
},
{
name = top;
pos = (875,1118);
}
);
background = {
shapes = (
{
closed = 1;
nodes = (
(339,12,o),
(362,0,o),
(408,0,cs),
(588,0,ls),
(648,0,o),
(677,20,o),
(691,73,cs),
(833,604,ls),
(842,637,o),
(849,673,o),
(852,696,c),
(858,696,l),
(860,673,o),
(866,640,o),
(876,600,cs),
(1009,73,ls),
(1023,19,o),
(1045,0,o),
(1103,0,cs),
(1286,0,ls),
(1338,0,o),
(1364,17,o),
(1380,73,cs),
(1654,1024,l),
(1361,1024,l),
(1228,356,ls),
(1220,317,o),
(1215,286,o),
(1213,267,c),
(1206,267,l),
(1204,286,o),
(1199,322,o),
(1191,356,cs),
(1048,959,ls),
(1037,1006,o),
(1016,1024,o),
(950,1024,cs),
(814,1024,ls),
(755,1024,o),
(729,1011,o),
(715,959,cs),
(556,360,ls),
(548,328,o),
(540,289,o),
(538,267,c),
(532,267,l),
(530,289,o),
(524,325,o),
(517,360,cs),
(376,1024,l),
(54,1024,l),
(322,73,ls)
);
}
);
};
hints = (
{
name = _cap.LowerVertical;
options = 10;
origin = (0,30);
type = Cap;
},
{
name = _cap.LowerVertical;
options = 10;
origin = (0,54);
type = Cap;
}
);
layerId = "DD1D3E88-8CF6-488D-B1FD-132231471927";
shapes = (
{
closed = 1;
nodes = (
(351,15,o),
(360,0,o),
(426,0,cs),
(542,0,ls),
(624,0,o),
(654,11,o),
(683,73,cs),
(742,198,o),
(822,464,o),
(837,540,cs),
(845,583,o),
(854,649,o),
(855,682,c),
(860,682,l),
(862,649,o),
(871,581,o),
(878,541,cs),
(892,457,o),
(974,146,o),
(1011,73,cs),
(1042,11,o),
(1071,0,o),
(1134,0,cs),
(1247,0,ls),
(1331,0,o),
(1341,10,o),
(1382,73,cs),
(1487,234,o),
(1653,725,o),
(1653,885,cs),
(1653,891,l),
(1323,891,l),
(1323,885,ls),
(1323,685,o),
(1264,409,o),
(1205,278,c),
(1198,278,l),
(1146,407,o),
(1044,801,o),
(1022,945,cs),
(1015,992,o),
(990,1010,o),
(924,1010,cs),
(808,1010,ls),
(749,1010,o),
(717,997,o),
(708,945,cs),
(683,805,o),
(589,427,o),
(520,278,c),
(514,278,l),
(451,427,o),
(408,720,o),
(408,886,cs),
(408,891,l),
(70,891,l),
(70,887,ls),
(70,726,o),
(218,223,o),
(314,73,cs)
);
}
);
width = 1723;
}
);
note = w;
unicode = 119;
},
{
color = 4;
glyphname = x;
lastChange = "2023-03-10 20:59:36 +0000";
layers = (
{
anchors = (
{
name = bottom;
pos = (561,0);
},
{
name = top;
pos = (579,1118);
}
);
hints = (
{
name = _cap.LowerVertical;
options = 10;
origin = (0,16);
scale = (0.97468,1);
type = Cap;
},
{
name = _cap.LowerVertical;
options = 10;
origin = (0,25);
type = Cap;
}
);
layerId = "DD1D3E88-8CF6-488D-B1FD-132231471927";
shapes = (
{
closed = 1;
nodes = (
(722,260,o),
(746,177,o),
(746,48,cs),
(746,12,o),
(756,0,o),
(781,0,cs),
(1019,0,ls),
(1055,0,o),
(1062,11,o),
(1062,57,cs),
(1062,251,o),
(989,409,o),
(824,502,c),
(942,580,o),
(1023,699,o),
(1023,865,cs),
(1023,891,l),
(715,891,l),
(715,865,ls),
(715,773,o),
(677,700,o),
(576,644,c),
(469,694,o),
(410,773,o),
(410,865,cs),
(410,891,l),
(94,891,l),
(94,865,ls),
(94,714,o),
(179,570,o),
(321,491,c),
(134,379,o),
(70,238,o),
(70,57,cs),
(70,15,o),
(82,0,o),
(114,0,cs),
(347,0,ls),
(374,0,o),
(379,9,o),
(379,37,cs),
(379,177,o),
(426,265,o),
(567,347,c)
);
}
);
width = 1132;
}
);
note = x;
unicode = 120;
},
{
color = 4;
glyphname = y;
kernLeft = y;
kernRight = y;
lastChange = "2023-03-12 19:23:49 +0000";
layers = (
{
anchors = (
{
name = bottom;
pos = (604,-470);
},
{
name = top;
pos = (582,1118);
}
);
background = {
anchors = (
{
name = bottom;
pos = (601,-470);
},
{
name = top;
pos = (579,1118);
}
);
hints = (
{
name = _cap.LowerVertical;
options = 10;
origin = (0,6);
type = Cap;
},
{
name = _cap.LowerVertical;
options = 10;
origin = (0,16);
type = Cap;
}
);
shapes = (
{
closed = 1;
nodes = (
(452,-481,o),
(610,-337,o),
(794,-8,cs),
(977,321,o),
(1089,676,o),
(1089,884,cs),
(1089,891,l),
(766,891,l),
(766,884,ls),
(766,705,o),
(674,389,o),
(620,288,c),
(615,288,l),
(490,445,o),
(387,705,o),
(387,885,cs),
(387,891,l),
(47,891,l),
(47,884,ls),
(47,605,o),
(263,222,o),
(457,7,c),
(369,-161,o),
(280,-230,o),
(183,-230,cs),
(165,-230,o),
(151,-227,o),
(134,-222,cs),
(119,-217,o),
(116,-218,o),
(106,-224,cs),
(77,-241,o),
(47,-269,o),
(17,-299,cs),
(7,-309,o),
(0,-319,o),
(0,-329,cs),
(0,-340,o),
(5,-354,o),
(14,-369,cs),
(32,-400,o),
(56,-433,o),
(71,-449,cs),
(81,-459,o),
(91,-464,o),
(107,-469,cs),
(122,-474,o),
(155,-481,o),
(196,-481,cs)
);
}
);
};
hints = (
{
name = _cap.LowerVertical;
options = 10;
origin = (0,6);
type = Cap;
},
{
name = _cap.LowerVertical;
options = 10;
origin = (0,16);
type = Cap;
}
);
layerId = "DD1D3E88-8CF6-488D-B1FD-132231471927";
shapes = (
{
closed = 1;
nodes = (
(399,-481,o),
(616,-337,o),
(802,-8,cs),
(988,321,o),
(1094,704,o),
(1094,884,cs),
(1094,891,l),
(764,891,l),
(764,884,ls),
(764,705,o),
(677,389,o),
(623,288,c),
(618,288,l),
(501,394,o),
(388,673,o),
(388,885,cs),
(388,891,l),
(50,891,l),
(50,884,ls),
(50,605,o),
(259,191,o),
(462,5,c),
(365,-161,o),
(262,-209,o),
(170,-209,cs),
(143,-209,o),
(132,-205,o),
(125,-205,cs),
(118,-205,o),
(110,-207,o),
(95,-219,cs),
(73,-237,o),
(38,-270,o),
(17,-298,cs),
(8,-309,o),
(0,-321,o),
(0,-335,cs),
(0,-349,o),
(13,-370,o),
(23,-385,cs),
(40,-411,o),
(64,-441,o),
(79,-455,cs),
(96,-470,o),
(117,-481,o),
(167,-481,cs)
);
}
);
width = 1142;
}
);
note = y;
unicode = 121;
},
{
color = 4;
glyphname = z;
kernLeft = z;
kernRight = z;
lastChange = "2023-03-10 20:59:53 +0000";
layers = (
{
anchors = (
{
name = bottom;
pos = (502,0);
},
{
name = top;
pos = (502,1118);
}
);
background = {
anchors = (
{
name = mark0;
pos = (786,0);
},
{
name = mark1;
pos = (786,0);
}
);
shapes = (
{
closed = 1;
nodes = (
(945,0,l),
(945,233,l),
(454,233,l),
(941,868,l),
(941,1024,l),
(77,1024,l),
(77,791,l),
(540,791,l),
(26,131,l),
(26,0,l)
);
}
);
};
hints = (
{
name = _cap.LowerHorizontal;
options = 2;
origin = (0,0);
type = Cap;
},
{
name = _cap.LowerHorizontal;
options = 2;
origin = (0,7);
type = Cap;
}
);
layerId = "DD1D3E88-8CF6-488D-B1FD-132231471927";
shapes = (
{
closed = 1;
nodes = (
(875,0,l),
(875,233,l),
(454,233,l),
(900,815,ls),
(982,922,o),
(941,1024,o),
(808,1024,cs),
(147,1024,l),
(147,791,l),
(540,791,l),
(87,210,ls),
(-7,89,o),
(64,0,o),
(165,0,cs)
);
}
);
width = 1022;
}
);
note = z;
unicode = 122;
},
{
color = 4;
glyphname = fi;
kernLeft = f;
kernRight = n;
lastChange = "2023-03-02 20:49:40 +0000";
layers = (
{
background = {
shapes = (
{
closed = 1;
nodes = (
(530,0,l),
(530,795,l),
(762,795,l),
(762,1024,l),
(530,1024,l),
(530,1135,ls),
(530,1245,o),
(577,1300,o),
(672,1300,cs),
(710,1300,o),
(748,1291,o),
(786,1272,c),
(786,1520,l),
(745,1533,o),
(693,1540,o),
(631,1540,cs),
(377,1540,o),
(213,1391,o),
(213,1151,cs),
(213,1024,l),
(41,1024,l),
(41,795,l),
(213,795,l),
(213,0,l)
);
},
{
closed = 1;
nodes = (
(1233,0,l),
(1233,1024,l),
(918,1024,l),
(918,0,l)
);
},
{
closed = 1;
nodes = (
(1186,1186,o),
(1260,1253,o),
(1260,1350,cs),
(1260,1449,o),
(1181,1511,o),
(1077,1511,cs),
(971,1511,o),
(895,1446,o),
(895,1350,cs),
(895,1252,o),
(975,1186,o),
(1077,1186,cs)
);
}
);
};
layerId = "DD1D3E88-8CF6-488D-B1FD-132231471927";
shapes = (
{
ref = f;
},
{
pos = (782,0);
ref = i;
}
);
width = 1370;
}
);
note = fi;
unicode = 64257;
},
{
color = 4;
glyphname = fl;
kernLeft = f;
kernRight = n;
lastChange = "2023-03-02 20:49:44 +0000";
layers = (
{
background = {
shapes = (
{
closed = 1;
nodes = (
(530,0,l),
(530,795,l),
(762,795,l),
(762,1024,l),
(530,1024,l),
(530,1135,ls),
(530,1245,o),
(577,1300,o),
(672,1300,cs),
(710,1300,o),
(748,1291,o),
(786,1272,c),
(786,1520,l),
(745,1533,o),
(693,1540,o),
(631,1540,cs),
(377,1540,o),
(213,1391,o),
(213,1151,cs),
(213,1024,l),
(41,1024,l),
(41,795,l),
(213,795,l),
(213,0,l)
);
},
{
closed = 1;
nodes = (
(1233,0,l),
(1233,1516,l),
(918,1516,l),
(918,0,l)
);
}
);
};
layerId = "DD1D3E88-8CF6-488D-B1FD-132231471927";
shapes = (
{
ref = f;
},
{
pos = (782,0);
ref = l;
}
);
width = 1372;
}
);
note = fl;
unicode = 64258;
},
{
color = 4;
glyphname = ordfeminine;
lastChange = "2023-02-28 20:44:24 +0000";
layers = (
{
layerId = "DD1D3E88-8CF6-488D-B1FD-132231471927";
shapes = (
{
closed = 1;
nodes = (
(429,564,o),
(516,595,o),
(568,669,c),
(574,669,l),
(631,599,ls),
(641,587,o),
(653,584,o),
(669,584,cs),
(805,584,ls),
(823,584,o),
(832,593,o),
(832,614,cs),
(832,1094,ls),
(832,1336,o),
(710,1458,o),
(458,1458,cs),
(277,1458,o),
(183,1410,o),
(165,1395,cs),
(151,1385,o),
(146,1379,o),
(140,1368,cs),
(132,1351,o),
(122,1311,o),
(117,1289,cs),
(112,1266,o),
(112,1261,o),
(112,1256,cs),
(113,1246,o),
(122,1241,o),
(127,1239,cs),
(167,1225,o),
(200,1212,o),
(230,1208,cs),
(242,1207,o),
(249,1208,o),
(258,1216,cs),
(272,1226,o),
(332,1271,o),
(424,1271,cs),
(525,1271,o),
(575,1229,o),
(575,1128,c),
(149,1117,o),
(50,987,o),
(50,822,cs),
(50,660,o),
(153,564,o),
(316,564,cs)
);
},
{
closed = 1;
nodes = (
(349,757,o),
(304,778,o),
(304,843,cs),
(304,908,o),
(342,969,o),
(574,969,c),
(574,877,l),
(559,821,o),
(510,757,o),
(408,757,cs)
);
}
);
width = 937;
}
);
unicode = 170;
},
{
color = 4;
glyphname = ordmasculine;
lastChange = "2023-02-24 21:50:59 +0000";
layers = (
{
layerId = "DD1D3E88-8CF6-488D-B1FD-132231471927";
shapes = (
{
closed = 1;
nodes = (
(792,565,o),
(967,725,o),
(967,1023,cs),
(967,1309,o),
(789,1458,o),
(516,1458,cs),
(233,1458,o),
(50,1309,o),
(50,1008,cs),
(50,714,o),
(225,565,o),
(504,565,cs)
);
},
{
closed = 1;
nodes = (
(385,766,o),
(320,831,o),
(320,1012,cs),
(320,1184,o),
(392,1257,o),
(511,1257,cs),
(634,1257,o),
(697,1194,o),
(697,1018,cs),
(697,834,o),
(634,766,o),
(513,766,cs)
);
}
);
width = 1017;
}
);
unicode = 186;
},
{
color = 4;
glyphname = "Alif-adlam";
lastChange = "2023-03-10 21:32:22 +0000";
layers = (
{
anchors = (
{
name = bottom;
pos = (721,0);
},
{
name = gemconsonanttop;
pos = (693,1330);
},
{
name = top;
pos = (664,1330);
},
{
name = topAlif;
pos = (393,1434);
}
);
background = {
hints = (
{
name = _cap.UpperHorizontal;
options = 2;
origin = (1,5);
type = Cap;
}
);
shapes = (
{
closed = 1;
nodes = (
(1062,-24,o),
(1293,132,o),
(1293,398,cs),
(1293,597,o),
(1194,668,o),
(1151,683,c),
(1151,695,l),
(1187,699,o),
(1255,712,o),
(1283,733,c),
(1212,938,l),
(1184,923,o),
(1116,909,o),
(1062,909,cs),
(931,909,o),
(815,952,o),
(694,1001,c),
(591,772,l),
(681,727,ls),
(821,657,o),
(972,589,o),
(972,441,cs),
(972,300,o),
(862,239,o),
(722,239,cs),
(570,239,o),
(483,302,o),
(483,521,cs),
(483,998,l),
(160,998,l),
(160,482,ls),
(160,66,o),
(395,-24,o),
(721,-24,cs)
);
},
{
closed = 1;
nodes = (
(483,944,l),
(483,1037,ls),
(483,1132,o),
(519,1171,o),
(587,1171,cs),
(991,1171,l),
(991,1434,l),
(497,1434,ls),
(260,1434,o),
(160,1316,o),
(160,1066,cs),
(160,944,l)
);
}
);
};
hints = (
{
name = _cap.UpperHorizontal;
options = 2;
origin = (0,32);
type = Cap;
}
);
layerId = "DD1D3E88-8CF6-488D-B1FD-132231471927";
shapes = (
{
closed = 1;
nodes = (
(1062,-24,o),
(1293,132,o),
(1293,398,cs),
(1293,597,o),
(1194,668,o),
(1151,683,c),
(1151,695,l),
(1187,699,o),
(1255,712,o),
(1283,733,c),
(1212,938,l),
(1184,923,o),
(1116,909,o),
(1062,909,cs),
(931,909,o),
(815,952,o),
(694,1001,c),
(591,772,l),
(681,727,ls),
(821,657,o),
(972,589,o),
(972,441,cs),
(972,307,o),
(862,246,o),
(722,246,cs),
(570,246,o),
(483,309,o),
(483,521,cs),
(483,1037,ls),
(483,1132,o),
(519,1171,o),
(587,1171,cs),
(991,1171,l),
(991,1434,l),
(497,1434,ls),
(260,1434,o),
(160,1316,o),
(160,1066,cs),
(160,482,ls),
(160,66,o),
(395,-24,o),
(721,-24,cs)
);
}
);
width = 1413;
}
);
note = uni1E900;
unicode = 125184;
},
{
color = 4;
glyphname = "Daali-adlam";
lastChange = "2023-03-10 21:32:22 +0000";
layers = (
{
anchors = (
{
name = bottom;
pos = (648,0);
},
{
name = gemconsonanttop;
pos = (628,1330);
},
{
name = top;
pos = (648,1330);
}
);
background = {
shapes = (
{
closed = 1;
nodes = (
(833,387,ls),
(833,297,o),
(807,263,o),
(719,263,cs),
(168,263,l),
(168,0,l),
(909,0,ls),
(1116,0,o),
(1157,68,o),
(1156,268,cs),
(1155,587,l),
(833,587,l)
);
}
);
};
hints = (
{
name = _cap.UpperVertical;
options = 2;
origin = (0,14);
type = Cap;
},
{
name = _cap.UpperVertical;
options = 2;
origin = (0,4);
type = Cap;
},
{
name = _cap.UpperHorizontal;
options = 2;
origin = (0,27);
type = Cap;
}
);
layerId = "DD1D3E88-8CF6-488D-B1FD-132231471927";
shapes = (
{
closed = 1;
nodes = (
(909,0,ls),
(1116,0,o),
(1156,65,o),
(1156,268,cs),
(1156,1284,l),
(833,1284,l),
(833,769,l),
(828,766,l),
(809,790,o),
(768,812,o),
(644,840,cs),
(504,872,o),
(455,901,o),
(454,1056,cs),
(453,1284,l),
(130,1284,l),
(131,964,ls),
(132,701,o),
(245,657,o),
(515,598,cs),
(771,542,o),
(833,500,o),
(833,393,cs),
(833,377,ls),
(833,297,o),
(807,263,o),
(719,263,cs),
(281,263,l),
(281,0,l)
);
}
);
width = 1336;
}
);
note = uni1E901;
unicode = 125185;
},
{
color = 4;
glyphname = "Laam-adlam";
lastChange = "2023-03-10 21:32:22 +0000";
layers = (
{
anchors = (
{
name = bottom;
pos = (898,0);
},
{
name = gemconsonanttop;
pos = (877,1330);
},
{
name = top;
pos = (898,1330);
}
);
background = {
anchors = (
{
name = top;
pos = (893,1330);
}
);
hints = (
{
name = _cap.UpperVertical;
options = 2;
origin = (0,13);
type = Cap;
},
{
name = _cap.UpperVertical;
options = 2;
origin = (0,29);
type = Cap;
},
{
name = _cap.UpperHorizontal;
options = 2;
origin = (0,42);
type = Cap;
}
);
shapes = (
{
closed = 1;
nodes = (
(847,0,ls),
(1054,0,o),
(1094,68,o),
(1094,268,cs),
(1094,435,ls),
(1094,492,o),
(1142,552,o),
(1248,646,cs),
(1305,696,o),
(1305,698,o),
(1332,731,c),
(1332,0,l),
(1655,0,l),
(1655,1284,l),
(1332,1284,l),
(1332,1109,ls),
(1332,1024,o),
(1291,961,o),
(1204,883,cs),
(1151,835,o),
(1121,806,o),
(1094,776,c),
(1094,1041,ls),
(1094,1353,o),
(887,1458,o),
(609,1458,cs),
(323,1458,o),
(110,1338,o),
(110,1030,cs),
(110,877,l),
(433,877,l),
(433,969,ls),
(433,1161,o),
(497,1195,o),
(608,1195,cs),
(704,1195,o),
(771,1163,o),
(771,975,cs),
(771,387,ls),
(771,297,o),
(745,263,o),
(657,263,cs),
(275,263,l),
(275,0,l)
);
}
);
};
hints = (
{
name = _cap.UpperVertical;
options = 2;
origin = (0,29);
type = Cap;
},
{
name = _cap.UpperHorizontal;
options = 2;
origin = (0,42);
type = Cap;
},
{
name = _cap.UpperVertical;
options = 2;
origin = (0,13);
type = Cap;
}
);
layerId = "DD1D3E88-8CF6-488D-B1FD-132231471927";
shapes = (
{
closed = 1;
nodes = (
(847,0,ls),
(1054,0,o),
(1094,68,o),
(1094,268,cs),
(1094,410,ls),
(1094,477,o),
(1143,536,o),
(1217,603,cs),
(1273,654,o),
(1299,677,o),
(1310,697,c),
(1310,0,l),
(1633,0,l),
(1633,1284,l),
(1310,1284,l),
(1310,1124,ls),
(1310,1019,o),
(1295,982,o),
(1204,898,cs),
(1151,849,o),
(1121,821,o),
(1094,791,c),
(1094,1041,ls),
(1094,1353,o),
(887,1458,o),
(609,1458,cs),
(323,1458,o),
(110,1338,o),
(110,1030,cs),
(110,877,l),
(433,877,l),
(433,969,ls),
(433,1154,o),
(497,1188,o),
(608,1188,cs),
(704,1188,o),
(771,1156,o),
(771,975,cs),
(771,387,ls),
(771,297,o),
(745,263,o),
(657,263,cs),
(265,263,l),
(265,0,l)
);
}
);
width = 1813;
}
);
note = uni1E902;
unicode = 125186;
},
{
color = 4;
glyphname = "Miim-adlam";
lastChange = "2023-03-10 21:32:22 +0000";
layers = (
{
anchors = (
{
name = bottom;
pos = (647,0);
},
{
name = gemconsonanttop;
pos = (627,1330);
},
{
name = top;
pos = (647,1330);
}
);
background = {
hints = (
{
name = _cap.UpperHorizontal;
options = 10;
origin = (1,5);
type = Cap;
},
{
name = _cap.UpperHorizontal;
options = 2;
origin = (1,26);
type = Cap;
},
{
name = _cap.UpperHorizontal;
options = 2;
origin = (2,38);
type = Cap;
}
);
shapes = (
{
closed = 1;
nodes = (
(636,-1213,ls),
(636,-1303,o),
(610,-1337,o),
(522,-1337,cs),
(56,-1337,l),
(56,-1600,l),
(712,-1600,ls),
(919,-1600,o),
(960,-1532,o),
(959,-1332,cs),
(958,-1013,l),
(636,-1013,l)
);
},
{
closed = 1;
nodes = (
(849,-529,o),
(888,-593,o),
(888,-667,cs),
(888,-700,o),
(871,-719,o),
(850,-742,c),
(1113,-935,l),
(1121,-925,l),
(1194,-851,o),
(1211,-757,o),
(1211,-682,cs),
(1211,-441,o),
(1113,-265,o),
(650,-266,cs),
(214,-267,o),
(60,-420,o),
(60,-661,cs),
(60,-910,o),
(167,-1016,o),
(493,-1134,cs),
(831,-1256,o),
(871,-1280,o),
(871,-1352,cs),
(871,-1422,o),
(815,-1437,o),
(699,-1437,cs),
(200,-1437,l),
(200,-1700,l),
(718,-1700,ls),
(1107,-1700,o),
(1211,-1598,o),
(1211,-1375,cs),
(1211,-1162,o),
(1129,-1074,o),
(738,-933,cs),
(421,-819,o),
(400,-742,o),
(400,-658,cs),
(400,-571,o),
(460,-529,o),
(650,-529,cs)
);
},
{
closed = 1;
nodes = (
(718,0,ls),
(1107,0,o),
(1211,102,o),
(1211,345,cs),
(1211,578,o),
(1117,659,o),
(710,836,cs),
(473,940,o),
(430,988,o),
(430,1052,cs),
(430,1119,o),
(480,1171,o),
(660,1171,cs),
(839,1171,o),
(892,1117,o),
(892,1042,cs),
(892,972,o),
(859,927,o),
(827,878,c),
(1091,749,l),
(1144,832,o),
(1211,922,o),
(1211,1073,cs),
(1211,1308,o),
(1045,1434,o),
(660,1434,cs),
(234,1434,o),
(90,1270,o),
(90,1052,cs),
(90,840,o),
(237,736,o),
(569,596,cs),
(824,489,o),
(871,447,o),
(871,363,cs),
(871,298,o),
(815,263,o),
(699,263,cs),
(250,263,l),
(250,0,l)
);
}
);
};
hints = (
{
name = _cap.UpperHorizontal;
options = 2;
origin = (0,34);
type = Cap;
}
);
layerId = "DD1D3E88-8CF6-488D-B1FD-132231471927";
shapes = (
{
closed = 1;
nodes = (
(778,0,ls),
(1097,0,o),
(1211,52,o),
(1211,315,cs),
(1211,502,o),
(1179,665,o),
(770,835,cs),
(473,959,o),
(430,1012,o),
(430,1076,cs),
(430,1136,o),
(480,1188,o),
(660,1188,cs),
(839,1188,o),
(892,1134,o),
(892,1049,cs),
(893,855,l),
(1211,855,l),
(1211,1087,ls),
(1211,1332,o),
(1045,1458,o),
(660,1458,cs),
(234,1458,o),
(90,1294,o),
(90,1076,cs),
(90,854,o),
(237,750,o),
(552,617,cs),
(824,503,o),
(871,451,o),
(871,360,cs),
(871,282,o),
(825,263,o),
(699,263,cs),
(250,263,l),
(250,0,l)
);
}
);
width = 1371;
}
);
note = uni1E903;
unicode = 125187;
},
{
color = 4;
glyphname = "Ba-adlam";
lastChange = "2023-03-10 21:32:22 +0000";
layers = (
{
anchors = (
{
name = bottom;
pos = (884,0);
},
{
name = gemconsonanttop;
pos = (865,1330);
},
{
name = top;
pos = (884,1330);
}
);
background = {
anchors = (
{
name = top;
pos = (862,1330);
}
);
hints = (
{
name = _cap.UpperVertical;
options = 2;
origin = (0,3);
type = Cap;
},
{
name = _cap.UpperHorizontal;
options = 2;
origin = (1,0);
type = Cap;
},
{
name = _cap.UpperVertical;
options = 10;
origin = (2,3);
type = Cap;
},
{
name = _cap.UpperHorizontal;
options = 2;
origin = (2,25);
type = Cap;
}
);
shapes = (
{
closed = 1;
nodes = (
(1256,643,o),
(1383,822,o),
(1383,1022,cs),
(1383,1304,l),
(1065,1304,l),
(1065,1071,ls),
(1065,991,o),
(1040,906,o),
(797,906,cs),
(601,906,o),
(463,979,o),
(463,1073,cs),
(463,1134,o),
(501,1170,o),
(583,1171,cs),
(702,1172,o),
(826,1108,o),
(997,913,c),
(1163,1070,l),
(985,1335,o),
(782,1434,o),
(542,1434,cs),
(296,1434,o),
(140,1294,o),
(140,1095,cs),
(140,853,o),
(355,643,o),
(789,643,cs)
);
},
{
closed = 1;
nodes = (
(1243,0,l),
(1243,263,l),
(692,263,ls),
(518,263,o),
(470,330,o),
(470,451,cs),
(470,573,o),
(539,647,o),
(625,659,c),
(695,827,l),
(456,827,o),
(130,766,o),
(130,411,cs),
(130,120,o),
(293,0,o),
(691,0,cs)
);
},
{
closed = 1;
nodes = (
(1236,-957,o),
(1388,-778,o),
(1388,-538,cs),
(1388,-316,l),
(1075,-316,l),
(1075,-356,o),
(1076,-371,o),
(1081,-394,c),
(1075,-396,l),
(952,-237,o),
(767,-166,o),
(562,-166,cs),
(306,-166,o),
(140,-296,o),
(140,-537,cs),
(140,-643,o),
(204,-769,o),
(356,-847,c),
(356,-858,l),
(240,-903,o),
(130,-1021,o),
(130,-1199,cs),
(130,-1480,o),
(293,-1600,o),
(691,-1600,cs),
(1243,-1600,l),
(1243,-1337,l),
(692,-1337,ls),
(548,-1337,o),
(470,-1270,o),
(470,-1149,cs),
(470,-1034,o),
(531,-962,o),
(610,-944,c),
(665,-952,o),
(725,-957,o),
(789,-957,cs)
);
},
{
closed = 1;
nodes = (
(480,-463,o),
(536,-429,o),
(615,-429,cs),
(734,-429,o),
(898,-491,o),
(1059,-651,c),
(1043,-670,o),
(961,-694,o),
(797,-694,cs),
(601,-694,o),
(480,-619,o),
(480,-529,cs)
);
}
);
};
hints = (
{
name = _cap.UpperVertical;
options = 2;
origin = (0,18);
type = Cap;
},
{
name = _cap.UpperHorizontal;
options = 2;
origin = (0,30);
type = Cap;
}
);
layerId = "DD1D3E88-8CF6-488D-B1FD-132231471927";
shapes = (
{
closed = 1;
nodes = (
(1156,263,ls),
(1068,263,o),
(1042,297,o),
(1042,387,cs),
(1042,489,l),
(1387,527,o),
(1688,665,o),
(1688,1024,cs),
(1688,1346,o),
(1472,1458,o),
(1166,1458,cs),
(916,1458,o),
(769,1397,o),
(719,1364,c),
(719,756,l),
(614,771,o),
(553,797,o),
(503,819,c),
(503,1284,l),
(180,1284,l),
(180,0,l),
(503,0,l),
(503,532,l),
(564,511,o),
(620,497,o),
(719,486,c),
(719,268,ls),
(719,68,o),
(759,0,o),
(966,0,cs),
(1516,0,l),
(1516,263,l)
);
},
{
closed = 1;
nodes = (
(1255,1188,o),
(1348,1140,o),
(1348,993,cs),
(1348,850,o),
(1245,775,o),
(1042,759,c),
(1042,1176,l),
(1059,1183,o),
(1089,1188,o),
(1139,1188,cs)
);
}
);
width = 1778;
}
);
note = uni1E904;
unicode = 125188;
},
{
color = 4;
glyphname = "Sinnyiiyhe-adlam";
lastChange = "2023-03-10 21:32:22 +0000";
layers = (
{
anchors = (
{
name = bottom;
pos = (938,0);
},
{
name = gemconsonanttop;
pos = (918,1330);
},
{
name = top;
pos = (938,1330);
}
);
background = {
hints = (
{
name = _cap.UpperVertical;
options = 2;
origin = (0,19);
type = Cap;
},
{
name = _cap.UpperVertical;
options = 2;
origin = (0,28);
type = Cap;
},
{
name = _cap.UpperHorizontal;
options = 2;
origin = (1,5);
scale = (-1,1);
type = Cap;
}
);
shapes = (
{
closed = 1;
nodes = (
(804,-24,o),
(900,56,o),
(938,122,c),
(943,122,l),
(981,56,o),
(1071,-24,o),
(1273,-24,cs),
(1518,-24,o),
(1710,89,o),
(1710,408,cs),
(1710,1026,l),
(1387,1026,l),
(1384,424,ls),
(1383,291,o),
(1320,246,o),
(1235,246,cs),
(1150,246,o),
(1095,303,o),
(1095,443,cs),
(1095,869,l),
(772,869,l),
(772,424,ls),
(772,291,o),
(707,246,o),
(623,246,cs),
(538,246,o),
(483,303,o),
(483,443,cs),
(483,1284,l),
(160,1284,l),
(160,408,ls),
(160,89,o),
(336,-24,o),
(581,-24,cs)
);
},
{
closed = 1;
nodes = (
(1710,984,l),
(1710,1106,ls),
(1710,1356,o),
(1610,1474,o),
(1373,1474,cs),
(899,1474,l),
(899,1211,l),
(1283,1211,ls),
(1351,1211,o),
(1387,1172,o),
(1387,1077,cs),
(1387,984,l)
);
}
);
};
hints = (
{
name = _cap.UpperVertical;
options = 2;
origin = (0,36);
type = Cap;
},
{
name = _cap.UpperVertical;
options = 2;
origin = (0,27);
type = Cap;
},
{
name = _cap.UpperHorizontal;
options = 2;
origin = (0,14);
scale = (-1,1);
type = Cap;
}
);
layerId = "DD1D3E88-8CF6-488D-B1FD-132231471927";
shapes = (
{
closed = 1;
nodes = (
(804,-24,o),
(900,56,o),
(938,122,c),
(943,122,l),
(981,56,o),
(1071,-24,o),
(1273,-24,cs),
(1518,-24,o),
(1710,89,o),
(1710,408,cs),
(1710,1066,ls),
(1710,1316,o),
(1610,1434,o),
(1373,1434,cs),
(899,1434,l),
(899,1171,l),
(1283,1171,ls),
(1351,1171,o),
(1387,1132,o),
(1387,1037,cs),
(1384,424,ls),
(1383,291,o),
(1320,246,o),
(1235,246,cs),
(1150,246,o),
(1095,303,o),
(1095,443,cs),
(1095,849,l),
(772,849,l),
(772,424,ls),
(772,291,o),
(707,246,o),
(623,246,cs),
(538,246,o),
(483,303,o),
(483,443,cs),
(483,1284,l),
(160,1284,l),
(160,408,ls),
(160,89,o),
(336,-24,o),
(581,-24,cs)
);
}
);
width = 1870;
}
);
note = uni1E905;
unicode = 125189;
},
{
color = 3;
glyphname = "Pe-adlam";
lastChange = "2023-03-10 21:32:22 +0000";
layers = (
{
anchors = (
{
name = bottom;
pos = (670,0);
},
{
name = gemconsonanttop;
pos = (676,1330);
},
{
name = top;
pos = (694,1330);
}
);
background = {
hints = (
{
name = _cap.UpperHorizontal;
options = 2;
origin = (0,0);
type = Cap;
}
);
shapes = (
{
closed = 1;
nodes = (
(1103,0,l),
(1103,263,l),
(1013,263,l),
(1013,269,l),
(1141,351,o),
(1218,510,o),
(1218,759,cs),
(1218,955,ls),
(1218,1361,o),
(1044,1434,o),
(815,1434,cs),
(180,1434,l),
(180,164,ls),
(180,58,o),
(217,0,o),
(323,0,cs)
);
},
{
closed = 1;
nodes = (
(530,263,o),
(503,285,o),
(503,356,cs),
(503,1171,l),
(670,1171,ls),
(816,1171,o),
(895,1132,o),
(895,903,cs),
(895,698,ls),
(895,417,o),
(764,306,o),
(692,263,c),
(595,263,ls)
);
}
);
};
hints = (
{
name = _cap.UpperHorizontal;
options = 2;
origin = (0,29);
type = Cap;
}
);
layerId = "DD1D3E88-8CF6-488D-B1FD-132231471927";
shapes = (
{
closed = 1;
nodes = (
(530,263,o),
(503,285,o),
(503,356,cs),
(503,1140,l),
(543,1162,o),
(584,1171,o),
(670,1171,cs),
(816,1171,o),
(935,1092,o),
(935,913,cs),
(935,821,ls),
(935,661,o),
(882,594,o),
(781,545,c),
(920,318,l),
(1085,397,o),
(1258,549,o),
(1258,821,cs),
(1258,943,ls),
(1258,1351,o),
(924,1434,o),
(670,1434,cs),
(433,1434,o),
(249,1369,o),
(180,1316,c),
(180,164,ls),
(180,58,o),
(217,0,o),
(323,0,cs),
(1143,0,l),
(1143,263,l),
(595,263,ls)
);
}
);
width = 1402;
}
);
note = uni1E906;
unicode = 125190;
},
{
color = 4;
glyphname = "Bhe-adlam";
lastChange = "2023-03-10 21:32:22 +0000";
layers = (
{
anchors = (
{
name = bottom;
pos = (668,0);
},
{
name = gemconsonanttop;
pos = (648,1330);
},
{
name = top;
pos = (668,1330);
}
);
background = {
hints = (
{
name = _cap.UpperVertical;
options = 2;
origin = (1,1);
type = Cap;
},
{
name = _cap.UpperHorizontal;
options = 2;
origin = (2,12);
type = Cap;
}
);
shapes = (
{
closed = 1;
nodes = (
(1094,534,l),
(1094,734,l),
(412,734,l),
(412,534,l)
);
},
{
closed = 1;
nodes = (
(1205,0,l),
(1205,856,l),
(882,856,l),
(882,0,l)
);
},
{
closed = 1;
nodes = (
(506,50,o),
(665,196,o),
(665,390,cs),
(665,533,o),
(630,600,o),
(573,716,cs),
(491,881,o),
(455,940,o),
(455,1017,cs),
(455,1119,o),
(514,1171,o),
(647,1171,cs),
(1093,1171,l),
(1093,1434,l),
(617,1434,ls),
(306,1434,o),
(115,1310,o),
(115,1036,cs),
(115,929,o),
(160,841,o),
(214,733,cs),
(268,624,o),
(325,532,o),
(325,436,cs),
(325,312,o),
(235,244,o),
(165,193,c),
(385,-34,l)
);
}
);
};
hints = (
{
name = _cap.UpperVertical;
options = 2;
origin = (1,1);
type = Cap;
},
{
name = _cap.UpperHorizontal;
options = 2;
origin = (2,12);
type = Cap;
}
);
layerId = "DD1D3E88-8CF6-488D-B1FD-132231471927";
shapes = (
{
closed = 1;
nodes = (
(1094,501,l),
(1094,764,l),
(412,764,l),
(412,501,l)
);
},
{
closed = 1;
nodes = (
(1205,0,l),
(1205,856,l),
(882,856,l),
(882,0,l)
);
},
{
closed = 1;
nodes = (
(506,50,o),
(665,174,o),
(665,390,cs),
(665,533,o),
(637,600,o),
(580,716,cs),
(498,881,o),
(455,945,o),
(455,1017,cs),
(455,1119,o),
(514,1171,o),
(647,1171,cs),
(1093,1171,l),
(1093,1434,l),
(617,1434,ls),
(306,1434,o),
(115,1310,o),
(115,1036,cs),
(115,929,o),
(160,841,o),
(214,733,cs),
(268,624,o),
(325,532,o),
(325,436,cs),
(325,312,o),
(235,244,o),
(139,174,c),
(359,-53,l)
);
}
);
width = 1382;
}
);
note = uni1E907;
unicode = 125191;
},
{
color = 4;
glyphname = "Ra-adlam";
lastChange = "2023-03-10 21:32:22 +0000";
layers = (
{
anchors = (
{
name = bottom;
pos = (737,0);
},
{
name = gemconsonanttop;
pos = (717,1330);
},
{
name = top;
pos = (737,1330);
}
);
background = {
anchors = (
{
name = top;
pos = (737,1330);
}
);
hints = (
{
name = _cap.UpperVertical;
options = 2;
origin = (0,29);
type = Cap;
},
{
name = _cap.UpperVertical;
options = 2;
origin = (0,20);
type = Cap;
},
{
name = _cap.UpperHorizontal;
options = 2;
origin = (0,0);
type = Cap;
},
{
name = _cap.UpperVertical;
options = 2;
origin = (0,18);
type = Cap;
},
{
name = _cap.UpperVertical;
options = 2;
origin = (0,20);
type = Cap;
},
{
name = _cap.UpperVertical;
options = 2;
origin = (0,29);
type = Cap;
},
{
name = _cap.UpperHorizontal;
options = 2;
origin = (0,0);
type = Cap;
},
{
name = _cap.UpperVertical;
options = 2;
origin = (0,18);
type = Cap;
}
);
shapes = (
{
closed = 1;
nodes = (
(734,0,l),
(734,263,l),
(617,263,ls),
(529,263,o),
(503,297,o),
(503,387,cs),
(503,538,l),
(511,542,l),
(536,518,o),
(622,471,o),
(748,471,cs),
(902,471,o),
(958,522,o),
(975,545,c),
(982,543,l),
(982,517,o),
(982,490,o),
(982,464,cs),
(982,165,l),
(1305,165,l),
(1305,1269,l),
(982,1269,l),
(982,998,ls),
(982,791,o),
(874,741,o),
(725,741,cs),
(589,741,o),
(525,799,o),
(503,843,c),
(503,1269,l),
(180,1269,l),
(180,268,ls),
(180,68,o),
(220,0,o),
(427,0,cs)
);
}
);
};
hints = (
{
name = _cap.UpperVertical;
options = 2;
origin = (0,14);
type = Cap;
},
{
name = _cap.UpperVertical;
options = 2;
origin = (0,23);
type = Cap;
},
{
name = _cap.UpperHorizontal;
options = 2;
origin = (0,0);
type = Cap;
}
);
layerId = "DD1D3E88-8CF6-488D-B1FD-132231471927";
shapes = (
{
closed = 1;
nodes = (
(1164,0,l),
(1164,263,l),
(617,263,ls),
(529,263,o),
(503,297,o),
(503,387,cs),
(503,538,l),
(511,542,l),
(536,518,o),
(622,471,o),
(768,471,cs),
(1042,471,o),
(1305,595,o),
(1305,993,cs),
(1305,1284,l),
(982,1284,l),
(982,998,ls),
(982,791,o),
(874,741,o),
(725,741,cs),
(589,741,o),
(525,799,o),
(503,843,c),
(503,1284,l),
(180,1284,l),
(180,268,ls),
(180,68,o),
(220,0,o),
(427,0,cs)
);
}
);
width = 1455;
}
);
note = uni1E908;
unicode = 125192;
},
{
color = 4;
glyphname = "E-adlam";
lastChange = "2023-03-10 21:32:22 +0000";
layers = (
{
anchors = (
{
name = bottom;
pos = (808,0);
},
{
name = top;
pos = (808,1330);
},
{
name = "vowellengthencomb-adlam.case";
pos = (864,1064);
}
);
background = {
shapes = (
{
closed = 1;
nodes = (
(1471,539,o),
(1324,632,o),
(1128,651,c),
(1128,656,l),
(1216,702,o),
(1387,824,o),
(1387,1052,cs),
(1387,1328,o),
(1194,1458,o),
(814,1458,cs),
(389,1458,o),
(190,1275,o),
(190,847,cs),
(190,0,l),
(513,0,l),
(513,34,l),
(522,105,o),
(558,188,o),
(597,227,c),
(604,224,l),
(613,84,o),
(713,0,o),
(927,0,cs),
(1067,0,ls),
(1247,0,o),
(1471,52,o),
(1471,313,cs)
);
},
{
closed = 1;
nodes = (
(596,446,o),
(540,396,o),
(513,349,c),
(513,847,ls),
(513,1072,o),
(615,1195,o),
(815,1195,cs),
(973,1195,o),
(1047,1137,o),
(1047,1012,cs),
(1047,895,o),
(999,847,o),
(858,730,cs),
(712,609,o),
(650,517,o),
(630,468,c)
);
},
{
closed = 1;
nodes = (
(949,215,ls),
(877,215,o),
(839,263,o),
(839,343,cs),
(839,417,o),
(884,463,o),
(914,486,c),
(921,489,o),
(938,492,o),
(966,492,cs),
(1056,492,o),
(1131,434,o),
(1131,335,cs),
(1131,232,o),
(1065,215,o),
(1007,215,cs)
);
}
);
};
layerId = "DD1D3E88-8CF6-488D-B1FD-132231471927";
shapes = (
{
closed = 1;
nodes = (
(1097,0,ls),
(1277,0,o),
(1501,52,o),
(1501,313,cs),
(1501,539,o),
(1354,632,o),
(1128,651,c),
(1128,656,l),
(1192,689,o),
(1387,809,o),
(1387,1047,cs),
(1387,1328,o),
(1206,1458,o),
(828,1458,cs),
(359,1458,o),
(160,1325,o),
(160,897,cs),
(160,55,ls),
(160,31,o),
(161,25,o),
(170,11,cs),
(199,-32,o),
(238,-77,o),
(296,-128,cs),
(306,-137,o),
(313,-140,o),
(321,-140,cs),
(330,-140,o),
(336,-137,o),
(347,-128,cs),
(404,-77,o),
(444,-32,o),
(473,11,cs),
(482,25,o),
(482,31,o),
(486,54,cs),
(500,132,o),
(528,188,o),
(567,227,c),
(574,224,l),
(583,84,o),
(683,0,o),
(927,0,cs)
);
},
{
closed = 1;
nodes = (
(877,215,o),
(839,263,o),
(839,343,cs),
(839,417,o),
(884,463,o),
(914,486,c),
(921,489,o),
(938,492,o),
(966,492,cs),
(1086,492,o),
(1161,434,o),
(1161,335,cs),
(1161,232,o),
(1095,215,o),
(1037,215,cs),
(949,215,ls)
);
},
{
closed = 1;
nodes = (
(483,897,ls),
(483,1149,o),
(585,1188,o),
(815,1188,cs),
(973,1188,o),
(1047,1130,o),
(1047,1007,cs),
(1047,895,o),
(999,847,o),
(858,730,cs),
(682,609,o),
(620,517,o),
(600,468,c),
(566,446,o),
(510,396,o),
(483,349,c)
);
}
);
width = 1576;
}
);
note = uni1E909;
unicode = 125193;
},
{
color = 4;
glyphname = "Fa-adlam";
lastChange = "2023-03-10 21:32:22 +0000";
layers = (
{
anchors = (
{
name = bottom;
pos = (707,0);
},
{
name = gemconsonanttop;
pos = (687,1330);
},
{
name = top;
pos = (707,1330);
}
);
background = {
shapes = (
{
closed = 1;
nodes = (
(503,0,l),
(503,576,l),
(541,625,o),
(611,686,o),
(723,686,cs),
(848,686,o),
(916,642,o),
(916,427,cs),
(916,-299,l),
(1239,-299,l),
(1239,521,ls),
(1239,829,o),
(1111,956,o),
(844,956,cs),
(634,956,o),
(549,873,o),
(514,836,c),
(503,840,l),
(503,1047,ls),
(503,1137,o),
(529,1171,o),
(617,1171,cs),
(1183,1171,l),
(1183,1434,l),
(427,1434,ls),
(220,1434,o),
(180,1366,o),
(180,1166,cs),
(180,0,l)
);
}
);
};
hints = (
{
name = _cap.UpperVertical;
options = 2;
origin = (0,28);
type = Cap;
},
{
name = _cap.UpperHorizontal;
options = 2;
origin = (0,13);
type = Cap;
}
);
layerId = "DD1D3E88-8CF6-488D-B1FD-132231471927";
shapes = (
{
closed = 1;
nodes = (
(1239,-134,l),
(1239,521,ls),
(1239,829,o),
(1111,956,o),
(844,956,cs),
(634,956,o),
(549,873,o),
(514,836,c),
(503,840,l),
(503,1047,ls),
(503,1137,o),
(529,1171,o),
(617,1171,cs),
(1088,1171,l),
(1088,1434,l),
(427,1434,ls),
(220,1434,o),
(180,1366,o),
(180,1166,cs),
(180,0,l),
(503,0,l),
(503,576,l),
(541,625,o),
(611,686,o),
(723,686,cs),
(848,686,o),
(916,642,o),
(916,427,cs),
(916,-134,l)
);
}
);
width = 1389;
}
);
note = uni1E90A;
unicode = 125194;
},
{
color = 4;
glyphname = "I-adlam";
lastChange = "2023-03-10 21:32:22 +0000";
layers = (
{
anchors = (
{
name = bottom;
pos = (780,0);
},
{
name = top;
pos = (780,1330);
},
{
name = "vowellengthencomb-adlam.case";
pos = (872,1064);
}
);
hints = (
{
name = _cap.UpperVertical;
options = 2;
origin = (0,12);
type = Cap;
},
{
name = _cap.UpperVertical;
options = 2;
origin = (0,3);
type = Cap;
}
);
layerId = "DD1D3E88-8CF6-488D-B1FD-132231471927";
shapes = (
{
closed = 1;
nodes = (
(1147,-24,o),
(1393,107,o),
(1393,552,cs),
(1393,1284,l),
(1070,1284,l),
(1070,602,ls),
(1070,316,o),
(979,246,o),
(777,246,cs),
(576,246,o),
(483,316,o),
(483,602,cs),
(483,1284,l),
(160,1284,l),
(160,552,ls),
(160,107,o),
(375,-24,o),
(777,-24,cs)
);
}
);
width = 1553;
}
);
note = uni1E90B;
unicode = 125195;
},
{
color = 4;
glyphname = "O-adlam";
lastChange = "2023-03-10 21:32:22 +0000";
layers = (
{
anchors = (
{
name = bottom;
pos = (789,0);
},
{
name = top;
pos = (788,1330);
},
{
name = "vowellengthencomb-adlam.case";
pos = (820,1064);
}
);
background = {
hints = (
{
name = _cap.UpperHorizontal;
options = 10;
origin = (0,12);
scale = (-0.97202,-1);
type = Cap;
},
{
name = _cap.UpperHorizontal;
options = 2;
origin = (1,19);
type = Cap;
}
);
shapes = (
{
closed = 1;
nodes = (
(393,263,o),
(343,276,o),
(193,126,c),
(396,-82,l),
(480,2,o),
(520,0,o),
(717,0,cs),
(958,0,o),
(1072,0,o),
(1100,0,cs),
(1101,0,o),
(1102,0,o),
(1103,0,c),
(1146,263,l),
(1145,263,o),
(1144,263,o),
(1143,263,cs),
(1106,263,o),
(968,263,o),
(744,263,cs)
);
},
{
closed = 1;
nodes = (
(1331,1058,l),
(1275,1337,o),
(1117,1434,o),
(858,1434,cs),
(712,1434,ls),
(434,1434,o),
(120,1311,o),
(120,770,cs),
(120,521,o),
(189,346,o),
(322,231,c),
(322,227,l),
(281,207,o),
(242,175,o),
(193,126,c),
(396,-82,l),
(480,2,o),
(520,0,o),
(717,0,c),
(1164,0,l),
(1164,263,l),
(783,263,ls),
(770,263,o),
(757,263,o),
(737,263,c),
(606,277,o),
(460,410,o),
(460,770,cs),
(460,1058,o),
(556,1171,o),
(742,1171,cs),
(830,1171,ls),
(931,1171,o),
(984,1118,o),
(1016,991,c)
);
}
);
};
hints = (
{
name = _cap.UpperHorizontal;
options = 2;
origin = (0,19);
type = Cap;
}
);
layerId = "DD1D3E88-8CF6-488D-B1FD-132231471927";
shapes = (
{
closed = 1;
nodes = (
(1331,1058,l),
(1275,1337,o),
(1117,1434,o),
(858,1434,cs),
(712,1434,ls),
(434,1434,o),
(120,1311,o),
(120,770,cs),
(120,521,o),
(189,346,o),
(322,231,c),
(322,227,l),
(281,207,o),
(242,175,o),
(193,126,c),
(396,-82,l),
(480,2,o),
(520,0,o),
(717,0,cs),
(1164,0,l),
(1164,263,l),
(783,263,ls),
(770,263,o),
(757,263,o),
(737,263,c),
(606,277,o),
(460,410,o),
(460,770,cs),
(460,1058,o),
(556,1171,o),
(742,1171,cs),
(830,1171,ls),
(931,1171,o),
(984,1118,o),
(1016,991,c)
);
}
);
width = 1411;
}
);
note = uni1E90C;
unicode = 125196;
},
{
color = 4;
glyphname = "Dha-adlam";
lastChange = "2023-03-10 21:32:22 +0000";
layers = (
{
anchors = (
{
name = bottom;
pos = (811,0);
},
{
name = gemconsonanttop;
pos = (791,1330);
},
{
name = top;
pos = (811,1330);
}
);
background = {
hints = (
{
name = _cap.UpperHorizontal;
options = 2;
origin = (2,7);
type = Cap;
},
{
name = _cap.UpperVertical;
options = 2;
origin = (2,22);
type = Cap;
},
{
name = _cap.UpperHorizontal;
options = 2;
origin = (4,7);
type = Cap;
},
{
name = _cap.UpperVertical;
options = 2;
origin = (4,22);
type = Cap;
}
);
shapes = (
{
closed = 1;
nodes = (
(1397,1166,ls),
(1397,1366,o),
(1357,1434,o),
(1150,1434,cs),
(737,1434,l),
(737,1171,l),
(960,1171,ls),
(1048,1171,o),
(1074,1137,o),
(1074,1047,cs),
(1074,895,l),
(1068,892,l),
(1041,924,o),
(962,976,o),
(813,976,cs),
(632,976,o),
(538,913,o),
(510,880,c),
(503,884,l),
(503,1434,l),
(180,1434,l),
(180,534,ls),
(180,133,o),
(383,-24,o),
(707,-24,cs),
(943,-24,o),
(1038,67,o),
(1067,108,c),
(1074,106,l),
(1074,0,l),
(1397,0,l)
);
},
{
closed = 1;
nodes = (
(1074,432,l),
(1058,366,o),
(978,230,o),
(788,230,cs),
(567,230,o),
(503,368,o),
(503,544,cs),
(503,584,l),
(529,626,o),
(613,722,o),
(804,722,cs),
(976,722,o),
(1051,620,o),
(1074,559,c)
);
},
{
closed = 1;
nodes = (
(1232,-1624,o),
(1397,-1509,o),
(1397,-1177,cs),
(1397,-434,ls),
(1397,-234,o),
(1357,-166,o),
(1150,-166,cs),
(843,-166,l),
(843,-429,l),
(960,-429,ls),
(1048,-429,o),
(1074,-463,o),
(1074,-553,cs),
(1074,-688,l),
(1068,-691,l),
(1045,-669,o),
(965,-624,o),
(818,-624,cs),
(642,-624,o),
(538,-687,o),
(510,-720,c),
(503,-716,l),
(503,-296,l),
(180,-296,l),
(180,-1026,l),
(503,-1025,l),
(538,-969,o),
(623,-887,o),
(818,-887,cs),
(976,-887,o),
(1074,-964,o),
(1074,-1090,cs),
(1074,-1158,ls),
(1074,-1304,o),
(980,-1361,o),
(840,-1361,cs),
(663,-1361,o),
(556,-1306,o),
(504,-1226,c),
(357,-1402,l),
(449,-1530,o),
(623,-1624,o),
(864,-1624,cs)
);
},
{
closed = 1;
nodes = (
(503,-1600,l),
(503,-878,l),
(180,-869,l),
(180,-1600,l)
);
},
{
closed = 1;
nodes = (
(1232,-24,o),
(1397,141,o),
(1397,473,cs),
(1397,1166,ls),
(1397,1366,o),
(1357,1434,o),
(1150,1434,cs),
(843,1434,l),
(843,1171,l),
(960,1171,ls),
(1048,1171,o),
(1074,1137,o),
(1074,1047,cs),
(1074,912,l),
(1068,909,l),
(1045,931,o),
(955,976,o),
(808,976,cs),
(632,976,o),
(538,913,o),
(510,880,c),
(503,884,l),
(503,1284,l),
(180,1284,l),
(180,0,l),
(503,0,l),
(503,88,l),
(507,91,l),
(597,11,o),
(718,-24,o),
(864,-24,cs)
);
},
{
closed = 1;
nodes = (
(503,565,l),
(538,631,o),
(641,713,o),
(808,713,cs),
(966,713,o),
(1074,636,o),
(1074,510,cs),
(1074,442,ls),
(1074,296,o),
(980,239,o),
(820,239,cs),
(653,239,o),
(555,308,o),
(503,388,c)
);
}
);
};
hints = (
{
name = _cap.UpperVertical;
options = 2;
origin = (0,25);
type = Cap;
},
{
name = _cap.UpperHorizontal;
options = 2;
origin = (0,10);
type = Cap;
}
);
layerId = "DD1D3E88-8CF6-488D-B1FD-132231471927";
shapes = (
{
closed = 1;
nodes = (
(984,-24,o),
(1088,11,o),
(1129,48,c),
(1136,48,l),
(1164,0,l),
(1417,0,l),
(1417,1166,ls),
(1417,1366,o),
(1377,1434,o),
(1170,1434,cs),
(863,1434,l),
(863,1171,l),
(980,1171,ls),
(1068,1171,o),
(1094,1137,o),
(1094,1047,cs),
(1094,912,l),
(1088,909,l),
(1065,931,o),
(975,976,o),
(818,976,cs),
(632,976,o),
(538,913,o),
(510,880,c),
(503,884,l),
(503,1284,l),
(180,1284,l),
(180,0,l),
(503,0,l),
(503,78,l),
(508,80,l),
(563,11,o),
(698,-24,o),
(830,-24,cs)
);
},
{
closed = 1;
nodes = (
(503,558,l),
(546,639,o),
(641,706,o),
(818,706,cs),
(986,706,o),
(1094,629,o),
(1094,503,cs),
(1094,449,ls),
(1094,303,o),
(980,246,o),
(810,246,cs),
(653,246,o),
(534,316,o),
(503,395,c)
);
}
);
width = 1597;
}
);
note = uni1E90D;
unicode = 125197;
},
{
color = 4;
glyphname = "Yhe-adlam";
lastChange = "2023-03-10 21:32:22 +0000";
layers = (
{
anchors = (
{
name = bottom;
pos = (721,0);
},
{
name = gemconsonanttop;
pos = (639,1330);
},
{
name = top;
pos = (659,1330);
}
);
background = {
hints = (
{
name = _cap.UpperHorizontal;
options = 2;
origin = (0,0);
type = Cap;
},
{
name = _cap.UpperHorizontal;
options = 2;
origin = (0,9);
type = Cap;
}
);
shapes = (
{
closed = 1;
nodes = (
(1042,0,l),
(1042,263,l),
(720,263,ls),
(543,263,o),
(430,338,o),
(430,541,cs),
(430,766,o),
(533,852,o),
(720,852,cs),
(1037,852,l),
(1037,1115,l),
(1142,1041,l),
(987,1186,o),
(794,1358,o),
(675,1501,c),
(470,1328,l),
(510,1267,o),
(606,1164,o),
(664,1127,c),
(664,1115,l),
(344,1115,o),
(90,964,o),
(90,541,cs),
(90,108,o),
(355,0,o),
(720,0,cs)
);
}
);
};
hints = (
{
name = _cap.UpperHorizontal;
options = 2;
origin = (0,0);
type = Cap;
}
);
layerId = "DD1D3E88-8CF6-488D-B1FD-132231471927";
shapes = (
{
closed = 1;
nodes = (
(1042,0,l),
(1042,263,l),
(720,263,ls),
(543,263,o),
(430,338,o),
(430,541,cs),
(430,766,o),
(533,852,o),
(720,852,cs),
(1027,852,ls),
(1047,852,o),
(1051,852,o),
(1063,860,cs),
(1098,883,o),
(1134,916,o),
(1176,963,cs),
(1183,971,o),
(1186,977,o),
(1186,983,cs),
(1186,990,o),
(1183,995,o),
(1176,1004,cs),
(1165,1016,o),
(1153,1030,o),
(1141,1041,cs),
(987,1187,o),
(794,1358,o),
(675,1501,c),
(470,1328,l),
(510,1267,o),
(606,1164,o),
(664,1127,c),
(664,1115,l),
(344,1115,o),
(90,964,o),
(90,541,cs),
(90,108,o),
(355,0,o),
(720,0,cs)
);
}
);
width = 1271;
}
);
note = uni1E90E;
unicode = 125198;
},
{
color = 4;
glyphname = "Waw-adlam";
lastChange = "2023-06-16 17:17:44 +0000";
layers = (
{
anchors = (
{
name = bottom;
pos = (731,0);
},
{
name = gemconsonanttop;
pos = (740,1330);
},
{
name = top;
pos = (761,1330);
}
);
background = {
shapes = (
{
closed = 1;
nodes = (
(503,1037,ls),
(503,1132,o),
(539,1171,o),
(607,1171,cs),
(912,1171,l),
(912,241,ls),
(912,54,o),
(971,-17,o),
(1010,-34,c),
(1291,91,l),
(1265,117,o),
(1235,186,o),
(1235,301,cs),
(1235,1171,l),
(1371,1171,l),
(1371,1434,l),
(517,1434,ls),
(280,1434,o),
(180,1316,o),
(180,1066,cs),
(180,0,l),
(503,0,l)
);
},
{
closed = 1;
nodes = (
(555,543,ls),
(656,543,o),
(696,520,o),
(714,503,c),
(822,751,l),
(802,772,o),
(756,804,o),
(647,804,cs),
(503,804,l),
(503,543,l)
);
},
{
closed = 0;
nodes = (
(503,543,l),
(549,543,ls),
(608,543,o),
(626,525,o),
(646,509,cs),
(662,497,o),
(667,497,o),
(681,500,cs),
(723,508,o),
(769,525,o),
(827,552,cs),
(837,557,o),
(842,561,o),
(844,567,cs),
(847,574,o),
(847,580,o),
(844,591,cs),
(827,652,o),
(808,698,o),
(783,733,cs),
(744,787,o),
(663,804,o),
(567,804,cs),
(503,804,l)
);
}
);
};
hints = (
{
name = _cap.UpperHorizontal;
options = 2;
origin = (0,5);
type = Cap;
},
{
name = _cap.UpperHorizontal;
options = 10;
origin = (0,14);
scale = (1.03802,1);
type = Cap;
}
);
layerId = "DD1D3E88-8CF6-488D-B1FD-132231471927";
shapes = (
{
closed = 1;
nodes = (
(1291,91,l),
(1265,117,o),
(1235,186,o),
(1235,301,cs),
(1235,1171,l),
(1262,1171,l),
(1262,1434,l),
(517,1434,ls),
(280,1434,o),
(180,1316,o),
(180,1066,cs),
(180,0,l),
(503,0,l),
(503,541,l),
(688,541,l),
(688,814,l),
(503,814,l),
(503,1037,ls),
(503,1132,o),
(539,1171,o),
(607,1171,cs),
(912,1171,l),
(912,241,ls),
(912,54,o),
(971,-17,o),
(1011,-34,c)
);
}
);
width = 1471;
}
);
note = uni1E90F;
unicode = 125199;
},
{
color = 4;
glyphname = "Nun-adlam";
lastChange = "2023-03-10 21:32:22 +0000";
layers = (
{
anchors = (
{
name = bottom;
pos = (729,0);
},
{
name = gemconsonanttop;
pos = (717,1330);
},
{
name = top;
pos = (737,1330);
}
);
background = {
hints = (
{
name = _cap.UpperHorizontal;
options = 2;
origin = (0,0);
type = Cap;
},
{
name = _cap.UpperHorizontal;
options = 10;
origin = (0,19);
scale = (1.06469,1);
type = Cap;
}
);
shapes = (
{
closed = 1;
nodes = (
(715,0,l),
(715,263,l),
(604,263,ls),
(467,263,o),
(420,318,o),
(420,415,cs),
(420,559,o),
(529,614,o),
(803,688,cs),
(1110,770,o),
(1278,849,o),
(1278,1092,cs),
(1278,1333,o),
(1125,1434,o),
(848,1434,cs),
(628,1434,ls),
(376,1434,o),
(295,1357,o),
(223,1285,cs),
(220,1282,l),
(418,1084,l),
(421,1087,ls),
(459,1125,o),
(502,1171,o),
(628,1171,cs),
(801,1171,ls),
(907,1171,o),
(938,1139,o),
(938,1087,cs),
(938,1014,o),
(888,993,o),
(639,926,cs),
(240,819,o),
(80,676,o),
(80,386,cs),
(80,144,o),
(221,0,o),
(496,0,cs)
);
},
{
closed = 1;
nodes = (
(1298,91,l),
(1272,117,o),
(1242,186,o),
(1242,301,cs),
(1242,632,l),
(939,632,l),
(939,241,ls),
(939,54,o),
(998,-17,o),
(1038,-34,c)
);
}
);
};
guides = (
{
pos = (537,1286);
}
);
hints = (
{
name = _cap.UpperHorizontal;
options = 2;
origin = (0,0);
type = Cap;
}
);
layerId = "DD1D3E88-8CF6-488D-B1FD-132231471927";
shapes = (
{
closed = 1;
nodes = (
(715,0,l),
(715,263,l),
(604,263,ls),
(467,263,o),
(420,318,o),
(420,415,cs),
(420,559,o),
(529,614,o),
(803,688,cs),
(1110,770,o),
(1278,849,o),
(1278,1092,cs),
(1278,1333,o),
(1125,1434,o),
(848,1434,cs),
(628,1434,ls),
(376,1434,o),
(295,1357,o),
(223,1285,cs),
(213,1275,o),
(210,1271,o),
(208,1258,cs),
(200,1215,o),
(200,1165,o),
(205,1100,cs),
(206,1089,o),
(208,1083,o),
(213,1078,cs),
(219,1072,o),
(224,1070,o),
(236,1069,cs),
(301,1064,o),
(351,1065,o),
(394,1072,cs),
(408,1074,o),
(411,1077,o),
(421,1087,cs),
(459,1125,o),
(502,1171,o),
(628,1171,cs),
(801,1171,ls),
(907,1171,o),
(938,1139,o),
(938,1087,cs),
(938,1014,o),
(888,993,o),
(639,926,cs),
(240,819,o),
(80,676,o),
(80,386,cs),
(80,144,o),
(221,0,o),
(496,0,cs)
);
},
{
closed = 1;
nodes = (
(1298,91,l),
(1272,117,o),
(1242,186,o),
(1242,301,cs),
(1242,632,l),
(939,632,l),
(939,241,ls),
(939,54,o),
(998,-17,o),
(1038,-34,c)
);
}
);
width = 1438;
}
);
note = uni1E910;
unicode = 125200;
},
{
color = 4;
glyphname = "Kaf-adlam";
lastChange = "2023-03-10 21:32:22 +0000";
layers = (
{
anchors = (
{
name = bottom;
pos = (743,0);
},
{
name = gemconsonanttop;
pos = (723,1330);
},
{
name = top;
pos = (743,1330);
}
);
background = {
shapes = (
{
closed = 1;
nodes = (
(1425,0,l),
(1426,1166,ls),
(1426,1366,o),
(1386,1434,o),
(1179,1434,cs),
(83,1434,l),
(83,1171,l),
(989,1171,ls),
(1077,1171,o),
(1103,1137,o),
(1103,1047,cs),
(1103,0,l)
);
},
{
closed = 1;
nodes = (
(561,0,ls),
(768,0,o),
(808,68,o),
(808,268,cs),
(808,1010,l),
(485,1010,l),
(485,387,ls),
(485,297,o),
(459,263,o),
(371,263,cs),
(78,263,l),
(78,0,l)
);
},
{
closed = 1;
nodes = (
(1311,541,l),
(1310,804,l),
(246,804,l),
(246,541,l)
);
}
);
};
hints = (
{
name = _cap.UpperVertical;
options = 2;
origin = (0,20);
type = Cap;
},
{
name = _cap.UpperHorizontal;
options = 2;
origin = (0,12);
type = Cap;
},
{
name = _cap.UpperHorizontal;
options = 2;
origin = (0,23);
type = Cap;
},
{
name = _cap.UpperHorizontal;
options = 2;
origin = (0,30);
type = Cap;
}
);
layerId = "DD1D3E88-8CF6-488D-B1FD-132231471927";
shapes = (
{
closed = 1;
nodes = (
(561,0,ls),
(768,0,o),
(808,68,o),
(808,268,cs),
(808,541,l),
(1103,541,l),
(1103,0,l),
(1425,0,l),
(1426,1166,ls),
(1426,1366,o),
(1386,1434,o),
(1179,1434,cs),
(219,1434,l),
(219,1171,l),
(989,1171,ls),
(1077,1171,o),
(1103,1137,o),
(1103,1047,cs),
(1103,804,l),
(808,804,l),
(808,885,l),
(485,885,l),
(485,804,l),
(382,804,l),
(382,541,l),
(485,541,l),
(485,387,ls),
(485,297,o),
(459,263,o),
(371,263,cs),
(214,263,l),
(214,0,l)
);
}
);
width = 1606;
}
);
note = uni1E911;
unicode = 125201;
},
{
color = 4;
glyphname = "Ya-adlam";
lastChange = "2023-03-10 21:32:22 +0000";
layers = (
{
anchors = (
{
name = bottom;
pos = (642,0);
},
{
name = gemconsonanttop;
pos = (622,1330);
},
{
name = top;
pos = (642,1330);
}
);
background = {
hints = (
{
name = _cap.UpperVertical;
options = 10;
origin = (0,0);
scale = (1.03987,1);
type = Cap;
},
{
name = _cap.UpperHorizontal;
options = 2;
origin = (1,7);
type = Cap;
},
{
name = _cap.UpperHorizontal;
options = 2;
origin = (1,27);
type = Cap;
},
{
name = _cap.UpperHorizontal;
options = 10;
origin = (1,40);
type = Cap;
}
);
shapes = (
{
closed = 1;
nodes = (
(230,2089,l),
(422,1896,l),
(428,1902,l),
(461,1945,o),
(503,1973,o),
(596,1973,cs),
(919,1973,ls),
(1078,1973,o),
(1144,1938,o),
(1144,1831,cs),
(1144,1727,o),
(1364,1749,o),
(1364,1930,cs),
(1364,2139,o),
(1243,2235,o),
(998,2235,cs),
(572,2235,ls),
(409,2235,o),
(314,2183,o),
(235,2095,c)
);
},
{
closed = 1;
nodes = (
(559,633,ls),
(781,610,o),
(873,543,o),
(873,406,cs),
(873,305,o),
(836,263,o),
(666,263,cs),
(304,263,l),
(304,0,l),
(716,0,ls),
(1057,0,o),
(1213,93,o),
(1213,379,cs),
(1213,655,o),
(1061,750,o),
(945,784,c),
(945,794,l),
(993,812,o),
(1155,887,o),
(1155,1107,cs),
(1155,1303,o),
(1000,1434,o),
(776,1434,cs),
(584,1434,ls),
(393,1434,o),
(298,1360,o),
(219,1270,c),
(217,1268,l),
(401,1081,l),
(405,1085,l),
(451,1130,o),
(490,1172,o),
(577,1172,cs),
(676,1172,ls),
(750,1172,o),
(815,1132,o),
(815,1040,cs),
(815,948,o),
(750,874,o),
(603,886,cs),
(266,914,l),
(235,667,l)
);
}
);
};
hints = (
{
name = _cap.UpperHorizontal;
options = 2;
origin = (0,32);
type = Cap;
},
{
name = _cap.UpperHorizontal;
options = 2;
origin = (0,14);
type = Cap;
},
{
name = _cap.UpperHorizontal;
options = 10;
origin = (0,23);
scale = (0.97239,1);
type = Cap;
}
);
layerId = "DD1D3E88-8CF6-488D-B1FD-132231471927";
shapes = (
{
closed = 1;
nodes = (
(716,0,ls),
(1057,0,o),
(1213,93,o),
(1213,379,cs),
(1213,635,o),
(1071,750,o),
(965,784,c),
(965,794,l),
(1013,812,o),
(1175,887,o),
(1175,1107,cs),
(1175,1314,o),
(1020,1434,o),
(645,1434,cs),
(276,1434,l),
(276,1172,l),
(645,1172,ls),
(770,1172,o),
(835,1122,o),
(835,1040,cs),
(835,958,o),
(770,861,o),
(623,886,cs),
(307,940,l),
(258,689,l),
(579,633,ls),
(811,593,o),
(873,533,o),
(873,406,cs),
(873,305,o),
(836,263,o),
(666,263,cs),
(214,263,l),
(214,0,l)
);
}
);
width = 1343;
}
);
note = uni1E912;
unicode = 125202;
},
{
color = 4;
glyphname = "U-adlam";
lastChange = "2023-03-10 21:32:22 +0000";
layers = (
{
anchors = (
{
name = bottom;
pos = (843,0);
},
{
name = top;
pos = (843,1330);
},
{
name = "vowellengthencomb-adlam.case";
pos = (918,1064);
}
);
background = {
shapes = (
{
closed = 1;
nodes = (
(1262,-24,o),
(1490,87,o),
(1490,482,cs),
(1490,1434,l),
(1167,1434,l),
(1167,520,ls),
(1167,275,o),
(1059,239,o),
(843,239,cs),
(650,239,o),
(483,275,o),
(483,520,cs),
(483,1113,l),
(495,1141,o),
(539,1184,o),
(629,1184,cs),
(757,1184,o),
(842,1098,o),
(842,1027,cs),
(842,1002,o),
(821,964,o),
(771,876,cs),
(557,499,l),
(783,368,l),
(1017,777,ls),
(1088,901,o),
(1127,986,o),
(1127,1027,cs),
(1127,1294,o),
(859,1458,o),
(615,1458,cs),
(322,1458,o),
(196,1333,o),
(160,1263,c),
(160,482,ls),
(160,87,o),
(401,-24,o),
(843,-24,cs)
);
},
{
closed = 1;
nodes = (
(1080,888,o),
(1142,1005,o),
(1197,1031,c),
(1198,1277,l),
(1141,1236,o),
(1111,1203,o),
(1085,1158,c),
(1017,777,l)
);
}
);
};
hints = (
{
name = _cap.UpperVertical;
options = 2;
origin = (0,3);
type = Cap;
}
);
layerId = "DD1D3E88-8CF6-488D-B1FD-132231471927";
shapes = (
{
closed = 1;
nodes = (
(1262,-24,o),
(1490,87,o),
(1490,482,cs),
(1490,1284,l),
(1167,1284,l),
(1167,1230,l),
(1140,1204,o),
(1115,1174,o),
(1105,1155,c),
(1033,1352,o),
(809,1458,o),
(615,1458,cs),
(322,1458,o),
(196,1333,o),
(160,1263,c),
(160,482,ls),
(160,87,o),
(401,-24,o),
(843,-24,cs)
);
},
{
closed = 1;
nodes = (
(483,1117,l),
(495,1145,o),
(539,1188,o),
(629,1188,cs),
(757,1188,o),
(842,1102,o),
(842,1027,cs),
(842,1002,o),
(821,964,o),
(771,876,cs),
(557,499,l),
(783,368,l),
(1036,810,ls),
(1102,925,o),
(1138,980,o),
(1167,999,c),
(1167,527,ls),
(1167,282,o),
(1059,246,o),
(843,246,cs),
(650,246,o),
(483,282,o),
(483,527,cs)
);
}
);
width = 1650;
}
);
note = uni1E913;
unicode = 125203;
},
{
color = 4;
glyphname = "Jiim-adlam";
lastChange = "2023-03-10 21:32:22 +0000";
layers = (
{
anchors = (
{
name = bottom;
pos = (904,0);
},
{
name = gemconsonanttop;
pos = (995,1330);
},
{
name = top;
pos = (1013,1330);
}
);
background = {
shapes = (
{
closed = 1;
nodes = (
(1184,1288,o),
(1081,1174,o),
(1049,1108,c),
(1038,1108,l),
(1007,1251,o),
(931,1458,o),
(605,1458,cs),
(303,1458,o),
(130,1300,o),
(130,938,cs),
(130,500,l),
(453,500,l),
(453,869,ls),
(453,1118,o),
(497,1188,o),
(617,1188,cs),
(720,1188,o),
(780,1122,o),
(780,869,cs),
(780,387,ls),
(780,297,o),
(754,263,o),
(666,263,cs),
(130,263,l),
(130,0,l),
(856,0,ls),
(1063,0,o),
(1103,68,o),
(1103,268,cs),
(1103,698,ls),
(1103,927,o),
(1157,1018,o),
(1294,1018,cs),
(1417,1018,o),
(1460,936,o),
(1460,699,cs),
(1460,372,ls),
(1460,205,o),
(1413,87,o),
(1350,38,c),
(1603,-119,l),
(1714,-37,o),
(1783,121,o),
(1783,372,cs),
(1783,838,ls),
(1783,1140,o),
(1665,1288,o),
(1407,1288,cs)
);
},
{
closed = 1;
nodes = (
(1424,149,l),
(1405,98,o),
(1379,61,o),
(1350,38,c),
(1603,-119,l),
(1638,-93,o),
(1669,-59,o),
(1695,-17,c)
);
}
);
};
hints = (
{
name = _cap.UpperVertical;
options = 2;
origin = (0,41);
type = Cap;
},
{
name = _cap.UpperHorizontal;
options = 2;
origin = (0,21);
type = Cap;
},
{
name = _cap.UpperVertical;
options = 2;
origin = (0,8);
type = Cap;
}
);
layerId = "DD1D3E88-8CF6-488D-B1FD-132231471927";
shapes = (
{
closed = 1;
nodes = (
(493,48,l),
(493,966,ls),
(493,1118,o),
(537,1188,o),
(637,1188,cs),
(720,1188,o),
(780,1118,o),
(780,966,cs),
(780,573,l),
(1103,573,l),
(1103,799,ls),
(1103,947,o),
(1157,1038,o),
(1250,1038,cs),
(1347,1038,o),
(1390,956,o),
(1390,800,cs),
(1390,387,ls),
(1390,297,o),
(1364,263,o),
(1276,263,cs),
(765,263,l),
(765,0,l),
(1466,0,ls),
(1674,0,o),
(1713,68,o),
(1713,268,cs),
(1713,858,ls),
(1713,1160,o),
(1595,1308,o),
(1336,1308,cs),
(1147,1308,o),
(1062,1216,o),
(1039,1172,c),
(1028,1172,l),
(1008,1253,o),
(928,1458,o),
(630,1458,cs),
(343,1458,o),
(170,1300,o),
(170,938,cs),
(170,48,l)
);
}
);
width = 1873;
}
);
note = uni1E914;
unicode = 125204;
},
{
color = 4;
glyphname = "Chi-adlam";
lastChange = "2023-03-10 21:32:22 +0000";
layers = (
{
anchors = (
{
name = bottom;
pos = (731,0);
},
{
name = gemconsonanttop;
pos = (712,1330);
},
{
name = top;
pos = (731,1330);
}
);
background = {
hints = (
{
name = _cap.UpperHorizontal;
options = 2;
origin = (0,6);
type = Cap;
},
{
name = _cap.UpperHorizontal;
options = 10;
origin = (2,0);
scale = (0.94421,1);
type = Cap;
}
);
shapes = (
{
closed = 1;
nodes = (
(1000,0,l),
(1323,0,l),
(1323,1166,ls),
(1323,1366,o),
(1283,1434,o),
(1076,1434,cs),
(313,1434,l),
(313,1171,l),
(886,1171,ls),
(974,1171,o),
(1000,1137,o),
(1000,1047,cs)
);
},
{
closed = 1;
nodes = (
(1216,830,l),
(749,860,o),
(483,914,o),
(370,1080,c),
(177,888,l),
(320,681,o),
(606,617,o),
(1166,570,c)
);
},
{
closed = 1;
nodes = (
(737,0,l),
(737,263,l),
(641,263,ls),
(547,263,o),
(470,302,o),
(470,450,cs),
(470,584,o),
(586,672,o),
(700,672,c),
(622,800,l),
(596,800,l),
(352,774,o),
(130,651,o),
(130,383,cs),
(130,134,o),
(287,0,o),
(546,0,cs)
);
}
);
};
hints = (
{
name = _cap.UpperHorizontal;
options = 2;
origin = (0,33);
type = Cap;
},
{
name = _cap.UpperHorizontal;
options = 10;
origin = (0,15);
type = Cap;
}
);
layerId = "DD1D3E88-8CF6-488D-B1FD-132231471927";
shapes = (
{
closed = 1;
nodes = (
(1000,847,l),
(686,870,o),
(471,938,o),
(370,1080,c),
(177,888,l),
(221,824,o),
(279,774,o),
(365,736,c),
(365,732,l),
(221,667,o),
(130,554,o),
(130,383,cs),
(130,134,o),
(287,0,o),
(546,0,cs),
(737,0,l),
(737,263,l),
(641,263,ls),
(547,263,o),
(470,302,o),
(470,450,cs),
(470,542,o),
(525,612,o),
(596,647,c),
(708,618,o),
(841,598,o),
(1000,585,c),
(1000,0,l),
(1323,0,l),
(1323,1166,ls),
(1323,1366,o),
(1283,1434,o),
(1076,1434,cs),
(313,1434,l),
(313,1171,l),
(886,1171,ls),
(974,1171,o),
(1000,1137,o),
(1000,1047,cs)
);
}
);
width = 1503;
}
);
note = uni1E915;
unicode = 125205;
},
{
color = 4;
glyphname = "Ha-adlam";
lastChange = "2023-03-10 21:32:22 +0000";
layers = (
{
anchors = (
{
name = bottom;
pos = (582,0);
},
{
name = gemconsonanttop;
pos = (552,1330);
},
{
name = top;
pos = (582,1330);
}
);
background = {
hints = (
{
name = _cap.UpperHorizontal;
options = 2;
origin = (0,14);
type = Cap;
},
{
name = _cap.UpperHorizontal;
options = 10;
origin = (1,12);
scale = (0.97202,1);
type = Cap;
}
);
shapes = (
{
closed = 1;
nodes = (
(552,0,ls),
(980,0,o),
(1203,123,o),
(1203,664,cs),
(1203,1100,o),
(950,1308,o),
(540,1308,c),
(540,1131,l),
(680,1146,o),
(863,1027,o),
(863,664,cs),
(863,376,o),
(767,263,o),
(551,263,cs),
(227,263,l),
(227,0,l)
);
},
{
closed = 1;
nodes = (
(930,1131,o),
(980,1158,o),
(1130,1308,c),
(927,1516,l),
(843,1432,o),
(803,1394,o),
(606,1394,cs),
(365,1394,o),
(261,1426,o),
(233,1430,cs),
(232,1430,o),
(231,1430,o),
(230,1430,c),
(187,1178,l),
(188,1178,o),
(189,1177,o),
(190,1177,cs),
(227,1163,o),
(355,1131,o),
(579,1131,cs)
);
}
);
};
hints = (
{
name = _cap.UpperHorizontal;
options = 2;
origin = (0,48);
type = Cap;
}
);
layerId = "DD1D3E88-8CF6-488D-B1FD-132231471927";
shapes = (
{
closed = 1;
nodes = (
(552,0,ls),
(980,0,o),
(1203,123,o),
(1203,664,cs),
(1203,900,o),
(1125,1072,o),
(973,1177,c),
(973,1183,l),
(1031,1205,o),
(1073,1244,o),
(1130,1308,c),
(927,1516,l),
(843,1432,o),
(803,1394,o),
(606,1394,cs),
(365,1394,o),
(261,1426,o),
(233,1430,cs),
(222,1432,o),
(216,1432,o),
(203,1427,cs),
(165,1411,o),
(124,1386,o),
(75,1348,cs),
(67,1342,o),
(61,1334,o),
(60,1327,cs),
(59,1320,o),
(62,1310,o),
(68,1301,cs),
(102,1249,o),
(132,1212,o),
(163,1183,cs),
(173,1173,o),
(182,1172,o),
(191,1169,cs),
(236,1156,o),
(340,1128,o),
(540,1124,cs),
(555,1124,o),
(567,1124,o),
(587,1124,c),
(718,1110,o),
(863,981,o),
(863,664,cs),
(863,376,o),
(767,263,o),
(551,263,cs),
(227,263,l),
(227,0,l)
);
}
);
width = 1333;
}
);
note = uni1E916;
unicode = 125206;
},
{
color = 5;
glyphname = "Qaaf-adlam";
lastChange = "2023-03-10 21:32:22 +0000";
layers = (
{
anchors = (
{
name = bottom;
pos = (767,0);
},
{
name = gemconsonanttop;
pos = (747,1330);
},
{
name = top;
pos = (767,1330);
}
);
background = {
anchors = (
{
name = top;
pos = (862,1330);
}
);
hints = (
{
name = _cap.UpperVertical;
options = 2;
origin = (3,3);
type = Cap;
},
{
name = _cap.UpperHorizontal;
options = 2;
origin = (2,0);
type = Cap;
},
{
name = _cap.UpperVertical;
options = 10;
origin = (0,15);
scale = (0.96904,1);
type = Cap;
},
{
name = _cap.UpperHorizontal;
options = 2;
origin = (0,0);
type = Cap;
},
{
name = _cap.UpperHorizontal;
options = 2;
origin = (4,0);
type = Cap;
},
{
name = _cap.UpperVertical;
options = 10;
origin = (5,3);
scale = (0.96904,1);
type = Cap;
},
{
name = _cap.UpperHorizontal;
options = 2;
origin = (6,0);
type = Cap;
},
{
name = _cap.UpperVertical;
options = 10;
origin = (6,15);
scale = (0.96904,1);
type = Cap;
}
);
shapes = (
{
closed = 1;
nodes = (
(1243,-3070,l),
(1243,-2807,l),
(692,-2807,ls),
(548,-2807,o),
(470,-2740,o),
(470,-2619,cs),
(470,-2504,o),
(531,-2432,o),
(610,-2414,c),
(665,-2422,o),
(725,-2427,o),
(789,-2427,cs),
(1236,-2427,o),
(1388,-2248,o),
(1388,-2008,cs),
(1388,-1786,l),
(1075,-1786,l),
(1075,-1826,o),
(1076,-1841,o),
(1081,-1864,c),
(1075,-1866,l),
(952,-1707,o),
(767,-1636,o),
(562,-1636,cs),
(306,-1636,o),
(140,-1766,o),
(140,-2007,cs),
(140,-2113,o),
(204,-2239,o),
(356,-2317,c),
(356,-2328,l),
(240,-2373,o),
(130,-2491,o),
(130,-2669,cs),
(130,-2950,o),
(293,-3070,o),
(691,-3070,cs)
);
},
{
closed = 1;
nodes = (
(601,-2164,o),
(480,-2089,o),
(480,-1999,cs),
(480,-1933,o),
(536,-1899,o),
(615,-1899,cs),
(734,-1899,o),
(898,-1961,o),
(1059,-2121,c),
(1043,-2140,o),
(961,-2164,o),
(797,-2164,cs)
);
},
{
closed = 1;
nodes = (
(1243,-1470,l),
(1243,-1207,l),
(692,-1207,ls),
(518,-1207,o),
(470,-1140,o),
(470,-1019,cs),
(470,-897,o),
(539,-823,o),
(625,-811,c),
(695,-643,l),
(456,-643,o),
(130,-704,o),
(130,-1059,cs),
(130,-1350,o),
(293,-1470,o),
(691,-1470,cs)
);
},
{
closed = 1;
nodes = (
(1256,-827,o),
(1383,-648,o),
(1383,-448,cs),
(1383,-166,l),
(1065,-166,l),
(1065,-399,ls),
(1065,-479,o),
(1040,-564,o),
(797,-564,cs),
(601,-564,o),
(463,-491,o),
(463,-397,cs),
(463,-336,o),
(501,-300,o),
(583,-299,cs),
(702,-298,o),
(826,-362,o),
(997,-557,c),
(1163,-400,l),
(985,-135,o),
(782,-36,o),
(542,-36,cs),
(296,-36,o),
(140,-176,o),
(140,-375,cs),
(140,-617,o),
(355,-827,o),
(789,-827,cs)
);
},
{
closed = 1;
nodes = (
(1283,1630,l),
(1283,1893,l),
(692,1893,ls),
(548,1893,o),
(470,1963,o),
(470,2084,cs),
(470,2199,o),
(531,2268,o),
(609,2292,c),
(356,2393,l),
(356,2382,l),
(240,2337,o),
(130,2219,o),
(130,2031,cs),
(130,1770,o),
(293,1630,o),
(691,1630,cs)
);
},
{
closed = 1;
nodes = (
(1236,2273,o),
(1428,2314,o),
(1428,2475,cs),
(1428,2914,l),
(1115,2914,l),
(1115,2621,ls),
(1115,2549,o),
(1054,2536,o),
(837,2536,cs),
(551,2536,o),
(480,2644,o),
(480,2725,cs),
(480,2790,o),
(528,2825,o),
(585,2825,cs),
(690,2825,o),
(809,2737,o),
(1040,2508,c),
(1211,2681,l),
(915,2983,o),
(759,3088,o),
(522,3088,cs),
(346,3088,o),
(140,2988,o),
(140,2730,cs),
(140,2513,o),
(345,2273,o),
(839,2273,cs)
);
},
{
closed = 1;
nodes = (
(1283,0,l),
(1283,263,l),
(712,263,ls),
(558,263,o),
(470,343,o),
(470,479,cs),
(470,599,o),
(539,674,o),
(633,689,c),
(667,683,o),
(735,673,o),
(839,673,cs),
(1186,673,o),
(1428,732,o),
(1428,892,cs),
(1428,1284,l),
(1115,1284,l),
(1115,1031,ls),
(1115,959,o),
(1054,936,o),
(837,936,cs),
(551,936,o),
(480,1024,o),
(480,1088,cs),
(480,1153,o),
(528,1188,o),
(585,1188,cs),
(690,1188,o),
(810,1105,o),
(907,1001,c),
(1078,1174,l),
(915,1353,o),
(759,1458,o),
(522,1458,cs),
(346,1458,o),
(140,1358,o),
(140,1100,cs),
(140,925,o),
(274,825,o),
(357,784,c),
(357,773,l),
(250,737,o),
(130,637,o),
(130,424,cs),
(130,148,o),
(303,0,o),
(711,0,cs)
);
}
);
};
hints = (
{
name = _cap.UpperVertical;
options = 10;
origin = (0,15);
type = Cap;
},
{
name = _cap.UpperHorizontal;
options = 2;
origin = (0,0);
type = Cap;
}
);
layerId = "DD1D3E88-8CF6-488D-B1FD-132231471927";
shapes = (
{
closed = 1;
nodes = (
(1263,0,l),
(1263,263,l),
(712,263,ls),
(558,263,o),
(470,343,o),
(470,479,cs),
(470,599,o),
(539,674,o),
(633,689,c),
(667,683,o),
(735,673,o),
(839,673,cs),
(1156,673,o),
(1408,742,o),
(1408,902,cs),
(1408,1284,l),
(1085,1284,l),
(1085,1031,ls),
(1085,959,o),
(1024,936,o),
(837,936,cs),
(551,936,o),
(480,1024,o),
(480,1088,cs),
(480,1153,o),
(528,1188,o),
(585,1188,cs),
(660,1188,o),
(780,1105,o),
(877,1001,c),
(1048,1174,l),
(885,1353,o),
(729,1458,o),
(522,1458,cs),
(346,1458,o),
(140,1358,o),
(140,1100,cs),
(140,925,o),
(275,818,o),
(357,784,c),
(357,773,l),
(250,737,o),
(130,627,o),
(130,424,cs),
(130,148,o),
(303,0,o),
(711,0,cs)
);
}
);
width = 1542;
}
);
note = uni1E904;
unicode = 125207;
},
{
color = 4;
glyphname = "Ga-adlam";
lastChange = "2023-03-10 21:32:22 +0000";
layers = (
{
anchors = (
{
name = bottom;
pos = (672,0);
},
{
name = gemconsonanttop;
pos = (655,1330);
},
{
name = top;
pos = (672,1330);
}
);
background = {
hints = (
{
name = _cap.UpperVertical;
options = 2;
origin = (0,42);
type = Cap;
}
);
shapes = (
{
closed = 1;
nodes = (
(1120,0,o),
(1251,85,o),
(1251,380,cs),
(1251,693,o),
(1090,772,o),
(1013,794,c),
(1013,804,l),
(1124,824,o),
(1235,935,o),
(1235,1071,cs),
(1235,1136,ls),
(1235,1344,o),
(1111,1435,o),
(874,1435,cs),
(763,1435,ls),
(743,1435,o),
(738,1435,o),
(727,1427,cs),
(691,1403,o),
(656,1370,o),
(614,1323,cs),
(607,1315,o),
(604,1309,o),
(604,1303,cs),
(604,1296,o),
(607,1291,o),
(614,1282,cs),
(656,1235,o),
(692,1203,o),
(727,1179,cs),
(739,1171,o),
(743,1171,o),
(760,1171,cs),
(864,1171,o),
(912,1137,o),
(912,1057,cs),
(912,971,o),
(852,886,o),
(680,886,c),
(513,903,o),
(471,931,o),
(471,1057,cs),
(471,1284,l),
(148,1284,l),
(148,989,ls),
(148,788,o),
(234,682,o),
(570,642,cs),
(863,607,o),
(911,556,o),
(911,409,cs),
(911,293,o),
(852,263,o),
(729,263,cs),
(299,263,ls),
(279,263,o),
(275,262,o),
(263,255,cs),
(228,231,o),
(192,199,o),
(150,152,cs),
(143,144,o),
(140,138,o),
(140,132,cs),
(140,125,o),
(143,120,o),
(150,111,cs),
(192,64,o),
(228,32,o),
(263,8,cs),
(275,0,o),
(279,0,o),
(299,0,cs),
(787,0,ls)
);
}
);
};
hints = (
{
name = _cap.UpperVertical;
options = 2;
origin = (0,43);
type = Cap;
}
);
layerId = "DD1D3E88-8CF6-488D-B1FD-132231471927";
shapes = (
{
closed = 1;
nodes = (
(1160,0,o),
(1291,85,o),
(1291,380,cs),
(1291,693,o),
(1130,772,o),
(1053,794,c),
(1053,804,l),
(1164,824,o),
(1275,935,o),
(1275,1071,cs),
(1275,1135,ls),
(1275,1343,o),
(1151,1434,o),
(914,1434,cs),
(763,1434,ls),
(743,1434,o),
(738,1434,o),
(727,1426,cs),
(691,1402,o),
(656,1369,o),
(614,1322,cs),
(607,1314,o),
(604,1308,o),
(604,1302,cs),
(604,1295,o),
(607,1290,o),
(614,1281,cs),
(656,1234,o),
(692,1203,o),
(727,1179,cs),
(739,1171,o),
(743,1171,o),
(760,1171,cs),
(805,1171,ls),
(905,1171,o),
(952,1139,o),
(952,1057,cs),
(952,971,o),
(892,882,o),
(720,882,c),
(513,899,o),
(471,928,o),
(471,1057,cs),
(471,1284,l),
(148,1284,l),
(148,989,ls),
(148,788,o),
(234,682,o),
(570,642,cs),
(903,607,o),
(951,556,o),
(951,409,cs),
(951,293,o),
(892,263,o),
(769,263,cs),
(299,263,ls),
(279,263,o),
(275,262,o),
(263,255,cs),
(228,231,o),
(192,199,o),
(150,152,cs),
(143,144,o),
(140,138,o),
(140,132,cs),
(140,125,o),
(143,120,o),
(150,111,cs),
(192,64,o),
(228,32,o),
(263,8,cs),
(275,0,o),
(279,0,o),
(299,0,cs),
(827,0,ls)
);
}
);
width = 1421;
}
);
note = uni1E918;
unicode = 125208;
},
{
color = 4;
glyphname = "Nya-adlam";
lastChange = "2023-03-10 21:32:22 +0000";
layers = (
{
anchors = (
{
name = bottom;
pos = (724,0);
},
{
name = gemconsonanttop;
pos = (705,1330);
},
{
name = top;
pos = (724,1330);
}
);
background = {
hints = (
{
name = _cap.UpperHorizontal;
options = 2;
origin = (0,0);
type = Cap;
},
{
name = _cap.UpperVertical;
options = 2;
origin = (0,12);
type = Cap;
},
{
name = _cap.UpperHorizontal;
options = 10;
origin = (0,28);
scale = (1.04053,1);
type = Cap;
}
);
shapes = (
{
closed = 1;
nodes = (
(723,0,l),
(723,263,l),
(640,263,ls),
(516,263,o),
(440,316,o),
(440,421,cs),
(440,572,o),
(531,647,o),
(672,663,c),
(923,592,o),
(1022,565,o),
(1022,234,cs),
(1022,48,l),
(1345,48,l),
(1345,294,ls),
(1345,749,o),
(1169,802,o),
(827,909,cs),
(554,994,o),
(487,1016,o),
(487,1088,cs),
(487,1150,o),
(548,1171,o),
(660,1171,cs),
(802,1171,ls),
(914,1171,o),
(934,1159,o),
(999,1094,cs),
(1007,1086,l),
(1202,1278,l),
(1194,1286,ls),
(1111,1369,o),
(1045,1434,o),
(797,1434,cs),
(620,1434,ls),
(335,1434,o),
(147,1302,o),
(147,1081,cs),
(147,892,o),
(257,809,o),
(358,765,c),
(358,756,l),
(242,713,o),
(100,605,o),
(100,379,cs),
(100,107,o),
(302,0,o),
(608,0,cs)
);
}
);
};
hints = (
{
name = _cap.UpperHorizontal;
options = 2;
origin = (0,0);
type = Cap;
},
{
name = _cap.UpperVertical;
options = 2;
origin = (0,12);
type = Cap;
}
);
layerId = "DD1D3E88-8CF6-488D-B1FD-132231471927";
shapes = (
{
closed = 1;
nodes = (
(723,0,l),
(723,263,l),
(640,263,ls),
(516,263,o),
(440,316,o),
(440,421,cs),
(440,572,o),
(531,647,o),
(672,663,c),
(923,592,o),
(1022,565,o),
(1022,234,cs),
(1022,48,l),
(1345,48,l),
(1345,294,ls),
(1345,749,o),
(1169,802,o),
(827,909,cs),
(554,994,o),
(487,1016,o),
(487,1088,cs),
(487,1150,o),
(548,1171,o),
(660,1171,cs),
(802,1171,ls),
(914,1171,o),
(934,1159,o),
(999,1094,cs),
(1014,1079,o),
(1018,1076,o),
(1031,1073,cs),
(1074,1065,o),
(1123,1064,o),
(1187,1068,cs),
(1198,1069,o),
(1204,1070,o),
(1209,1075,cs),
(1215,1081,o),
(1216,1086,o),
(1217,1098,cs),
(1223,1162,o),
(1221,1211,o),
(1214,1254,cs),
(1212,1268,o),
(1208,1274,o),
(1194,1290,cs),
(1140,1350,o),
(1060,1434,o),
(797,1434,cs),
(620,1434,ls),
(335,1434,o),
(147,1302,o),
(147,1081,cs),
(147,892,o),
(257,809,o),
(358,765,c),
(358,756,l),
(242,713,o),
(100,605,o),
(100,379,cs),
(100,107,o),
(302,0,o),
(608,0,cs)
);
}
);
width = 1465;
}
);
note = uni1E919;
unicode = 125209;
},
{
color = 4;
glyphname = "Tu-adlam";
lastChange = "2023-03-10 21:32:22 +0000";
layers = (
{
anchors = (
{
name = bottom;
pos = (954,0);
},
{
name = gemconsonanttop;
pos = (934,1330);
},
{
name = top;
pos = (954,1330);
}
);
background = {
shapes = (
{
closed = 1;
nodes = (
(1197,263,ls),
(1131,263,o),
(1105,285,o),
(1105,356,cs),
(1105,975,l),
(1112,1113,o),
(1177,1188,o),
(1288,1188,cs),
(1394,1188,o),
(1458,1115,o),
(1458,889,cs),
(1458,828,ls),
(1458,679,o),
(1427,571,o),
(1372,509,c),
(1647,380,l),
(1727,468,o),
(1781,633,o),
(1781,855,cs),
(1781,1021,ls),
(1781,1342,o),
(1620,1458,o),
(1358,1458,cs),
(1127,1458,o),
(987,1354,o),
(954,1302,c),
(944,1302,l),
(918,1348,o),
(842,1458,o),
(591,1458,cs),
(327,1458,o),
(113,1336,o),
(113,968,cs),
(113,187,ls),
(113,5,o),
(155,-77,o),
(177,-94,c),
(471,6,l),
(456,34,o),
(436,125,o),
(436,235,cs),
(436,898,ls),
(436,1111,o),
(485,1192,o),
(614,1192,cs),
(722,1192,o),
(777,1108,o),
(782,975,c),
(782,149,ls),
(782,58,o),
(820,0,o),
(926,0,cs),
(1742,0,l),
(1742,263,l)
);
},
{
closed = 1;
nodes = (
(143,-34,l),
(155,-68,o),
(168,-87,o),
(177,-94,c),
(471,6,l),
(465,18,o),
(458,40,o),
(451,71,c)
);
}
);
};
hints = (
{
name = _cap.UpperHorizontal;
options = 2;
origin = (0,0);
type = Cap;
},
{
name = _cap.UpperVertical;
options = 2;
origin = (0,29);
type = Cap;
},
{
name = _cap.UpperVertical;
options = 2;
origin = (0,13);
type = Cap;
}
);
layerId = "DD1D3E88-8CF6-488D-B1FD-132231471927";
shapes = (
{
closed = 1;
nodes = (
(1597,0,l),
(1597,263,l),
(1197,263,ls),
(1131,263,o),
(1105,285,o),
(1105,356,cs),
(1105,1025,l),
(1112,1133,o),
(1177,1188,o),
(1258,1188,cs),
(1330,1188,o),
(1394,1141,o),
(1394,1018,cs),
(1394,580,l),
(1717,580,l),
(1717,1021,ls),
(1717,1342,o),
(1556,1458,o),
(1293,1458,cs),
(1103,1458,o),
(987,1354,o),
(954,1302,c),
(944,1302,l),
(918,1348,o),
(842,1458,o),
(611,1458,cs),
(384,1458,o),
(170,1336,o),
(170,968,cs),
(170,48,l),
(493,48,l),
(493,1018,ls),
(493,1141,o),
(552,1192,o),
(624,1192,cs),
(722,1192,o),
(777,1128,o),
(782,1025,c),
(782,149,ls),
(782,58,o),
(820,0,o),
(926,0,cs)
);
}
);
width = 1906;
}
);
note = uni1E91A;
unicode = 125210;
},
{
color = 4;
glyphname = "Nha-adlam";
lastChange = "2023-03-10 21:32:22 +0000";
layers = (
{
anchors = (
{
name = bottom;
pos = (806,0);
},
{
name = gemconsonanttop;
pos = (786,1330);
},
{
name = top;
pos = (806,1330);
}
);
background = {
hints = (
{
name = _cap.UpperHorizontal;
options = 2;
origin = (0,25);
type = Cap;
},
{
name = _cap.UpperHorizontal;
options = 10;
origin = (0,42);
scale = (1.02705,1);
type = Cap;
}
);
shapes = (
{
closed = 1;
nodes = (
(413,-98,o),
(462,-83,o),
(524,-58,cs),
(535,-53,o),
(541,-49,o),
(544,-43,cs),
(548,-36,o),
(549,-30,o),
(547,-18,cs),
(536,49,o),
(522,100,o),
(505,135,cs),
(498,149,o),
(492,155,o),
(478,167,cs),
(448,192,o),
(420,231,o),
(420,323,cs),
(420,463,o),
(481,556,o),
(665,588,c),
(665,256,ls),
(665,79,o),
(706,0,o),
(959,0,cs),
(1295,0,l),
(1295,263,l),
(1056,263,ls),
(965,263,o),
(935,304,o),
(935,394,cs),
(935,635,l),
(1302,699,o),
(1483,800,o),
(1483,1072,cs),
(1483,1279,o),
(1296,1434,o),
(986,1434,cs),
(684,1434,ls),
(394,1434,o),
(321,1339,o),
(267,1285,cs),
(264,1282,l),
(455,1091,l),
(458,1094,ls),
(507,1143,o),
(528,1174,o),
(665,1174,c),
(665,848,l),
(278,781,o),
(80,624,o),
(80,310,cs),
(80,77,o),
(212,-40,o),
(332,-95,cs),
(350,-103,o),
(355,-106,o),
(369,-104,cs)
);
},
{
closed = 1;
nodes = (
(935,1174,l),
(1076,1174,o),
(1143,1134,o),
(1143,1053,cs),
(1143,975,o),
(1095,924,o),
(935,895,c)
);
}
);
};
hints = (
{
name = _cap.UpperHorizontal;
options = 2;
origin = (0,25);
type = Cap;
}
);
layerId = "DD1D3E88-8CF6-488D-B1FD-132231471927";
shapes = (
{
closed = 1;
nodes = (
(413,-98,o),
(462,-83,o),
(524,-58,cs),
(535,-53,o),
(541,-49,o),
(544,-43,cs),
(548,-36,o),
(549,-30,o),
(547,-18,cs),
(536,49,o),
(522,100,o),
(505,135,cs),
(498,149,o),
(492,155,o),
(478,167,cs),
(448,192,o),
(420,231,o),
(420,323,cs),
(420,463,o),
(481,556,o),
(665,588,c),
(665,256,ls),
(665,79,o),
(706,0,o),
(959,0,cs),
(1295,0,l),
(1295,263,l),
(1056,263,ls),
(965,263,o),
(935,304,o),
(935,394,cs),
(935,635,l),
(1302,699,o),
(1483,800,o),
(1483,1072,cs),
(1483,1279,o),
(1296,1434,o),
(986,1434,cs),
(684,1434,ls),
(394,1434,o),
(321,1339,o),
(267,1285,cs),
(257,1275,o),
(254,1271,o),
(251,1258,cs),
(243,1216,o),
(242,1167,o),
(246,1103,cs),
(247,1092,o),
(249,1087,o),
(254,1082,cs),
(260,1076,o),
(265,1074,o),
(276,1073,cs),
(340,1069,o),
(389,1071,o),
(431,1078,cs),
(445,1081,o),
(448,1084,o),
(458,1094,cs),
(507,1143,o),
(528,1174,o),
(665,1174,c),
(665,848,l),
(278,781,o),
(80,624,o),
(80,310,cs),
(80,77,o),
(212,-40,o),
(332,-95,cs),
(350,-103,o),
(355,-106,o),
(369,-104,cs)
);
},
{
closed = 1;
nodes = (
(935,1174,l),
(1076,1174,o),
(1143,1134,o),
(1143,1053,cs),
(1143,975,o),
(1095,924,o),
(935,895,c)
);
}
);
width = 1573;
}
);
note = uni1E91B;
unicode = 125211;
},
{
color = 4;
glyphname = "Va-adlam";
lastChange = "2023-03-10 21:32:22 +0000";
layers = (
{
annotations = (
{
pos = (1680,145);
text = "Check Right SB";
type = Text;
}
);
background = {
hints = (
{
name = _cap.UpperVertical;
options = 2;
origin = (0,5);
type = Cap;
},
{
name = _cap.UpperHorizontal;
options = 2;
origin = (0,13);
type = Cap;
},
{
name = _cap.UpperVertical;
options = 2;
origin = (0,16);
type = Cap;
},
{
name = _cap.UpperHorizontal;
options = 2;
origin = (0,19);
type = Cap;
}
);
shapes = (
{
closed = 1;
nodes = (
(1112,1434,l),
(388,1434,ls),
(151,1434,o),
(51,1316,o),
(51,1066,cs),
(51,165,l),
(374,165,l),
(374,1037,ls),
(374,1132,o),
(410,1171,o),
(478,1171,cs),
(783,1171,l),
(783,804,l),
(628,804,l),
(628,543,l),
(783,543,l),
(783,165,l),
(1106,165,l),
(1106,1171,l),
(1112,1171,l)
);
}
);
};
layerId = "DD1D3E88-8CF6-488D-B1FD-132231471927";
shapes = (
{
pos = (1471,0);
ref = "Waw-adlam";
scale = (-1,1);
}
);
width = 1471;
}
);
note = uni1E91C;
unicode = 125212;
},
{
color = 4;
glyphname = "Gbe-adlam";
kernLeft = "Gbe-adlam";
kernRight = "Gbe-adlam";
lastChange = "2023-03-10 21:32:22 +0000";
layers = (
{
background = {
hints = (
{
name = _cap.UpperHorizontal;
options = 2;
origin = (3,9);
type = Cap;
},
{
name = _cap.UpperVertical;
options = 2;
origin = (3,22);
type = Cap;
},
{
name = _cap.UpperVertical;
options = 2;
origin = (3,24);
type = Cap;
},
{
name = _cap.UpperHorizontal;
options = 2;
origin = (3,34);
type = Cap;
}
);
shapes = (
{
closed = 1;
nodes = (
(996,1171,o),
(1049,1121,o),
(1049,1029,cs),
(1049,933,o),
(1002,875,o),
(882,773,cs),
(743,655,o),
(648,556,o),
(648,343,cs),
(648,80,o),
(732,0,o),
(1031,0,cs),
(1370,0,l),
(1370,263,l),
(1160,263,ls),
(1044,263,o),
(988,298,o),
(988,383,cs),
(988,467,o),
(1027,512,o),
(1180,647,cs),
(1332,781,o),
(1389,860,o),
(1389,1058,cs),
(1389,1335,o),
(1212,1434,o),
(874,1434,cs),
(180,1434,l),
(180,1171,l),
(828,1171,ls)
);
},
{
closed = 1;
nodes = (
(503,0,l),
(503,1006,l),
(180,1006,l),
(180,0,l)
);
},
{
closed = 1;
nodes = (
(297,384,l),
(919,384,l),
(919,584,l),
(297,584,l)
);
},
{
closed = 1;
nodes = (
(988,467,o),
(1027,512,o),
(1180,647,cs),
(1332,781,o),
(1389,860,o),
(1389,1058,cs),
(1389,1335,o),
(1212,1434,o),
(874,1434,cs),
(305,1434,l),
(305,1171,l),
(828,1171,ls),
(996,1171,o),
(1049,1121,o),
(1049,1025,cs),
(1049,933,o),
(1002,875,o),
(882,773,cs),
(809,711,o),
(748,655,o),
(707,584,c),
(503,584,l),
(503,841,l),
(180,841,l),
(180,165,l),
(503,165,l),
(503,384,l),
(649,384,l),
(648,371,o),
(648,357,o),
(648,343,cs),
(648,80,o),
(732,0,o),
(1031,0,cs),
(1235,0,l),
(1235,263,l),
(1160,263,ls),
(1044,263,o),
(988,298,o),
(988,383,cs)
);
}
);
};
layerId = "DD1D3E88-8CF6-488D-B1FD-132231471927";
shapes = (
{
pos = (1382,0);
ref = "Bhe-adlam";
scale = (-1,1);
}
);
width = 1382;
}
);
note = uni1E91E;
unicode = 125214;
},
{
color = 3;
glyphname = "Zal-adlam";
lastChange = "2023-03-10 21:32:22 +0000";
layers = (
{
anchors = (
{
name = bottom;
pos = (918,0);
},
{
name = gemconsonanttop;
pos = (847,1330);
},
{
name = top;
pos = (867,1330);
}
);
background = {
hints = (
{
name = _cap.UpperHorizontal;
options = 2;
origin = (0,0);
scale = (-1,1);
type = Cap;
},
{
name = _cap.UpperVertical;
options = 2;
origin = (0,8);
scale = (-1,1);
type = Cap;
},
{
name = _cap.UpperVertical;
options = 2;
origin = (0,17);
type = Cap;
},
{
name = _cap.UpperVertical;
options = 2;
origin = (0,27);
scale = (-1,1);
type = Cap;
}
);
shapes = (
{
closed = 1;
nodes = (
(986,0,l),
(986,263,l),
(617,263,ls),
(529,263,o),
(503,297,o),
(503,387,cs),
(503,746,l),
(719,746,l),
(719,573,l),
(1042,573,l),
(1042,969,ls),
(1042,1128,o),
(1085,1188,o),
(1175,1188,cs),
(1265,1188,o),
(1309,1128,o),
(1309,969,cs),
(1309,45,l),
(1632,45,l),
(1632,991,ls),
(1632,1341,o),
(1473,1458,o),
(1175,1458,cs),
(847,1458,o),
(719,1318,o),
(719,946,c),
(503,946,l),
(503,1269,l),
(181,1269,l),
(180,268,ls),
(180,68,o),
(220,0,o),
(427,0,cs)
);
}
);
};
hints = (
{
name = _cap.UpperVertical;
options = 2;
origin = (0,0);
scale = (-1,1);
type = Cap;
},
{
name = _cap.UpperVertical;
options = 2;
origin = (2,0);
scale = (-1,1);
type = Cap;
},
{
name = _cap.UpperHorizontal;
options = 2;
origin = (0,6);
scale = (-1,1);
type = Cap;
},
{
name = _cap.UpperVertical;
options = 2;
origin = (2,9);
type = Cap;
}
);
layerId = "DD1D3E88-8CF6-488D-B1FD-132231471927";
shapes = (
{
closed = 1;
nodes = (
(503,1269,l),
(181,1269,l),
(180,268,ls),
(180,68,o),
(220,0,o),
(427,0,cs),
(986,0,l),
(986,263,l),
(617,263,ls),
(529,263,o),
(503,297,o),
(503,387,cs),
(503,1086,l)
);
},
{
closed = 1;
nodes = (
(698,995,o),
(662,1017,o),
(619,1047,cs),
(517,1118,o),
(503,1154,o),
(503,1259,c),
(503,852,l),
(514,832,o),
(532,820,o),
(596,778,cs),
(670,730,o),
(719,671,o),
(719,604,c),
(719,965,l)
);
},
{
closed = 1;
nodes = (
(719,573,l),
(1042,573,l),
(1042,969,ls),
(1042,1128,o),
(1085,1188,o),
(1175,1188,cs),
(1265,1188,o),
(1309,1128,o),
(1309,969,cs),
(1309,45,l),
(1632,45,l),
(1632,991,ls),
(1632,1341,o),
(1473,1458,o),
(1175,1458,cs),
(847,1458,o),
(719,1302,o),
(719,984,cs)
);
}
);
width = 1802;
}
);
note = uni1E91F;
unicode = 125215;
},
{
color = 3;
glyphname = "Kpo-adlam";
lastChange = "2023-06-16 17:17:35 +0000";
layers = (
{
anchors = (
{
name = bottom;
pos = (712,0);
},
{
name = gemconsonanttop;
pos = (692,1330);
},
{
name = top;
pos = (712,1330);
}
);
background = {
hints = (
{
name = _cap.UpperHorizontal;
options = 2;
origin = (0,0);
type = Cap;
}
);
shapes = (
{
closed = 1;
nodes = (
(1163,0,l),
(1163,263,l),
(1073,263,l),
(1073,269,l),
(1201,351,o),
(1278,510,o),
(1278,759,cs),
(1278,955,ls),
(1278,1361,o),
(1104,1434,o),
(875,1434,cs),
(240,1434,l),
(240,164,ls),
(240,58,o),
(277,0,o),
(383,0,cs)
);
},
{
closed = 1;
nodes = (
(590,263,o),
(563,285,o),
(563,356,cs),
(563,1171,l),
(730,1171,ls),
(876,1171,o),
(955,1132,o),
(955,903,cs),
(955,698,ls),
(955,417,o),
(824,306,o),
(752,263,c),
(655,263,ls)
);
}
);
};
hints = (
{
name = _cap.UpperHorizontal;
options = 2;
origin = (0,0);
type = Cap;
},
{
name = _cap.UCstemHoriz;
origin = (1,0);
type = Cap;
},
{
name = _cap.UCstemHoriz;
origin = (1,2);
type = Cap;
}
);
layerId = "DD1D3E88-8CF6-488D-B1FD-132231471927";
shapes = (
{
closed = 1;
nodes = (
(1163,0,l),
(1163,263,l),
(595,263,ls),
(530,263,o),
(503,285,o),
(503,356,cs),
(503,1171,l),
(730,1171,ls),
(876,1171,o),
(955,1132,o),
(955,903,cs),
(955,728,ls),
(955,563,o),
(916,527,o),
(865,487,c),
(1040,298,l),
(1180,398,o),
(1278,450,o),
(1278,759,cs),
(1278,955,ls),
(1278,1361,o),
(1104,1434,o),
(875,1434,cs),
(180,1434,l),
(180,164,ls),
(180,58,o),
(217,0,o),
(323,0,cs)
);
},
{
closed = 1;
nodes = (
(875,625,l),
(875,888,l),
(578,888,l),
(578,625,l)
);
}
);
width = 1442;
}
);
note = uni1E920;
unicode = 125216;
},
{
color = 4;
glyphname = "Sha-adlam";
lastChange = "2023-03-10 21:32:22 +0000";
layers = (
{
anchors = (
{
name = bottom;
pos = (871,0);
},
{
name = gemconsonantbottom;
pos = (852,1330);
},
{
name = top;
pos = (871,1330);
}
);
background = {
anchors = (
{
name = top;
pos = (971,1330);
}
);
hints = (
{
name = _cap.UpperVertical;
options = 2;
origin = (1,3);
scale = (-1,-1);
type = Cap;
},
{
name = _cap.UpperVertical;
options = 2;
origin = (1,12);
scale = (-1,-1);
type = Cap;
},
{
name = _cap.UpperHorizontal;
options = 2;
origin = (1,20);
scale = (-1,-1);
type = Cap;
}
);
shapes = (
{
pos = (0,1434);
ref = "Zal-adlam";
scale = (1,-1);
},
{
closed = 1;
nodes = (
(1473,-24,o),
(1632,93,o),
(1632,443,cs),
(1632,1269,l),
(1309,1269,l),
(1309,465,ls),
(1309,306,o),
(1265,246,o),
(1175,246,cs),
(1085,246,o),
(1042,306,o),
(1042,465,cs),
(1042,861,l),
(719,861,l),
(719,688,l),
(503,688,l),
(503,1047,ls),
(503,1137,o),
(529,1171,o),
(617,1171,cs),
(986,1171,l),
(986,1434,l),
(427,1434,ls),
(220,1434,o),
(180,1366,o),
(180,1166,cs),
(181,0,l),
(503,0,l),
(503,488,l),
(719,488,l),
(719,116,o),
(847,-24,o),
(1175,-24,cs)
);
}
);
};
hints = (
{
name = _cap.UpperVertical;
options = 2;
origin = (0,12);
scale = (-1,-1);
type = Cap;
},
{
name = _cap.UpperVertical;
options = 2;
origin = (0,3);
scale = (-1,-1);
type = Cap;
},
{
name = _cap.UpperHorizontal;
options = 2;
origin = (0,20);
scale = (-1,-1);
type = Cap;
}
);
layerId = "DD1D3E88-8CF6-488D-B1FD-132231471927";
shapes = (
{
closed = 1;
nodes = (
(1473,-24,o),
(1632,93,o),
(1632,443,cs),
(1632,1269,l),
(1309,1269,l),
(1309,465,ls),
(1309,306,o),
(1265,246,o),
(1175,246,cs),
(1085,246,o),
(1042,306,o),
(1042,465,cs),
(1042,861,l),
(719,861,l),
(719,718,l),
(503,718,l),
(503,1047,ls),
(503,1137,o),
(529,1171,o),
(617,1171,cs),
(986,1171,l),
(986,1434,l),
(427,1434,ls),
(220,1434,o),
(180,1366,o),
(180,1166,cs),
(181,0,l),
(503,0,l),
(503,455,l),
(719,455,l),
(719,116,o),
(847,-24,o),
(1175,-24,cs)
);
}
);
width = 1802;
}
);
note = uni1E921;
unicode = 125217;
},
{
color = 8;
glyphname = "Alif-adlam.alt";
lastChange = "2023-03-10 21:32:22 +0000";
layers = (
{
anchors = (
{
name = bottom;
pos = (681,0);
},
{
name = gemconsonanttop;
pos = (673,1330);
},
{
name = top;
pos = (694,1330);
},
{
name = topAlif;
pos = (393,1434);
}
);
background = {
hints = (
{
name = _cap.UpperHorizontal;
options = 2;
origin = (2,5);
type = Cap;
}
);
shapes = (
{
closed = 1;
nodes = (
(989,-24,o),
(1140,152,o),
(1128,430,c),
(891,441,l),
(951,308,o),
(859,239,o),
(712,239,cs),
(570,239,o),
(483,302,o),
(483,521,cs),
(483,998,l),
(160,998,l),
(160,482,ls),
(160,66,o),
(395,-24,o),
(681,-24,cs)
);
},
{
closed = 1;
nodes = (
(1424,101,l),
(1358,133,o),
(1325,190,o),
(1237,376,cs),
(909,1070,l),
(654,944,l),
(994,211,ls),
(1055,79,o),
(1113,-21,o),
(1192,-24,c)
);
},
{
closed = 1;
nodes = (
(483,944,l),
(483,1037,ls),
(483,1132,o),
(519,1171,o),
(587,1171,cs),
(1011,1171,l),
(1011,1434,l),
(497,1434,ls),
(260,1434,o),
(160,1316,o),
(160,1066,cs),
(160,944,l)
);
}
);
};
hints = (
{
name = _cap.UpperHorizontal;
options = 2;
origin = (0,24);
type = Cap;
}
);
layerId = "DD1D3E88-8CF6-488D-B1FD-132231471927";
shapes = (
{
closed = 1;
nodes = (
(847,-24,o),
(967,27,o),
(1038,120,c),
(1044,120,l),
(1089,35,o),
(1133,-22,o),
(1192,-24,c),
(1424,101,l),
(1358,133,o),
(1325,190,o),
(1237,376,cs),
(909,1070,l),
(654,944,l),
(904,405,l),
(933,296,o),
(845,246,o),
(712,246,cs),
(570,246,o),
(483,309,o),
(483,528,cs),
(483,1037,ls),
(483,1132,o),
(519,1171,o),
(587,1171,cs),
(1011,1171,l),
(1011,1434,l),
(497,1434,ls),
(260,1434,o),
(160,1316,o),
(160,1066,cs),
(160,482,ls),
(160,66,o),
(395,-24,o),
(681,-24,cs)
);
}
);
width = 1424;
}
);
note = uni1E900;
},
{
color = 4;
glyphname = "alif-adlam";
lastChange = "2023-03-10 21:32:22 +0000";
layers = (
{
anchors = (
{
name = bottom;
pos = (668,0);
},
{
name = gemconsonanttop;
pos = (690,1118);
},
{
name = top;
pos = (640,1118);
},
{
name = topAlif;
pos = (145,1178);
}
);
background = {
shapes = (
{
closed = 1;
nodes = (
(606,910,l),
(606,677,l),
(687,677,ls),
(824,677,o),
(897,610,o),
(897,464,cs),
(897,289,o),
(816,218,o),
(682,218,cs),
(530,218,o),
(461,270,o),
(461,473,cs),
(461,1118,l),
(145,1118,l),
(145,452,ls),
(145,105,o),
(307,-24,o),
(672,-24,cs),
(1027,-24,o),
(1218,140,o),
(1218,412,cs),
(1218,626,o),
(1102,698,o),
(1066,713,c),
(1066,725,l),
(1102,729,o),
(1190,767,o),
(1218,791,c),
(1137,1001,l),
(1092,971,o),
(928,910,o),
(706,910,cs)
);
}
);
};
hints = (
{
name = _cap.LowerVertical;
options = 2;
origin = (0,29);
type = Cap;
}
);
layerId = "DD1D3E88-8CF6-488D-B1FD-132231471927";
shapes = (
{
closed = 1;
nodes = (
(1027,-24,o),
(1218,140,o),
(1218,415,cs),
(1218,636,o),
(1102,708,o),
(1066,729,c),
(1066,741,l),
(1102,739,o),
(1190,757,o),
(1218,781,c),
(1158,991,l),
(1133,974,o),
(1067,956,o),
(957,956,cs),
(885,956,o),
(799,968,o),
(706,1000,cs),
(626,1028,l),
(566,817,l),
(629,792,ls),
(819,717,o),
(897,610,o),
(897,455,cs),
(897,302,o),
(816,231,o),
(673,231,cs),
(532,231,o),
(461,283,o),
(461,473,cs),
(461,1173,l),
(145,1173,l),
(145,452,ls),
(145,105,o),
(305,-24,o),
(668,-24,cs)
);
}
);
width = 1343;
}
);
note = uni1E922;
unicode = 125218;
},
{
color = 4;
glyphname = "daali-adlam";
lastChange = "2023-03-10 21:32:22 +0000";
layers = (
{
anchors = (
{
name = bottom;
pos = (601,0);
},
{
name = gemconsonanttop;
pos = (585,1118);
},
{
name = top;
pos = (601,1118);
}
);
background = {
anchors = (
{
name = gemconsonanttop;
pos = (585,1118);
},
{
name = top;
pos = (601,1118);
}
);
shapes = (
{
closed = 1;
nodes = (
(1101,985,l),
(1101,1320,l),
(785,1320,l),
(785,985,l)
);
}
);
};
hints = (
{
name = _cap.LowerVertical;
options = 2;
origin = (0,4);
type = Cap;
},
{
name = _cap.LowerVertical;
options = 2;
origin = (0,14);
type = Cap;
},
{
name = _cap.LowerHorizontal.base;
options = 2;
origin = (0,26);
type = Cap;
}
);
layerId = "DD1D3E88-8CF6-488D-B1FD-132231471927";
shapes = (
{
closed = 1;
nodes = (
(823,0,ls),
(1008,0,o),
(1101,73,o),
(1101,273,cs),
(1101,993,l),
(785,993,l),
(785,641,l),
(777,635,l),
(757,654,o),
(709,671,o),
(609,705,cs),
(490,746,o),
(445,764,o),
(444,854,cs),
(443,993,l),
(127,993,l),
(128,840,ls),
(130,585,o),
(224,557,o),
(503,469,cs),
(751,390,o),
(785,358,o),
(785,313,cs),
(785,263,o),
(745,255,o),
(651,255,cs),
(243,255,l),
(243,0,l)
);
}
);
width = 1261;
}
);
note = uni1E923;
unicode = 125219;
},
{
color = 4;
glyphname = "laam-adlam";
lastChange = "2023-03-10 21:32:22 +0000";
layers = (
{
anchors = (
{
name = bottom;
pos = (627,0);
},
{
name = gemconsonanttop;
pos = (607,1118);
},
{
name = top;
pos = (647,1118);
}
);
background = {
shapes = (
{
closed = 1;
nodes = (
(138,233,l),
(138,0,l),
(846,0,ls),
(1031,0,o),
(1124,73,o),
(1124,273,cs),
(1124,739,ls),
(1124,1055,o),
(954,1141,o),
(632,1141,cs),
(310,1141,o),
(122,1088,o),
(122,813,cs),
(122,572,l),
(443,572,l),
(443,716,ls),
(443,867,o),
(502,899,o),
(613,899,cs),
(752,899,o),
(808,842,o),
(808,663,cs),
(808,346,ls),
(808,261,o),
(768,233,o),
(674,233,cs)
);
}
);
};
hints = (
{
name = _cap.LowerVertical;
options = 2;
origin = (0,11);
type = Cap;
},
{
name = _cap.LowerHorizontal.base;
options = 2;
origin = (0,24);
type = Cap;
}
);
layerId = "DD1D3E88-8CF6-488D-B1FD-132231471927";
shapes = (
{
closed = 1;
nodes = (
(846,0,ls),
(1031,0,o),
(1124,73,o),
(1124,273,cs),
(1124,717,ls),
(1124,1034,o),
(949,1141,o),
(671,1141,cs),
(419,1141,o),
(122,1043,o),
(122,689,cs),
(122,632,l),
(438,632,l),
(438,689,ls),
(438,834,o),
(543,886,o),
(647,886,cs),
(744,886,o),
(808,831,o),
(808,704,cs),
(808,368,ls),
(808,283,o),
(768,255,o),
(674,255,cs),
(238,255,l),
(238,0,l)
);
}
);
width = 1269;
}
);
note = uni1E924;
unicode = 125220;
},
{
color = 3;
glyphname = "miim-adlam";
lastChange = "2023-03-10 21:32:22 +0000";
layers = (
{
anchors = (
{
name = bottom;
pos = (582,0);
},
{
name = gemconsonanttop;
pos = (561,1118);
},
{
name = top;
pos = (582,1118);
}
);
background = {
hints = (
{
name = _cap.LowerHorizontal.base;
options = 2;
origin = (0,38);
type = Cap;
}
);
shapes = (
{
closed = 1;
nodes = (
(810,0,ls),
(1005,0,o),
(1088,73,o),
(1088,273,cs),
(1088,500,o),
(975,561,o),
(628,691,cs),
(461,754,o),
(419,776,o),
(419,827,cs),
(419,880,o),
(484,899,o),
(595,899,cs),
(728,899,o),
(792,863,o),
(792,798,cs),
(792,777,o),
(779,747,o),
(771,737,c),
(1018,628,l),
(1048,660,o),
(1088,729,o),
(1088,828,cs),
(1088,1042,o),
(907,1141,o),
(602,1141,cs),
(240,1141,o),
(98,1021,o),
(98,829,cs),
(98,627,o),
(231,578,o),
(500,476,cs),
(725,391,o),
(772,370,o),
(772,318,cs),
(772,262,o),
(742,255,o),
(648,255,cs),
(213,255,l),
(213,0,l)
);
}
);
};
hints = (
{
name = _cap.LowerHorizontal.base;
options = 2;
origin = (0,34);
type = Cap;
}
);
layerId = "DD1D3E88-8CF6-488D-B1FD-132231471927";
shapes = (
{
closed = 1;
nodes = (
(810,0,ls),
(1005,0,o),
(1088,73,o),
(1088,273,cs),
(1088,500,o),
(975,561,o),
(628,691,cs),
(461,754,o),
(419,776,o),
(419,827,cs),
(419,880,o),
(484,899,o),
(595,899,cs),
(728,899,o),
(782,883,o),
(782,818,cs),
(782,687,l),
(1088,687,l),
(1088,858,ls),
(1088,1072,o),
(907,1141,o),
(602,1141,cs),
(240,1141,o),
(98,1021,o),
(98,829,cs),
(98,627,o),
(231,578,o),
(500,476,cs),
(725,391,o),
(772,370,o),
(772,318,cs),
(772,262,o),
(742,255,o),
(648,255,cs),
(213,255,l),
(213,0,l)
);
}
);
width = 1228;
}
);
note = uni1E925;
unicode = 125221;
},
{
color = 4;
glyphname = "ba-adlam";
lastChange = "2023-03-10 21:32:22 +0000";
layers = (
{
anchors = (
{
name = bottom;
pos = (762,0);
},
{
name = gemconsonanttop;
pos = (742,1118);
},
{
name = top;
pos = (762,1118);
}
);
background = {
anchors = (
{
name = top;
pos = (747,1118);
}
);
hints = (
{
name = _cap.LowerVertical;
options = 2;
origin = (2,1);
type = Cap;
},
{
name = _cap.LowerHorizontal;
options = 10;
origin = (1,0);
scale = (0.94421,1);
type = Cap;
}
);
shapes = (
{
closed = 1;
nodes = (
(1158,773,l),
(188,1173,l),
(82,930,l),
(1076,527,l)
);
},
{
closed = 1;
nodes = (
(658,0,l),
(658,220,l),
(642,220,ls),
(538,220,o),
(391,279,o),
(391,461,cs),
(391,576,o),
(443,700,o),
(670,729,c),
(493,830,l),
(467,830,l),
(199,783,o),
(70,606,o),
(70,423,cs),
(70,214,o),
(217,0,o),
(617,0,cs)
);
},
{
closed = 1;
nodes = (
(1197,0,l),
(1197,1175,l),
(881,1175,l),
(881,0,l)
);
}
);
};
hints = (
{
name = _cap.LowerHorizontal.base;
options = 2;
origin = (1,5);
type = Cap;
},
{
name = _cap.LowerVertical;
options = 2;
origin = (1,11);
type = Cap;
}
);
layerId = "DD1D3E88-8CF6-488D-B1FD-132231471927";
shapes = (
{
closed = 1;
nodes = (
(1167,367,o),
(1383,522,o),
(1383,780,cs),
(1383,1052,o),
(1183,1141,o),
(981,1141,cs),
(784,1141,o),
(696,1074,o),
(646,1040,c),
(646,707,l),
(912,707,l),
(912,916,l),
(932,928,o),
(948,931,o),
(969,931,cs),
(1017,931,o),
(1067,899,o),
(1067,783,cs),
(1067,637,o),
(977,587,o),
(821,587,cs),
(652,587,o),
(527,641,o),
(476,680,c),
(476,435,l),
(519,408,o),
(646,367,o),
(821,367,cs)
);
},
{
closed = 1;
nodes = (
(160,1175,l),
(160,273,ls),
(160,73,o),
(253,0,o),
(438,0,cs),
(1258,0,l),
(1258,255,l),
(610,255,ls),
(516,255,o),
(476,283,o),
(476,368,cs),
(476,1175,l)
);
}
);
width = 1478;
}
);
note = uni1E939;
unicode = 125222;
},
{
color = 4;
glyphname = "sinnyiiyhe-adlam";
lastChange = "2023-03-10 21:32:22 +0000";
layers = (
{
anchors = (
{
name = bottom;
pos = (899,0);
},
{
name = gemconsonanttop;
pos = (889,1118);
},
{
name = top;
pos = (909,1118);
}
);
hints = (
{
name = _cap.LowerVertical;
options = 2;
origin = (0,28);
type = Cap;
},
{
name = _cap.LowerVertical;
options = 2;
origin = (0,19);
type = Cap;
},
{
name = _cap.LowerVertical;
options = 2;
origin = (0,10);
type = Cap;
}
);
layerId = "DD1D3E88-8CF6-488D-B1FD-132231471927";
shapes = (
{
closed = 1;
nodes = (
(760,-24,o),
(858,64,o),
(896,134,c),
(906,134,l),
(941,64,o),
(1036,-24,o),
(1236,-24,cs),
(1500,-24,o),
(1664,100,o),
(1664,434,cs),
(1664,993,l),
(1348,993,l),
(1348,447,ls),
(1348,280,o),
(1287,231,o),
(1208,231,cs),
(1130,231,o),
(1063,280,o),
(1063,460,cs),
(1063,993,l),
(747,993,l),
(746,437,ls),
(746,282,o),
(680,231,o),
(607,231,cs),
(534,231,o),
(461,286,o),
(461,450,cs),
(461,1175,l),
(145,1175,l),
(145,392,ls),
(145,86,o),
(288,-24,o),
(571,-24,cs)
);
}
);
width = 1809;
}
);
note = uni1E927;
unicode = 125223;
},
{
color = 3;
glyphname = "pe-adlam";
lastChange = "2023-03-10 21:32:22 +0000";
layers = (
{
anchors = (
{
name = bottom;
pos = (625,0);
},
{
name = gemconsonanttop;
pos = (605,1118);
},
{
name = top;
pos = (625,1118);
}
);
background = {
shapes = (
{
closed = 1;
nodes = (
(610,233,ls),
(516,233,o),
(476,261,o),
(476,346,cs),
(476,885,l),
(613,885,ls),
(763,885,o),
(797,823,o),
(797,686,cs),
(797,581,ls),
(797,492,o),
(772,454,o),
(721,417,c),
(872,260,l),
(977,294,o),
(1113,393,o),
(1113,595,cs),
(1113,773,ls),
(1113,1026,o),
(961,1118,o),
(649,1118,cs),
(160,1118,l),
(160,273,ls),
(160,73,o),
(253,0,o),
(438,0,cs),
(1100,0,l),
(1100,233,l)
);
}
);
};
hints = (
{
name = _cap.LowerHorizontal.base;
options = 2;
origin = (0,0);
type = Cap;
}
);
layerId = "DD1D3E88-8CF6-488D-B1FD-132231471927";
shapes = (
{
closed = 1;
nodes = (
(1010,0,l),
(1010,255,l),
(610,255,ls),
(516,255,o),
(476,283,o),
(476,368,cs),
(476,863,l),
(613,863,ls),
(763,863,o),
(797,801,o),
(797,664,cs),
(797,603,ls),
(797,514,o),
(772,476,o),
(721,439,c),
(872,282,l),
(977,316,o),
(1113,415,o),
(1113,617,cs),
(1113,773,ls),
(1113,1026,o),
(961,1118,o),
(649,1118,cs),
(160,1118,l),
(160,273,ls),
(160,73,o),
(253,0,o),
(438,0,cs)
);
}
);
width = 1233;
}
);
note = uni1E928;
unicode = 125224;
},
{
color = 4;
glyphname = "bhe-adlam";
lastChange = "2023-03-10 21:32:22 +0000";
layers = (
{
anchors = (
{
name = bottom;
pos = (588,0);
},
{
name = gemconsonanttop;
pos = (578,1118);
},
{
name = top;
pos = (598,1118);
}
);
background = {
anchors = (
{
name = top;
pos = (618,1118);
}
);
hints = (
{
name = _cap.LowerHorizontal;
options = 2;
origin = (0,17);
scale = (-1,-1);
type = Cap;
}
);
shapes = (
{
closed = 1;
nodes = (
(794,-24,o),
(953,101,o),
(953,368,c),
(712,390,l),
(720,376,o),
(724,362,o),
(724,330,cs),
(724,240,o),
(675,208,o),
(587,208,cs),
(508,208,o),
(424,218,o),
(424,361,cs),
(424,772,ls),
(424,857,o),
(464,885,o),
(558,885,cs),
(922,885,l),
(922,1118,l),
(386,1118,ls),
(201,1118,o),
(108,1045,o),
(108,845,cs),
(108,291,ls),
(108,30,o),
(320,-24,o),
(570,-24,cs)
);
},
{
closed = 1;
nodes = (
(1227,145,l),
(1179,145,o),
(1107,255,o),
(1065,332,cs),
(817,785,l),
(567,650,l),
(825,188,ls),
(924,11,o),
(996,-20,o),
(1039,-20,c)
);
}
);
};
hints = (
{
name = _cap.LowerVertical;
options = 2;
origin = (0,4);
type = Cap;
},
{
name = _cap.LowerHorizontal.base;
options = 2;
origin = (0,36);
type = Cap;
}
);
layerId = "DD1D3E88-8CF6-488D-B1FD-132231471927";
shapes = (
{
closed = 1;
nodes = (
(805,0,ls),
(990,0,o),
(1083,73,o),
(1083,273,cs),
(1083,729,l),
(767,729,l),
(767,654,l),
(731,636,o),
(664,621,o),
(573,621,cs),
(482,621,o),
(429,645,o),
(429,713,cs),
(429,783,o),
(476,822,o),
(679,908,cs),
(886,995,o),
(966,1029,o),
(1077,1110,c),
(943,1333,l),
(846,1257,o),
(745,1214,o),
(527,1119,cs),
(252,999,o),
(108,916,o),
(108,711,cs),
(108,474,o),
(270,379,o),
(541,379,cs),
(651,379,o),
(726,397,o),
(767,413,c),
(767,368,ls),
(767,283,o),
(727,255,o),
(633,255,cs),
(198,255,l),
(198,0,l)
);
}
);
width = 1233;
}
);
note = uni1E929;
unicode = 125225;
},
{
color = 4;
glyphname = "ra-adlam";
lastChange = "2023-03-10 21:32:22 +0000";
layers = (
{
anchors = (
{
name = bottom;
pos = (697,0);
},
{
name = gemconsonanttop;
pos = (677,1118);
},
{
name = top;
pos = (697,1118);
}
);
background = {
anchors = (
{
name = top;
pos = (677,1118);
}
);
hints = (
{
name = _cap.LowerHorizontal;
options = 2;
origin = (1,0);
type = Cap;
},
{
name = _cap.LowerVertical;
options = 2;
origin = (1,14);
type = Cap;
},
{
name = _cap.LowerVertical;
options = 2;
origin = (1,23);
type = Cap;
}
);
shapes = (
{
closed = 1;
nodes = (
(476,985,l),
(476,1320,l),
(160,1320,l),
(160,985,l)
);
},
{
closed = 1;
nodes = (
(1047,0,l),
(1047,233,l),
(610,233,ls),
(516,233,o),
(476,261,o),
(476,346,cs),
(476,473,l),
(481,476,l),
(507,452,o),
(577,408,o),
(728,408,cs),
(1003,408,o),
(1177,515,o),
(1177,799,cs),
(1177,973,l),
(861,973,l),
(861,851,ls),
(861,724,o),
(842,650,o),
(674,650,cs),
(545,650,o),
(495,725,o),
(476,823,c),
(476,1175,l),
(160,1175,l),
(160,273,ls),
(160,73,o),
(253,0,o),
(438,0,cs)
);
}
);
};
hints = (
{
name = _cap.LowerVertical;
options = 2;
origin = (0,23);
type = Cap;
},
{
name = _cap.LowerVertical;
options = 2;
origin = (0,14);
type = Cap;
},
{
name = _cap.LowerHorizontal.base;
options = 2;
origin = (0,0);
type = Cap;
}
);
layerId = "DD1D3E88-8CF6-488D-B1FD-132231471927";
shapes = (
{
closed = 1;
nodes = (
(1038,0,l),
(1038,255,l),
(610,255,ls),
(516,255,o),
(476,283,o),
(476,368,cs),
(476,473,l),
(481,476,l),
(507,452,o),
(577,408,o),
(728,408,cs),
(1003,408,o),
(1177,515,o),
(1177,799,cs),
(1177,993,l),
(861,993,l),
(861,864,ls),
(861,737,o),
(842,663,o),
(674,663,cs),
(545,663,o),
(495,738,o),
(476,836,c),
(476,1175,l),
(160,1175,l),
(160,273,ls),
(160,73,o),
(253,0,o),
(438,0,cs)
);
}
);
width = 1297;
}
);
note = uni1E92A;
unicode = 125226;
},
{
color = 4;
glyphname = "e-adlam";
lastChange = "2023-03-10 21:32:22 +0000";
layers = (
{
anchors = (
{
name = bottom;
pos = (720,0);
},
{
name = top;
pos = (720,1118);
}
);
background = {
shapes = (
{
closed = 1;
nodes = (
(1085,549,l),
(1127,571,o),
(1211,658,o),
(1211,809,cs),
(1211,1040,o),
(1041,1141,o),
(736,1141,cs),
(377,1141,o),
(145,1023,o),
(145,581,cs),
(145,0,l),
(461,0,l),
(461,550,ls),
(461,817,o),
(539,899,o),
(700,899,cs),
(817,899,o),
(890,855,o),
(890,766,cs),
(890,682,o),
(857,645,o),
(751,560,cs),
(651,479,o),
(529,398,o),
(529,230,cs),
(529,70,o),
(612,0,o),
(824,0,cs),
(964,0,ls),
(1186,0,o),
(1331,58,o),
(1331,262,cs),
(1331,437,o),
(1228,521,o),
(1085,542,c)
);
},
{
closed = 1;
nodes = (
(830,190,ls),
(777,190,o),
(746,205,o),
(746,264,cs),
(746,362,o),
(813,427,o),
(886,454,c),
(992,454,o),
(1030,371,o),
(1030,301,cs),
(1030,212,o),
(987,190,o),
(918,190,cs)
);
},
{
closed = 1;
nodes = (
(461,20,l),
(492,109,o),
(545,188,o),
(595,230,c),
(594,396,l),
(560,379,o),
(502,315,o),
(461,264,c)
);
}
);
};
hints = (
{
name = _cap.LowerVertical;
options = 2;
origin = (0,26);
type = Cap;
}
);
layerId = "DD1D3E88-8CF6-488D-B1FD-132231471927";
shapes = (
{
closed = 1;
nodes = (
(461,-30,l),
(461,20,l),
(476,65,o),
(503,115,o),
(529,155,c),
(537,155,l),
(561,48,o),
(647,0,o),
(824,0,cs),
(964,0,ls),
(1186,0,o),
(1331,58,o),
(1331,262,cs),
(1331,437,o),
(1228,521,o),
(1085,542,c),
(1085,549,l),
(1127,571,o),
(1211,658,o),
(1211,809,cs),
(1211,1040,o),
(1041,1141,o),
(736,1141,cs),
(377,1141,o),
(145,1063,o),
(145,621,cs),
(145,-30,l)
);
},
{
closed = 1;
nodes = (
(777,201,o),
(746,216,o),
(746,275,cs),
(746,362,o),
(813,427,o),
(886,454,c),
(992,454,o),
(1030,371,o),
(1030,312,cs),
(1030,223,o),
(987,201,o),
(918,201,cs),
(830,201,ls)
);
},
{
closed = 1;
nodes = (
(461,590,ls),
(461,844,o),
(539,886,o),
(714,886,cs),
(824,886,o),
(890,842,o),
(890,766,cs),
(890,702,o),
(857,665,o),
(751,580,cs),
(686,527,o),
(611,474,o),
(567,388,c),
(534,360,o),
(493,313,o),
(461,274,c)
);
}
);
width = 1394;
}
);
note = uni1E92B;
unicode = 125227;
},
{
color = 4;
glyphname = "fa-adlam";
lastChange = "2023-03-10 21:32:22 +0000";
layers = (
{
anchors = (
{
name = bottom;
pos = (700,0);
},
{
name = gemconsonanttop;
pos = (660,1118);
},
{
name = top;
pos = (680,1118);
}
);
background = {
shapes = (
{
closed = 1;
nodes = (
(624,745,o),
(532,678,o),
(481,617,c),
(476,620,l),
(477,772,ls),
(478,857,o),
(517,885,o),
(611,885,cs),
(1153,885,l),
(1153,1118,l),
(439,1118,ls),
(254,1118,o),
(161,1045,o),
(161,845,cs),
(160,-174,l),
(476,-174,l),
(476,399,l),
(532,493,o),
(621,533,o),
(718,533,cs),
(850,533,o),
(903,476,o),
(903,355,cs),
(903,240,o),
(865,217,o),
(747,217,cs),
(644,217,l),
(644,0,l),
(846,0,ls),
(1082,0,o),
(1224,51,o),
(1224,357,cs),
(1224,616,o),
(1091,745,o),
(824,745,cs)
);
}
);
};
hints = (
{
name = _cap.LowerHorizontal.base;
options = 2;
origin = (0,28);
type = Cap;
},
{
name = _cap.LowerHorizontal;
options = 10;
origin = (0,11);
scale = (0.93133,1);
type = Cap;
},
{
name = _cap.LowerVertical;
options = 2;
origin = (0,34);
type = Cap;
}
);
layerId = "DD1D3E88-8CF6-488D-B1FD-132231471927";
shapes = (
{
closed = 1;
nodes = (
(476,-30,l),
(476,391,l),
(506,460,o),
(595,525,o),
(718,525,cs),
(840,525,o),
(903,468,o),
(903,345,cs),
(903,255,o),
(855,232,o),
(717,232,cs),
(714,232,l),
(714,0,l),
(846,0,ls),
(1082,0,o),
(1224,51,o),
(1224,345,cs),
(1224,616,o),
(1091,745,o),
(815,745,cs),
(612,745,o),
(514,662,o),
(483,618,c),
(476,620,l),
(477,750,ls),
(478,835,o),
(517,863,o),
(611,863,cs),
(1031,863,l),
(1031,1118,l),
(439,1118,ls),
(254,1118,o),
(161,1045,o),
(161,845,cs),
(160,-30,l)
);
}
);
width = 1324;
}
);
note = uni1E92C;
unicode = 125228;
},
{
color = 4;
glyphname = "i-adlam";
lastChange = "2023-03-10 21:32:22 +0000";
layers = (
{
anchors = (
{
name = bottom;
pos = (672,0);
},
{
name = top;
pos = (672,1118);
}
);
hints = (
{
name = _cap.LowerVertical;
options = 2;
origin = (0,12);
type = Cap;
},
{
name = _cap.LowerVertical;
options = 2;
origin = (0,3);
type = Cap;
}
);
layerId = "DD1D3E88-8CF6-488D-B1FD-132231471927";
shapes = (
{
closed = 1;
nodes = (
(1040,-23,o),
(1191,128,o),
(1191,415,cs),
(1191,993,l),
(875,993,l),
(875,487,ls),
(875,288,o),
(817,232,o),
(672,232,cs),
(524,232,o),
(461,288,o),
(461,487,cs),
(461,993,l),
(145,993,l),
(145,415,ls),
(145,128,o),
(284,-23,o),
(672,-23,cs)
);
}
);
width = 1336;
}
);
note = uni1E92D;
unicode = 125229;
},
{
color = 4;
glyphname = "o-adlam";
lastChange = "2023-03-10 21:32:22 +0000";
layers = (
{
anchors = (
{
name = bottom;
pos = (675,0);
},
{
name = top;
pos = (688,1118);
}
);
background = {
shapes = (
{
closed = 1;
nodes = (
(125,363,o),
(231,275,o),
(291,236,c),
(289,233,l),
(173,233,l),
(173,0,l),
(1106,0,l),
(1106,233,l),
(778,233,ls),
(516,233,o),
(446,405,o),
(446,597,cs),
(446,805,o),
(539,899,o),
(664,899,cs),
(781,899,o),
(815,829,o),
(815,738,cs),
(815,709,o),
(812,681,o),
(807,652,c),
(1116,613,l),
(1124,642,o),
(1136,690,o),
(1136,738,cs),
(1136,1010,o),
(991,1141,o),
(669,1141,cs),
(373,1141,o),
(125,964,o),
(125,611,cs)
);
}
);
};
hints = (
{
name = _cap.LowerHorizontal.base;
options = 2;
origin = (0,1);
type = Cap;
},
{
name = _cap.LowerVertical;
options = 2;
origin = (0,13);
type = Cap;
}
);
layerId = "DD1D3E88-8CF6-488D-B1FD-132231471927";
shapes = (
{
closed = 1;
nodes = (
(634,0,l),
(692,0,l),
(692,255,l),
(688,255,ls),
(456,255,o),
(416,387,o),
(416,547,cs),
(416,792,o),
(509,886,o),
(683,886,cs),
(841,886,o),
(916,806,o),
(915,558,cs),
(914,87,l),
(1227,87,l),
(1231,548,ls),
(1235,1013,o),
(1016,1141,o),
(688,1141,cs),
(343,1141,o),
(95,964,o),
(95,561,cs),
(95,323,o),
(171,0,o),
(629,0,c)
);
}
);
width = 1376;
}
);
note = uni1E92E;
unicode = 125230;
},
{
color = 4;
glyphname = "dha-adlam";
lastChange = "2023-03-10 21:32:22 +0000";
layers = (
{
anchors = (
{
name = bottom;
pos = (723,0);
},
{
name = gemconsonanttop;
pos = (694,1118);
},
{
name = top;
pos = (714,1118);
}
);
background = {
anchors = (
{
name = top;
pos = (736,1118);
}
);
hints = (
{
name = _cap.LowerVertical;
options = 2;
origin = (0,6);
type = Cap;
},
{
name = _cap.LowerVertical;
options = 2;
origin = (2,6);
type = Cap;
}
);
shapes = (
{
closed = 1;
nodes = (
(816,-24,o),
(905,8,o),
(959,66,c),
(965,64,l),
(985,0,l),
(1281,0,l),
(1281,1175,l),
(965,1175,l),
(965,1031,l),
(959,1029,l),
(932,1061,o),
(851,1118,o),
(709,1118,cs),
(581,1118,o),
(491,1066,o),
(470,1031,c),
(466,1032,l),
(456,1118,l),
(150,1118,l),
(150,0,l),
(447,0,l),
(467,55,l),
(473,58,l),
(518,11,o),
(598,-24,o),
(714,-24,cs)
);
},
{
closed = 1;
nodes = (
(466,796,o),
(540,876,o),
(698,876,cs),
(852,876,o),
(965,782,o),
(965,547,cs),
(965,295,o),
(835,218,o),
(706,218,cs),
(598,218,o),
(509,261,o),
(466,327,c),
(466,648,ls)
);
},
{
closed = 1;
nodes = (
(2228,-24,o),
(2305,8,o),
(2359,66,c),
(2365,64,l),
(2385,0,l),
(2681,0,l),
(2681,1175,l),
(2365,1175,l),
(2365,1031,l),
(2359,1029,l),
(2332,1069,o),
(2260,1118,o),
(2115,1118,cs),
(1980,1118,o),
(1901,1066,o),
(1880,1029,c),
(1876,1030,l),
(1857,1118,l),
(1560,1118,l),
(1560,0,l),
(1857,0,l),
(1877,63,l),
(1883,66,l),
(1928,11,o),
(2000,-24,o),
(2123,-24,cs)
);
},
{
closed = 1;
nodes = (
(1856,769,o),
(1950,863,o),
(2115,863,cs),
(2282,863,o),
(2375,769,o),
(2375,547,cs),
(2375,308,o),
(2265,231,o),
(2123,231,cs),
(1970,231,o),
(1856,308,o),
(1856,547,cs)
);
}
);
};
hints = (
{
name = _cap.LowerVertical;
options = 2;
origin = (0,6);
type = Cap;
}
);
layerId = "DD1D3E88-8CF6-488D-B1FD-132231471927";
shapes = (
{
closed = 1;
nodes = (
(828,-24,o),
(905,8,o),
(959,66,c),
(965,64,l),
(985,0,l),
(1281,0,l),
(1281,1175,l),
(965,1175,l),
(965,991,l),
(959,989,l),
(941,1015,o),
(820,1118,o),
(545,1118,cs),
(400,1118,o),
(231,1072,o),
(160,1038,c),
(160,0,l),
(457,0,l),
(477,63,l),
(483,66,l),
(528,11,o),
(600,-24,o),
(723,-24,cs)
);
},
{
closed = 1;
nodes = (
(456,827,l),
(486,844,o),
(549,863,o),
(635,863,cs),
(816,863,o),
(975,744,o),
(975,583,cs),
(975,487,ls),
(975,308,o),
(865,231,o),
(723,231,cs),
(570,231,o),
(456,308,o),
(456,487,c)
);
}
);
width = 1441;
}
);
note = uni1E92F;
unicode = 125231;
},
{
color = 4;
glyphname = "yhe-adlam";
lastChange = "2023-03-10 21:32:22 +0000";
layers = (
{
anchors = (
{
name = bottom;
pos = (612,0);
},
{
name = gemconsonanttop;
pos = (578,1118);
},
{
name = top;
pos = (598,1118);
}
);
background = {
shapes = (
{
closed = 1;
nodes = (
(960,1156,o),
(894,1118,o),
(768,1118,cs),
(143,1118,l),
(143,885,l),
(314,885,l),
(316,880,l),
(238,830,o),
(109,717,o),
(109,470,cs),
(109,227,o),
(256,0,o),
(686,0,cs),
(1049,0,l),
(1049,233,l),
(761,233,ls),
(583,233,o),
(430,296,o),
(430,521,cs),
(430,717,o),
(556,831,o),
(646,885,c),
(772,885,ls),
(977,885,o),
(1045,938,o),
(1079,980,c),
(985,1182,l)
);
}
);
};
hints = (
{
name = _cap.LowerHorizontal.base;
options = 2;
origin = (0,17);
type = Cap;
},
{
name = _cap.LowerHorizontal.base;
options = 2;
origin = (0,0);
type = Cap;
}
);
layerId = "DD1D3E88-8CF6-488D-B1FD-132231471927";
shapes = (
{
closed = 1;
nodes = (
(980,0,l),
(980,255,l),
(781,255,ls),
(553,255,o),
(430,318,o),
(430,521,cs),
(430,705,o),
(549,819,o),
(646,863,c),
(861,863,ls),
(1017,863,o),
(1070,887,o),
(1139,964,c),
(967,1173,l),
(935,1141,o),
(913,1118,o),
(827,1118,cs),
(223,1118,l),
(223,863,l),
(314,863,l),
(316,858,l),
(228,810,o),
(109,702,o),
(109,470,cs),
(109,227,o),
(226,0,o),
(706,0,cs)
);
}
);
width = 1185;
}
);
note = uni1E930;
unicode = 125232;
},
{
color = 4;
glyphname = "waw-adlam";
lastChange = "2023-03-10 21:32:22 +0000";
layers = (
{
anchors = (
{
name = bottom;
pos = (656,0);
},
{
name = gemconsonanttop;
pos = (626,1118);
},
{
name = top;
pos = (646,1118);
}
);
annotations = (
{
pos = (1680,145);
text = "Check Right SB";
type = Text;
}
);
background = {
hints = (
{
name = _cap.LowerVertical;
options = 2;
origin = (0,4);
type = Cap;
},
{
name = _cap.LowerVertical;
options = 2;
origin = (0,14);
type = Cap;
},
{
name = _cap.LowerHorizontal;
options = 2;
origin = (0,17);
type = Cap;
}
);
shapes = (
{
closed = 1;
nodes = (
(1222,91,l),
(1195,119,o),
(1163,190,o),
(1163,309,cs),
(1163,993,l),
(850,993,l),
(864,1009,l),
(857,1007,l),
(817,1065,o),
(746,1141,o),
(556,1141,cs),
(331,1141,o),
(145,1041,o),
(145,729,cs),
(145,-30,l),
(461,-30,l),
(461,348,l),
(652,348,l),
(652,581,l),
(461,581,l),
(461,699,ls),
(461,844,o),
(527,908,o),
(660,908,cs),
(764,908,o),
(817,857,o),
(847,788,c),
(847,248,ls),
(847,57,o),
(909,-17,o),
(948,-35,c)
);
}
);
};
hints = (
{
name = _cap.LowerHorizontal;
options = 2;
origin = (0,30);
type = Cap;
},
{
name = _cap.LowerVertical;
options = 2;
origin = (0,27);
type = Cap;
}
);
layerId = "DD1D3E88-8CF6-488D-B1FD-132231471927";
shapes = (
{
closed = 1;
nodes = (
(1222,91,l),
(1195,119,o),
(1163,190,o),
(1163,309,cs),
(1163,983,ls),
(1163,1003,o),
(1162,1008,o),
(1153,1020,cs),
(1125,1057,o),
(1087,1095,o),
(1030,1139,cs),
(1020,1147,o),
(1013,1149,o),
(1005,1149,cs),
(997,1149,o),
(991,1147,o),
(980,1139,cs),
(924,1095,o),
(886,1056,o),
(855,1014,c),
(850,1014,l),
(810,1071,o),
(739,1141,o),
(556,1141,cs),
(331,1141,o),
(145,1041,o),
(145,729,cs),
(145,-30,l),
(461,-30,l),
(461,348,l),
(652,348,l),
(652,581,l),
(461,581,l),
(461,677,ls),
(461,822,o),
(527,886,o),
(660,886,cs),
(764,886,o),
(817,835,o),
(847,766,c),
(847,248,ls),
(847,57,o),
(909,-17,o),
(948,-35,c)
);
}
);
width = 1322;
}
);
note = uni1E931;
unicode = 125233;
},
{
color = 4;
glyphname = "nun-adlam";
lastChange = "2023-03-10 21:32:22 +0000";
layers = (
{
anchors = (
{
name = bottom;
pos = (582,0);
},
{
name = gemconsonanttop;
pos = (562,1118);
},
{
name = top;
pos = (582,1118);
}
);
background = {
shapes = (
{
closed = 1;
nodes = (
(518,235,ls),
(432,235,o),
(395,254,o),
(395,325,cs),
(395,393,o),
(444,420,o),
(655,481,cs),
(910,555,o),
(1028,610,o),
(1028,842,cs),
(1028,1049,o),
(901,1118,o),
(679,1118,cs),
(169,1118,l),
(169,885,l),
(603,885,ls),
(682,885,o),
(707,864,o),
(707,817,cs),
(707,762,o),
(681,739,o),
(474,679,cs),
(223,606,o),
(74,549,o),
(74,283,cs),
(74,61,o),
(225,-1,o),
(474,0,cs),
(959,2,l),
(959,235,l)
);
}
);
};
hints = (
{
name = _cap.LowerHorizontal.base;
options = 2;
origin = (0,15);
type = Cap;
},
{
name = _cap.LowerHorizontal.base;
options = 2;
origin = (0,0);
type = Cap;
}
);
layerId = "DD1D3E88-8CF6-488D-B1FD-132231471927";
shapes = (
{
closed = 1;
nodes = (
(879,2,l),
(879,257,l),
(518,255,ls),
(432,255,o),
(395,274,o),
(395,336,cs),
(395,403,o),
(444,440,o),
(664,504,cs),
(910,575,o),
(1028,640,o),
(1028,851,cs),
(1028,1049,o),
(901,1118,o),
(679,1118,cs),
(259,1118,l),
(259,863,l),
(623,863,ls),
(691,863,o),
(707,849,o),
(707,823,cs),
(707,784,o),
(681,769,o),
(474,709,cs),
(232,639,o),
(74,549,o),
(74,306,cs),
(74,61,o),
(225,-1,o),
(474,0,cs)
);
}
);
width = 1108;
}
);
note = uni1E932;
unicode = 125234;
},
{
color = 3;
glyphname = "kaf-adlam";
lastChange = "2023-03-10 21:32:22 +0000";
layers = (
{
anchors = (
{
name = bottom;
pos = (672,0);
},
{
name = gemconsonanttop;
pos = (652,1118);
},
{
name = top;
pos = (672,1118);
}
);
background = {
shapes = (
{
closed = 1;
nodes = (
(56,1118,l),
(56,885,l),
(827,885,ls),
(921,885,o),
(961,857,o),
(961,772,cs),
(961,614,l),
(707,613,l),
(707,759,l),
(411,759,l),
(411,613,l),
(170,613,l),
(170,407,l),
(411,407,l),
(411,346,ls),
(411,261,o),
(371,233,o),
(277,233,cs),
(28,233,l),
(28,0,l),
(429,0,ls),
(614,0,o),
(707,73,o),
(707,273,cs),
(707,407,l),
(961,407,l),
(961,0,l),
(1277,0,l),
(1277,845,ls),
(1277,1045,o),
(1184,1118,o),
(999,1118,cs)
);
}
);
};
hints = (
{
name = _cap.LowerHorizontal.base;
options = 2;
origin = (0,12);
type = Cap;
},
{
name = _cap.LowerHorizontal.base;
options = 2;
origin = (0,26);
type = Cap;
},
{
name = _cap.LowerVertical;
options = 10;
origin = (0,20);
scale = (0.93671,1);
type = Cap;
},
{
name = _cap.LCstemHoriz;
options = 8;
origin = (1,0);
scale = (1.05579,1);
type = Cap;
}
);
layerId = "DD1D3E88-8CF6-488D-B1FD-132231471927";
shapes = (
{
closed = 1;
nodes = (
(429,0,ls),
(614,0,o),
(707,73,o),
(707,273,cs),
(707,347,l),
(961,347,l),
(961,0,l),
(1277,0,l),
(1277,845,ls),
(1277,1045,o),
(1184,1118,o),
(999,1118,cs),
(176,1118,l),
(176,863,l),
(827,863,ls),
(921,863,o),
(961,835,o),
(961,750,cs),
(961,594,l),
(707,593,l),
(707,629,l),
(411,629,l),
(411,368,ls),
(411,283,o),
(401,255,o),
(307,255,cs),
(148,255,l),
(148,0,l)
);
},
{
closed = 1;
nodes = (
(290,593,l),
(290,347,l),
(531,347,l),
(531,593,l)
);
}
);
width = 1437;
}
);
note = uni1E933;
unicode = 125235;
},
